<?xml version="1.0" encoding="utf-8" standalone="no"?>
<!DOCTYPE svg PUBLIC "-//W3C//DTD SVG 1.1//EN"
  "http://www.w3.org/Graphics/SVG/1.1/DTD/svg11.dtd">
<!-- Created with matplotlib (https://matplotlib.org/) -->
<svg height="671.252813pt" version="1.1" viewBox="0 0 1172.055016 671.252813" width="1172.055016pt" xmlns="http://www.w3.org/2000/svg" xmlns:xlink="http://www.w3.org/1999/xlink">
 <defs>
  <style type="text/css">
*{stroke-linecap:butt;stroke-linejoin:round;}
  </style>
 </defs>
 <g id="figure_1">
  <g id="patch_1">
   <path d="M 0 671.252813 
L 1172.055016 671.252813 
L 1172.055016 0 
L 0 0 
z
" style="fill:#ffffff;"/>
  </g>
  <g id="axes_1">
   <g id="patch_2">
    <path d="M 73.22875 541.206406 
L 791.798016 541.206406 
L 791.798016 73.546406 
L 73.22875 73.546406 
z
" style="fill:#eaeaf2;"/>
   </g>
   <g id="matplotlib.axis_1">
    <g id="xtick_1">
     <g id="line2d_1">
      <path clip-path="url(#pc1fd985e0b)" d="M 194.300058 541.206406 
L 194.300058 73.546406 
" style="fill:none;stroke:#ffffff;stroke-linecap:round;"/>
     </g>
     <g id="text_1">
      <!-- 6.0 -->
      <defs>
       <path d="M 49.75 54.046875 
L 41.015625 53.375 
Q 39.84375 58.546875 37.703125 60.890625 
Q 34.125 64.65625 28.90625 64.65625 
Q 24.703125 64.65625 21.53125 62.3125 
Q 17.390625 59.28125 14.984375 53.46875 
Q 12.59375 47.65625 12.5 36.921875 
Q 15.671875 41.75 20.265625 44.09375 
Q 24.859375 46.4375 29.890625 46.4375 
Q 38.671875 46.4375 44.84375 39.96875 
Q 51.03125 33.5 51.03125 23.25 
Q 51.03125 16.5 48.125 10.71875 
Q 45.21875 4.9375 40.140625 1.859375 
Q 35.0625 -1.21875 28.609375 -1.21875 
Q 17.625 -1.21875 10.6875 6.859375 
Q 3.765625 14.9375 3.765625 33.5 
Q 3.765625 54.25 11.421875 63.671875 
Q 18.109375 71.875 29.4375 71.875 
Q 37.890625 71.875 43.28125 67.140625 
Q 48.6875 62.40625 49.75 54.046875 
z
M 13.875 23.1875 
Q 13.875 18.65625 15.796875 14.5 
Q 17.71875 10.359375 21.1875 8.171875 
Q 24.65625 6 28.46875 6 
Q 34.03125 6 38.03125 10.484375 
Q 42.046875 14.984375 42.046875 22.703125 
Q 42.046875 30.125 38.078125 34.390625 
Q 34.125 38.671875 28.125 38.671875 
Q 22.171875 38.671875 18.015625 34.390625 
Q 13.875 30.125 13.875 23.1875 
z
" id="ArialMT-54"/>
       <path d="M 9.078125 0 
L 9.078125 10.015625 
L 19.09375 10.015625 
L 19.09375 0 
z
" id="ArialMT-46"/>
       <path d="M 4.15625 35.296875 
Q 4.15625 48 6.765625 55.734375 
Q 9.375 63.484375 14.515625 67.671875 
Q 19.671875 71.875 27.484375 71.875 
Q 33.25 71.875 37.59375 69.546875 
Q 41.9375 67.234375 44.765625 62.859375 
Q 47.609375 58.5 49.21875 52.21875 
Q 50.828125 45.953125 50.828125 35.296875 
Q 50.828125 22.703125 48.234375 14.96875 
Q 45.65625 7.234375 40.5 3 
Q 35.359375 -1.21875 27.484375 -1.21875 
Q 17.140625 -1.21875 11.234375 6.203125 
Q 4.15625 15.140625 4.15625 35.296875 
z
M 13.1875 35.296875 
Q 13.1875 17.671875 17.3125 11.828125 
Q 21.4375 6 27.484375 6 
Q 33.546875 6 37.671875 11.859375 
Q 41.796875 17.71875 41.796875 35.296875 
Q 41.796875 52.984375 37.671875 58.78125 
Q 33.546875 64.59375 27.390625 64.59375 
Q 21.34375 64.59375 17.71875 59.46875 
Q 13.1875 52.9375 13.1875 35.296875 
z
" id="ArialMT-48"/>
      </defs>
      <g style="fill:#262626;" transform="translate(179.010058 566.453594)scale(0.22 -0.22)">
       <use xlink:href="#ArialMT-54"/>
       <use x="55.615234" xlink:href="#ArialMT-46"/>
       <use x="83.398438" xlink:href="#ArialMT-48"/>
      </g>
     </g>
    </g>
    <g id="xtick_2">
     <g id="line2d_2">
      <path clip-path="url(#pc1fd985e0b)" d="M 317.090432 541.206406 
L 317.090432 73.546406 
" style="fill:none;stroke:#ffffff;stroke-linecap:round;"/>
     </g>
     <g id="text_2">
      <!-- 6.5 -->
      <defs>
       <path d="M 4.15625 18.75 
L 13.375 19.53125 
Q 14.40625 12.796875 18.140625 9.390625 
Q 21.875 6 27.15625 6 
Q 33.5 6 37.890625 10.78125 
Q 42.28125 15.578125 42.28125 23.484375 
Q 42.28125 31 38.0625 35.34375 
Q 33.84375 39.703125 27 39.703125 
Q 22.75 39.703125 19.328125 37.765625 
Q 15.921875 35.84375 13.96875 32.765625 
L 5.71875 33.84375 
L 12.640625 70.609375 
L 48.25 70.609375 
L 48.25 62.203125 
L 19.671875 62.203125 
L 15.828125 42.96875 
Q 22.265625 47.46875 29.34375 47.46875 
Q 38.71875 47.46875 45.15625 40.96875 
Q 51.609375 34.46875 51.609375 24.265625 
Q 51.609375 14.546875 45.953125 7.46875 
Q 39.0625 -1.21875 27.15625 -1.21875 
Q 17.390625 -1.21875 11.203125 4.25 
Q 5.03125 9.71875 4.15625 18.75 
z
" id="ArialMT-53"/>
      </defs>
      <g style="fill:#262626;" transform="translate(301.800432 566.453594)scale(0.22 -0.22)">
       <use xlink:href="#ArialMT-54"/>
       <use x="55.615234" xlink:href="#ArialMT-46"/>
       <use x="83.398438" xlink:href="#ArialMT-53"/>
      </g>
     </g>
    </g>
    <g id="xtick_3">
     <g id="line2d_3">
      <path clip-path="url(#pc1fd985e0b)" d="M 439.880805 541.206406 
L 439.880805 73.546406 
" style="fill:none;stroke:#ffffff;stroke-linecap:round;"/>
     </g>
     <g id="text_3">
      <!-- 7.0 -->
      <defs>
       <path d="M 4.734375 62.203125 
L 4.734375 70.65625 
L 51.078125 70.65625 
L 51.078125 63.8125 
Q 44.234375 56.546875 37.515625 44.484375 
Q 30.8125 32.421875 27.15625 19.671875 
Q 24.515625 10.6875 23.78125 0 
L 14.75 0 
Q 14.890625 8.453125 18.0625 20.40625 
Q 21.234375 32.375 27.171875 43.484375 
Q 33.109375 54.59375 39.796875 62.203125 
z
" id="ArialMT-55"/>
      </defs>
      <g style="fill:#262626;" transform="translate(424.590805 566.453594)scale(0.22 -0.22)">
       <use xlink:href="#ArialMT-55"/>
       <use x="55.615234" xlink:href="#ArialMT-46"/>
       <use x="83.398438" xlink:href="#ArialMT-48"/>
      </g>
     </g>
    </g>
    <g id="xtick_4">
     <g id="line2d_4">
      <path clip-path="url(#pc1fd985e0b)" d="M 562.671179 541.206406 
L 562.671179 73.546406 
" style="fill:none;stroke:#ffffff;stroke-linecap:round;"/>
     </g>
     <g id="text_4">
      <!-- 7.5 -->
      <g style="fill:#262626;" transform="translate(547.381179 566.453594)scale(0.22 -0.22)">
       <use xlink:href="#ArialMT-55"/>
       <use x="55.615234" xlink:href="#ArialMT-46"/>
       <use x="83.398438" xlink:href="#ArialMT-53"/>
      </g>
     </g>
    </g>
    <g id="xtick_5">
     <g id="line2d_5">
      <path clip-path="url(#pc1fd985e0b)" d="M 685.461552 541.206406 
L 685.461552 73.546406 
" style="fill:none;stroke:#ffffff;stroke-linecap:round;"/>
     </g>
     <g id="text_5">
      <!-- 8.0 -->
      <defs>
       <path d="M 17.671875 38.8125 
Q 12.203125 40.828125 9.5625 44.53125 
Q 6.9375 48.25 6.9375 53.421875 
Q 6.9375 61.234375 12.546875 66.546875 
Q 18.171875 71.875 27.484375 71.875 
Q 36.859375 71.875 42.578125 66.421875 
Q 48.296875 60.984375 48.296875 53.171875 
Q 48.296875 48.1875 45.671875 44.5 
Q 43.0625 40.828125 37.75 38.8125 
Q 44.34375 36.671875 47.78125 31.875 
Q 51.21875 27.09375 51.21875 20.453125 
Q 51.21875 11.28125 44.71875 5.03125 
Q 38.234375 -1.21875 27.640625 -1.21875 
Q 17.046875 -1.21875 10.546875 5.046875 
Q 4.046875 11.328125 4.046875 20.703125 
Q 4.046875 27.6875 7.59375 32.390625 
Q 11.140625 37.109375 17.671875 38.8125 
z
M 15.921875 53.71875 
Q 15.921875 48.640625 19.1875 45.40625 
Q 22.46875 42.1875 27.6875 42.1875 
Q 32.765625 42.1875 36.015625 45.375 
Q 39.265625 48.578125 39.265625 53.21875 
Q 39.265625 58.0625 35.90625 61.359375 
Q 32.5625 64.65625 27.59375 64.65625 
Q 22.5625 64.65625 19.234375 61.421875 
Q 15.921875 58.203125 15.921875 53.71875 
z
M 13.09375 20.65625 
Q 13.09375 16.890625 14.875 13.375 
Q 16.65625 9.859375 20.171875 7.921875 
Q 23.6875 6 27.734375 6 
Q 34.03125 6 38.125 10.046875 
Q 42.234375 14.109375 42.234375 20.359375 
Q 42.234375 26.703125 38.015625 30.859375 
Q 33.796875 35.015625 27.4375 35.015625 
Q 21.234375 35.015625 17.15625 30.90625 
Q 13.09375 26.8125 13.09375 20.65625 
z
" id="ArialMT-56"/>
      </defs>
      <g style="fill:#262626;" transform="translate(670.171552 566.453594)scale(0.22 -0.22)">
       <use xlink:href="#ArialMT-56"/>
       <use x="55.615234" xlink:href="#ArialMT-46"/>
       <use x="83.398438" xlink:href="#ArialMT-48"/>
      </g>
     </g>
    </g>
    <g id="text_6">
     <!-- Average Rating -->
     <defs>
      <path d="M -0.140625 0 
L 27.34375 71.578125 
L 37.546875 71.578125 
L 66.84375 0 
L 56.0625 0 
L 47.703125 21.6875 
L 17.78125 21.6875 
L 9.90625 0 
z
M 20.515625 29.390625 
L 44.78125 29.390625 
L 37.3125 49.21875 
Q 33.890625 58.25 32.234375 64.0625 
Q 30.859375 57.171875 28.375 50.390625 
z
" id="ArialMT-65"/>
      <path d="M 21 0 
L 1.265625 51.859375 
L 10.546875 51.859375 
L 21.6875 20.796875 
Q 23.484375 15.765625 25 10.359375 
Q 26.171875 14.453125 28.265625 20.21875 
L 39.796875 51.859375 
L 48.828125 51.859375 
L 29.203125 0 
z
" id="ArialMT-118"/>
      <path d="M 42.09375 16.703125 
L 51.171875 15.578125 
Q 49.03125 7.625 43.21875 3.21875 
Q 37.40625 -1.171875 28.375 -1.171875 
Q 17 -1.171875 10.328125 5.828125 
Q 3.65625 12.84375 3.65625 25.484375 
Q 3.65625 38.578125 10.390625 45.796875 
Q 17.140625 53.03125 27.875 53.03125 
Q 38.28125 53.03125 44.875 45.953125 
Q 51.46875 38.875 51.46875 26.03125 
Q 51.46875 25.25 51.421875 23.6875 
L 12.75 23.6875 
Q 13.234375 15.140625 17.578125 10.59375 
Q 21.921875 6.0625 28.421875 6.0625 
Q 33.25 6.0625 36.671875 8.59375 
Q 40.09375 11.140625 42.09375 16.703125 
z
M 13.234375 30.90625 
L 42.1875 30.90625 
Q 41.609375 37.453125 38.875 40.71875 
Q 34.671875 45.796875 27.984375 45.796875 
Q 21.921875 45.796875 17.796875 41.75 
Q 13.671875 37.703125 13.234375 30.90625 
z
" id="ArialMT-101"/>
      <path d="M 6.5 0 
L 6.5 51.859375 
L 14.40625 51.859375 
L 14.40625 44 
Q 17.4375 49.515625 20 51.265625 
Q 22.5625 53.03125 25.640625 53.03125 
Q 30.078125 53.03125 34.671875 50.203125 
L 31.640625 42.046875 
Q 28.421875 43.953125 25.203125 43.953125 
Q 22.3125 43.953125 20.015625 42.21875 
Q 17.71875 40.484375 16.75 37.40625 
Q 15.28125 32.71875 15.28125 27.15625 
L 15.28125 0 
z
" id="ArialMT-114"/>
      <path d="M 40.4375 6.390625 
Q 35.546875 2.25 31.03125 0.53125 
Q 26.515625 -1.171875 21.34375 -1.171875 
Q 12.796875 -1.171875 8.203125 3 
Q 3.609375 7.171875 3.609375 13.671875 
Q 3.609375 17.484375 5.34375 20.625 
Q 7.078125 23.78125 9.890625 25.6875 
Q 12.703125 27.59375 16.21875 28.5625 
Q 18.796875 29.25 24.03125 29.890625 
Q 34.671875 31.15625 39.703125 32.90625 
Q 39.75 34.71875 39.75 35.203125 
Q 39.75 40.578125 37.25 42.78125 
Q 33.890625 45.75 27.25 45.75 
Q 21.046875 45.75 18.09375 43.578125 
Q 15.140625 41.40625 13.71875 35.890625 
L 5.125 37.0625 
Q 6.296875 42.578125 8.984375 45.96875 
Q 11.671875 49.359375 16.75 51.1875 
Q 21.828125 53.03125 28.515625 53.03125 
Q 35.15625 53.03125 39.296875 51.46875 
Q 43.453125 49.90625 45.40625 47.53125 
Q 47.359375 45.171875 48.140625 41.546875 
Q 48.578125 39.3125 48.578125 33.453125 
L 48.578125 21.734375 
Q 48.578125 9.46875 49.140625 6.21875 
Q 49.703125 2.984375 51.375 0 
L 42.1875 0 
Q 40.828125 2.734375 40.4375 6.390625 
z
M 39.703125 26.03125 
Q 34.90625 24.078125 25.34375 22.703125 
Q 19.921875 21.921875 17.671875 20.9375 
Q 15.4375 19.96875 14.203125 18.09375 
Q 12.984375 16.21875 12.984375 13.921875 
Q 12.984375 10.40625 15.640625 8.0625 
Q 18.3125 5.71875 23.4375 5.71875 
Q 28.515625 5.71875 32.46875 7.9375 
Q 36.421875 10.15625 38.28125 14.015625 
Q 39.703125 17 39.703125 22.796875 
z
" id="ArialMT-97"/>
      <path d="M 4.984375 -4.296875 
L 13.53125 -5.5625 
Q 14.0625 -9.515625 16.5 -11.328125 
Q 19.78125 -13.765625 25.4375 -13.765625 
Q 31.546875 -13.765625 34.859375 -11.328125 
Q 38.1875 -8.890625 39.359375 -4.5 
Q 40.046875 -1.8125 39.984375 6.78125 
Q 34.234375 0 25.640625 0 
Q 14.9375 0 9.078125 7.71875 
Q 3.21875 15.4375 3.21875 26.21875 
Q 3.21875 33.640625 5.90625 39.90625 
Q 8.59375 46.1875 13.6875 49.609375 
Q 18.796875 53.03125 25.6875 53.03125 
Q 34.859375 53.03125 40.828125 45.609375 
L 40.828125 51.859375 
L 48.921875 51.859375 
L 48.921875 7.03125 
Q 48.921875 -5.078125 46.453125 -10.125 
Q 44 -15.1875 38.640625 -18.109375 
Q 33.296875 -21.046875 25.484375 -21.046875 
Q 16.21875 -21.046875 10.5 -16.875 
Q 4.78125 -12.703125 4.984375 -4.296875 
z
M 12.25 26.859375 
Q 12.25 16.65625 16.296875 11.96875 
Q 20.359375 7.28125 26.46875 7.28125 
Q 32.515625 7.28125 36.609375 11.9375 
Q 40.71875 16.609375 40.71875 26.5625 
Q 40.71875 36.078125 36.5 40.90625 
Q 32.28125 45.75 26.3125 45.75 
Q 20.453125 45.75 16.34375 40.984375 
Q 12.25 36.234375 12.25 26.859375 
z
" id="ArialMT-103"/>
      <path id="ArialMT-32"/>
      <path d="M 7.859375 0 
L 7.859375 71.578125 
L 39.59375 71.578125 
Q 49.171875 71.578125 54.140625 69.640625 
Q 59.125 67.71875 62.109375 62.828125 
Q 65.09375 57.953125 65.09375 52.046875 
Q 65.09375 44.4375 60.15625 39.203125 
Q 55.21875 33.984375 44.921875 32.5625 
Q 48.6875 30.765625 50.640625 29 
Q 54.78125 25.203125 58.5 19.484375 
L 70.953125 0 
L 59.03125 0 
L 49.5625 14.890625 
Q 45.40625 21.34375 42.71875 24.75 
Q 40.046875 28.171875 37.921875 29.53125 
Q 35.796875 30.90625 33.59375 31.453125 
Q 31.984375 31.78125 28.328125 31.78125 
L 17.328125 31.78125 
L 17.328125 0 
z
M 17.328125 39.984375 
L 37.703125 39.984375 
Q 44.1875 39.984375 47.84375 41.328125 
Q 51.515625 42.671875 53.421875 45.625 
Q 55.328125 48.578125 55.328125 52.046875 
Q 55.328125 57.125 51.640625 60.390625 
Q 47.953125 63.671875 39.984375 63.671875 
L 17.328125 63.671875 
z
" id="ArialMT-82"/>
      <path d="M 25.78125 7.859375 
L 27.046875 0.09375 
Q 23.34375 -0.6875 20.40625 -0.6875 
Q 15.625 -0.6875 12.984375 0.828125 
Q 10.359375 2.34375 9.28125 4.8125 
Q 8.203125 7.28125 8.203125 15.1875 
L 8.203125 45.015625 
L 1.765625 45.015625 
L 1.765625 51.859375 
L 8.203125 51.859375 
L 8.203125 64.703125 
L 16.9375 69.96875 
L 16.9375 51.859375 
L 25.78125 51.859375 
L 25.78125 45.015625 
L 16.9375 45.015625 
L 16.9375 14.703125 
Q 16.9375 10.9375 17.40625 9.859375 
Q 17.875 8.796875 18.921875 8.15625 
Q 19.96875 7.515625 21.921875 7.515625 
Q 23.390625 7.515625 25.78125 7.859375 
z
" id="ArialMT-116"/>
      <path d="M 6.640625 61.46875 
L 6.640625 71.578125 
L 15.4375 71.578125 
L 15.4375 61.46875 
z
M 6.640625 0 
L 6.640625 51.859375 
L 15.4375 51.859375 
L 15.4375 0 
z
" id="ArialMT-105"/>
      <path d="M 6.59375 0 
L 6.59375 51.859375 
L 14.5 51.859375 
L 14.5 44.484375 
Q 20.21875 53.03125 31 53.03125 
Q 35.6875 53.03125 39.625 51.34375 
Q 43.5625 49.65625 45.515625 46.921875 
Q 47.46875 44.1875 48.25 40.4375 
Q 48.734375 37.984375 48.734375 31.890625 
L 48.734375 0 
L 39.9375 0 
L 39.9375 31.546875 
Q 39.9375 36.921875 38.90625 39.578125 
Q 37.890625 42.234375 35.28125 43.8125 
Q 32.671875 45.40625 29.15625 45.40625 
Q 23.53125 45.40625 19.453125 41.84375 
Q 15.375 38.28125 15.375 28.328125 
L 15.375 0 
z
" id="ArialMT-110"/>
     </defs>
     <g style="fill:#262626;" transform="translate(350.011508 592.004844)scale(0.24 -0.24)">
      <use xlink:href="#ArialMT-65"/>
      <use x="64.949219" xlink:href="#ArialMT-118"/>
      <use x="114.949219" xlink:href="#ArialMT-101"/>
      <use x="170.564453" xlink:href="#ArialMT-114"/>
      <use x="203.865234" xlink:href="#ArialMT-97"/>
      <use x="259.480469" xlink:href="#ArialMT-103"/>
      <use x="315.095703" xlink:href="#ArialMT-101"/>
      <use x="370.710938" xlink:href="#ArialMT-32"/>
      <use x="398.494141" xlink:href="#ArialMT-82"/>
      <use x="470.710938" xlink:href="#ArialMT-97"/>
      <use x="526.326172" xlink:href="#ArialMT-116"/>
      <use x="554.109375" xlink:href="#ArialMT-105"/>
      <use x="576.326172" xlink:href="#ArialMT-110"/>
      <use x="631.941406" xlink:href="#ArialMT-103"/>
     </g>
    </g>
   </g>
   <g id="matplotlib.axis_2">
    <g id="ytick_1">
     <g id="line2d_6">
      <path clip-path="url(#pc1fd985e0b)" d="M 73.22875 487.457447 
L 791.798016 487.457447 
" style="fill:none;stroke:#ffffff;stroke-linecap:round;"/>
     </g>
     <g id="text_7">
      <!-- 0.3 -->
      <defs>
       <path d="M 4.203125 18.890625 
L 12.984375 20.0625 
Q 14.5 12.59375 18.140625 9.296875 
Q 21.78125 6 27 6 
Q 33.203125 6 37.46875 10.296875 
Q 41.75 14.59375 41.75 20.953125 
Q 41.75 27 37.796875 30.921875 
Q 33.84375 34.859375 27.734375 34.859375 
Q 25.25 34.859375 21.53125 33.890625 
L 22.515625 41.609375 
Q 23.390625 41.5 23.921875 41.5 
Q 29.546875 41.5 34.03125 44.421875 
Q 38.53125 47.359375 38.53125 53.46875 
Q 38.53125 58.296875 35.25 61.46875 
Q 31.984375 64.65625 26.8125 64.65625 
Q 21.6875 64.65625 18.265625 61.421875 
Q 14.84375 58.203125 13.875 51.765625 
L 5.078125 53.328125 
Q 6.6875 62.15625 12.390625 67.015625 
Q 18.109375 71.875 26.609375 71.875 
Q 32.46875 71.875 37.390625 69.359375 
Q 42.328125 66.84375 44.9375 62.5 
Q 47.5625 58.15625 47.5625 53.265625 
Q 47.5625 48.640625 45.0625 44.828125 
Q 42.578125 41.015625 37.703125 38.765625 
Q 44.046875 37.3125 47.5625 32.6875 
Q 51.078125 28.078125 51.078125 21.140625 
Q 51.078125 11.765625 44.234375 5.25 
Q 37.40625 -1.265625 26.953125 -1.265625 
Q 17.53125 -1.265625 11.296875 4.34375 
Q 5.078125 9.96875 4.203125 18.890625 
z
" id="ArialMT-51"/>
      </defs>
      <g style="fill:#262626;" transform="translate(33.14875 495.331041)scale(0.22 -0.22)">
       <use xlink:href="#ArialMT-48"/>
       <use x="55.615234" xlink:href="#ArialMT-46"/>
       <use x="83.398438" xlink:href="#ArialMT-51"/>
      </g>
     </g>
    </g>
    <g id="ytick_2">
     <g id="line2d_7">
      <path clip-path="url(#pc1fd985e0b)" d="M 73.22875 390.273939 
L 791.798016 390.273939 
" style="fill:none;stroke:#ffffff;stroke-linecap:round;"/>
     </g>
     <g id="text_8">
      <!-- 0.4 -->
      <defs>
       <path d="M 32.328125 0 
L 32.328125 17.140625 
L 1.265625 17.140625 
L 1.265625 25.203125 
L 33.9375 71.578125 
L 41.109375 71.578125 
L 41.109375 25.203125 
L 50.78125 25.203125 
L 50.78125 17.140625 
L 41.109375 17.140625 
L 41.109375 0 
z
M 32.328125 25.203125 
L 32.328125 57.46875 
L 9.90625 25.203125 
z
" id="ArialMT-52"/>
      </defs>
      <g style="fill:#262626;" transform="translate(33.14875 398.147533)scale(0.22 -0.22)">
       <use xlink:href="#ArialMT-48"/>
       <use x="55.615234" xlink:href="#ArialMT-46"/>
       <use x="83.398438" xlink:href="#ArialMT-52"/>
      </g>
     </g>
    </g>
    <g id="ytick_3">
     <g id="line2d_8">
      <path clip-path="url(#pc1fd985e0b)" d="M 73.22875 293.09043 
L 791.798016 293.09043 
" style="fill:none;stroke:#ffffff;stroke-linecap:round;"/>
     </g>
     <g id="text_9">
      <!-- 0.5 -->
      <g style="fill:#262626;" transform="translate(33.14875 300.964024)scale(0.22 -0.22)">
       <use xlink:href="#ArialMT-48"/>
       <use x="55.615234" xlink:href="#ArialMT-46"/>
       <use x="83.398438" xlink:href="#ArialMT-53"/>
      </g>
     </g>
    </g>
    <g id="ytick_4">
     <g id="line2d_9">
      <path clip-path="url(#pc1fd985e0b)" d="M 73.22875 195.906922 
L 791.798016 195.906922 
" style="fill:none;stroke:#ffffff;stroke-linecap:round;"/>
     </g>
     <g id="text_10">
      <!-- 0.6 -->
      <g style="fill:#262626;" transform="translate(33.14875 203.780516)scale(0.22 -0.22)">
       <use xlink:href="#ArialMT-48"/>
       <use x="55.615234" xlink:href="#ArialMT-46"/>
       <use x="83.398438" xlink:href="#ArialMT-54"/>
      </g>
     </g>
    </g>
    <g id="ytick_5">
     <g id="line2d_10">
      <path clip-path="url(#pc1fd985e0b)" d="M 73.22875 98.723413 
L 791.798016 98.723413 
" style="fill:none;stroke:#ffffff;stroke-linecap:round;"/>
     </g>
     <g id="text_11">
      <!-- 0.7 -->
      <g style="fill:#262626;" transform="translate(33.14875 106.597007)scale(0.22 -0.22)">
       <use xlink:href="#ArialMT-48"/>
       <use x="55.615234" xlink:href="#ArialMT-46"/>
       <use x="83.398438" xlink:href="#ArialMT-55"/>
      </g>
     </g>
    </g>
    <g id="text_12">
     <!-- Total Gross in $ Billions -->
     <defs>
      <path d="M 25.921875 0 
L 25.921875 63.140625 
L 2.34375 63.140625 
L 2.34375 71.578125 
L 59.078125 71.578125 
L 59.078125 63.140625 
L 35.40625 63.140625 
L 35.40625 0 
z
" id="ArialMT-84"/>
      <path d="M 3.328125 25.921875 
Q 3.328125 40.328125 11.328125 47.265625 
Q 18.015625 53.03125 27.640625 53.03125 
Q 38.328125 53.03125 45.109375 46.015625 
Q 51.90625 39.015625 51.90625 26.65625 
Q 51.90625 16.65625 48.90625 10.90625 
Q 45.90625 5.171875 40.15625 2 
Q 34.421875 -1.171875 27.640625 -1.171875 
Q 16.75 -1.171875 10.03125 5.8125 
Q 3.328125 12.796875 3.328125 25.921875 
z
M 12.359375 25.921875 
Q 12.359375 15.96875 16.703125 11.015625 
Q 21.046875 6.0625 27.640625 6.0625 
Q 34.1875 6.0625 38.53125 11.03125 
Q 42.875 16.015625 42.875 26.21875 
Q 42.875 35.84375 38.5 40.796875 
Q 34.125 45.75 27.640625 45.75 
Q 21.046875 45.75 16.703125 40.8125 
Q 12.359375 35.890625 12.359375 25.921875 
z
" id="ArialMT-111"/>
      <path d="M 6.390625 0 
L 6.390625 71.578125 
L 15.1875 71.578125 
L 15.1875 0 
z
" id="ArialMT-108"/>
      <path d="M 41.21875 28.078125 
L 41.21875 36.46875 
L 71.53125 36.53125 
L 71.53125 9.96875 
Q 64.546875 4.390625 57.125 1.578125 
Q 49.703125 -1.21875 41.890625 -1.21875 
Q 31.34375 -1.21875 22.71875 3.296875 
Q 14.109375 7.8125 9.71875 16.359375 
Q 5.328125 24.90625 5.328125 35.453125 
Q 5.328125 45.90625 9.6875 54.953125 
Q 14.0625 64.015625 22.265625 68.40625 
Q 30.46875 72.796875 41.15625 72.796875 
Q 48.921875 72.796875 55.1875 70.28125 
Q 61.46875 67.78125 65.03125 63.28125 
Q 68.609375 58.796875 70.453125 51.5625 
L 61.921875 49.21875 
Q 60.296875 54.6875 57.90625 57.8125 
Q 55.515625 60.9375 51.0625 62.8125 
Q 46.625 64.703125 41.21875 64.703125 
Q 34.71875 64.703125 29.984375 62.71875 
Q 25.25 60.75 22.34375 57.515625 
Q 19.4375 54.296875 17.828125 50.4375 
Q 15.09375 43.796875 15.09375 36.03125 
Q 15.09375 26.46875 18.390625 20.015625 
Q 21.6875 13.578125 27.984375 10.453125 
Q 34.28125 7.328125 41.359375 7.328125 
Q 47.515625 7.328125 53.375 9.6875 
Q 59.234375 12.0625 62.25 14.75 
L 62.25 28.078125 
z
" id="ArialMT-71"/>
      <path d="M 3.078125 15.484375 
L 11.765625 16.84375 
Q 12.5 11.625 15.84375 8.84375 
Q 19.1875 6.0625 25.203125 6.0625 
Q 31.25 6.0625 34.171875 8.515625 
Q 37.109375 10.984375 37.109375 14.3125 
Q 37.109375 17.28125 34.515625 19 
Q 32.71875 20.171875 25.53125 21.96875 
Q 15.875 24.421875 12.140625 26.203125 
Q 8.40625 27.984375 6.46875 31.125 
Q 4.546875 34.28125 4.546875 38.09375 
Q 4.546875 41.546875 6.125 44.5 
Q 7.71875 47.46875 10.453125 49.421875 
Q 12.5 50.921875 16.03125 51.96875 
Q 19.578125 53.03125 23.640625 53.03125 
Q 29.734375 53.03125 34.34375 51.265625 
Q 38.96875 49.515625 41.15625 46.5 
Q 43.359375 43.5 44.1875 38.484375 
L 35.59375 37.3125 
Q 35.015625 41.3125 32.203125 43.546875 
Q 29.390625 45.796875 24.265625 45.796875 
Q 18.21875 45.796875 15.625 43.796875 
Q 13.03125 41.796875 13.03125 39.109375 
Q 13.03125 37.40625 14.109375 36.03125 
Q 15.1875 34.625 17.484375 33.6875 
Q 18.796875 33.203125 25.25 31.453125 
Q 34.578125 28.953125 38.25 27.359375 
Q 41.9375 25.78125 44.03125 22.75 
Q 46.140625 19.734375 46.140625 15.234375 
Q 46.140625 10.84375 43.578125 6.953125 
Q 41.015625 3.078125 36.171875 0.953125 
Q 31.34375 -1.171875 25.25 -1.171875 
Q 15.140625 -1.171875 9.84375 3.03125 
Q 4.546875 7.234375 3.078125 15.484375 
z
" id="ArialMT-115"/>
      <path d="M 24.90625 -10.296875 
L 24.90625 -1.515625 
Q 18.3125 -0.6875 14.1875 1.4375 
Q 10.0625 3.5625 7.046875 8.296875 
Q 4.046875 13.03125 3.5625 19.875 
L 12.40625 21.53125 
Q 13.421875 14.453125 16.015625 11.140625 
Q 19.734375 6.453125 24.90625 5.90625 
L 24.90625 33.890625 
Q 19.484375 34.90625 13.8125 38.09375 
Q 9.625 40.4375 7.34375 44.578125 
Q 5.078125 48.734375 5.078125 54 
Q 5.078125 63.375 11.71875 69.1875 
Q 16.15625 73.09375 24.90625 73.96875 
L 24.90625 78.171875 
L 30.078125 78.171875 
L 30.078125 73.96875 
Q 37.75 73.25 42.234375 69.484375 
Q 48 64.703125 49.171875 56.34375 
L 40.09375 54.984375 
Q 39.3125 60.15625 36.84375 62.90625 
Q 34.375 65.671875 30.078125 66.546875 
L 30.078125 41.21875 
Q 36.71875 39.546875 38.875 38.625 
Q 42.96875 36.8125 45.546875 34.21875 
Q 48.140625 31.640625 49.53125 28.078125 
Q 50.921875 24.515625 50.921875 20.359375 
Q 50.921875 11.234375 45.109375 5.125 
Q 39.3125 -0.984375 30.078125 -1.421875 
L 30.078125 -10.296875 
z
M 24.90625 66.65625 
Q 19.78125 65.875 16.828125 62.546875 
Q 13.875 59.234375 13.875 54.6875 
Q 13.875 50.203125 16.375 47.171875 
Q 18.890625 44.140625 24.90625 42.328125 
z
M 30.078125 5.90625 
Q 35.203125 6.546875 38.546875 10.34375 
Q 41.890625 14.15625 41.890625 19.78125 
Q 41.890625 24.5625 39.515625 27.46875 
Q 37.15625 30.375 30.078125 32.671875 
z
" id="ArialMT-36"/>
      <path d="M 7.328125 0 
L 7.328125 71.578125 
L 34.1875 71.578125 
Q 42.390625 71.578125 47.34375 69.40625 
Q 52.296875 67.234375 55.09375 62.71875 
Q 57.90625 58.203125 57.90625 53.265625 
Q 57.90625 48.6875 55.421875 44.625 
Q 52.9375 40.578125 47.90625 38.09375 
Q 54.390625 36.1875 57.875 31.59375 
Q 61.375 27 61.375 20.75 
Q 61.375 15.71875 59.25 11.390625 
Q 57.125 7.078125 54 4.734375 
Q 50.875 2.390625 46.15625 1.1875 
Q 41.453125 0 34.625 0 
z
M 16.796875 41.5 
L 32.28125 41.5 
Q 38.578125 41.5 41.3125 42.328125 
Q 44.921875 43.40625 46.75 45.890625 
Q 48.578125 48.390625 48.578125 52.15625 
Q 48.578125 55.71875 46.875 58.421875 
Q 45.171875 61.140625 41.984375 62.140625 
Q 38.8125 63.140625 31.109375 63.140625 
L 16.796875 63.140625 
z
M 16.796875 8.453125 
L 34.625 8.453125 
Q 39.203125 8.453125 41.0625 8.796875 
Q 44.34375 9.375 46.53125 10.734375 
Q 48.734375 12.109375 50.140625 14.71875 
Q 51.5625 17.328125 51.5625 20.75 
Q 51.5625 24.75 49.515625 27.703125 
Q 47.46875 30.671875 43.828125 31.859375 
Q 40.1875 33.0625 33.34375 33.0625 
L 16.796875 33.0625 
z
" id="ArialMT-66"/>
     </defs>
     <g style="fill:#262626;" transform="translate(24.37875 432.082656)rotate(-90)scale(0.24 -0.24)">
      <use xlink:href="#ArialMT-84"/>
      <use x="49.958984" xlink:href="#ArialMT-111"/>
      <use x="105.574219" xlink:href="#ArialMT-116"/>
      <use x="133.357422" xlink:href="#ArialMT-97"/>
      <use x="188.972656" xlink:href="#ArialMT-108"/>
      <use x="211.189453" xlink:href="#ArialMT-32"/>
      <use x="238.972656" xlink:href="#ArialMT-71"/>
      <use x="316.755859" xlink:href="#ArialMT-114"/>
      <use x="350.056641" xlink:href="#ArialMT-111"/>
      <use x="405.671875" xlink:href="#ArialMT-115"/>
      <use x="455.671875" xlink:href="#ArialMT-115"/>
      <use x="505.671875" xlink:href="#ArialMT-32"/>
      <use x="533.455078" xlink:href="#ArialMT-105"/>
      <use x="555.671875" xlink:href="#ArialMT-110"/>
      <use x="611.287109" xlink:href="#ArialMT-32"/>
      <use x="639.070312" xlink:href="#ArialMT-36"/>
      <use x="694.685547" xlink:href="#ArialMT-32"/>
      <use x="722.46875" xlink:href="#ArialMT-66"/>
      <use x="789.167969" xlink:href="#ArialMT-105"/>
      <use x="811.384766" xlink:href="#ArialMT-108"/>
      <use x="833.601562" xlink:href="#ArialMT-108"/>
      <use x="855.818359" xlink:href="#ArialMT-105"/>
      <use x="878.035156" xlink:href="#ArialMT-111"/>
      <use x="933.650391" xlink:href="#ArialMT-110"/>
      <use x="989.265625" xlink:href="#ArialMT-115"/>
     </g>
    </g>
   </g>
   <g id="PathCollection_1">
    <defs>
     <path d="M 0 3 
C 0.795609 3 1.55874 2.683901 2.12132 2.12132 
C 2.683901 1.55874 3 0.795609 3 0 
C 3 -0.795609 2.683901 -1.55874 2.12132 -2.12132 
C 1.55874 -2.683901 0.795609 -3 0 -3 
C -0.795609 -3 -1.55874 -2.683901 -2.12132 -2.12132 
C -2.683901 -1.55874 -3 -0.795609 -3 0 
C -3 0.795609 -2.683901 1.55874 -2.12132 2.12132 
C -1.55874 2.683901 -0.795609 3 0 3 
z
" id="m36efd559c1" style="stroke:#f77189;stroke-opacity:0.8;"/>
    </defs>
    <g clip-path="url(#pc1fd985e0b)">
     <use style="fill:#f77189;fill-opacity:0.8;stroke:#f77189;stroke-opacity:0.8;" x="480.81093" xlink:href="#m36efd559c1" y="94.803679"/>
    </g>
   </g>
   <g id="PathCollection_2">
    <defs>
     <path d="M 0 3 
C 0.795609 3 1.55874 2.683901 2.12132 2.12132 
C 2.683901 1.55874 3 0.795609 3 0 
C 3 -0.795609 2.683901 -1.55874 2.12132 -2.12132 
C 1.55874 -2.683901 0.795609 -3 0 -3 
C -0.795609 -3 -1.55874 -2.683901 -2.12132 -2.12132 
C -2.683901 -1.55874 -3 -0.795609 -3 0 
C -3 0.795609 -2.683901 1.55874 -2.12132 2.12132 
C -1.55874 2.683901 -0.795609 3 0 3 
z
" id="m73d3786c1e" style="stroke:#f7754f;stroke-opacity:0.8;"/>
    </defs>
    <g clip-path="url(#pc1fd985e0b)">
     <use style="fill:#f7754f;fill-opacity:0.8;stroke:#f7754f;stroke-opacity:0.8;" x="759.135776" xlink:href="#m73d3786c1e" y="143.670786"/>
    </g>
   </g>
   <g id="PathCollection_3">
    <defs>
     <path d="M 0 3 
C 0.795609 3 1.55874 2.683901 2.12132 2.12132 
C 2.683901 1.55874 3 0.795609 3 0 
C 3 -0.795609 2.683901 -1.55874 2.12132 -2.12132 
C 1.55874 -2.683901 0.795609 -3 0 -3 
C -0.795609 -3 -1.55874 -2.683901 -2.12132 -2.12132 
C -2.683901 -1.55874 -3 -0.795609 -3 0 
C -3 0.795609 -2.683901 1.55874 -2.12132 2.12132 
C -1.55874 2.683901 -0.795609 3 0 3 
z
" id="m3c5f6afe9f" style="stroke:#dc8932;stroke-opacity:0.8;"/>
    </defs>
    <g clip-path="url(#pc1fd985e0b)">
     <use style="fill:#dc8932;fill-opacity:0.8;stroke:#dc8932;stroke-opacity:0.8;" x="398.772724" xlink:href="#m3c5f6afe9f" y="196.749883"/>
    </g>
   </g>
   <g id="PathCollection_4">
    <defs>
     <path d="M 0 3 
C 0.795609 3 1.55874 2.683901 2.12132 2.12132 
C 2.683901 1.55874 3 0.795609 3 0 
C 3 -0.795609 2.683901 -1.55874 2.12132 -2.12132 
C 1.55874 -2.683901 0.795609 -3 0 -3 
C -0.795609 -3 -1.55874 -2.683901 -2.12132 -2.12132 
C -2.683901 -1.55874 -3 -0.795609 -3 0 
C -3 0.795609 -2.683901 1.55874 -2.12132 2.12132 
C -1.55874 2.683901 -0.795609 3 0 3 
z
" id="ma0df478d30" style="stroke:#c39532;stroke-opacity:0.8;"/>
    </defs>
    <g clip-path="url(#pc1fd985e0b)">
     <use style="fill:#c39532;fill-opacity:0.8;stroke:#c39532;stroke-opacity:0.8;" x="218.858133" xlink:href="#ma0df478d30" y="250.232503"/>
    </g>
   </g>
   <g id="PathCollection_5">
    <defs>
     <path d="M 0 3 
C 0.795609 3 1.55874 2.683901 2.12132 2.12132 
C 2.683901 1.55874 3 0.795609 3 0 
C 3 -0.795609 2.683901 -1.55874 2.12132 -2.12132 
C 1.55874 -2.683901 0.795609 -3 0 -3 
C -0.795609 -3 -1.55874 -2.683901 -2.12132 -2.12132 
C -2.683901 -1.55874 -3 -0.795609 -3 0 
C -3 0.795609 -2.683901 1.55874 -2.12132 2.12132 
C -1.55874 2.683901 -0.795609 3 0 3 
z
" id="m618ecf4bfb" style="stroke:#ae9d31;stroke-opacity:0.8;"/>
    </defs>
    <g clip-path="url(#pc1fd985e0b)">
     <use style="fill:#ae9d31;fill-opacity:0.8;stroke:#ae9d31;stroke-opacity:0.8;" x="587.229253" xlink:href="#m618ecf4bfb" y="356.259711"/>
    </g>
   </g>
   <g id="PathCollection_6">
    <defs>
     <path d="M 0 3 
C 0.795609 3 1.55874 2.683901 2.12132 2.12132 
C 2.683901 1.55874 3 0.795609 3 0 
C 3 -0.795609 2.683901 -1.55874 2.12132 -2.12132 
C 1.55874 -2.683901 0.795609 -3 0 -3 
C -0.795609 -3 -1.55874 -2.683901 -2.12132 -2.12132 
C -2.683901 -1.55874 -3 -0.795609 -3 0 
C -3 0.795609 -2.683901 1.55874 -2.12132 2.12132 
C -1.55874 2.683901 -0.795609 3 0 3 
z
" id="m79b113f17e" style="stroke:#97a431;stroke-opacity:0.8;"/>
    </defs>
    <g clip-path="url(#pc1fd985e0b)">
     <use style="fill:#97a431;fill-opacity:0.8;stroke:#97a431;stroke-opacity:0.8;" x="264.805499" xlink:href="#m79b113f17e" y="361.592672"/>
    </g>
   </g>
   <g id="PathCollection_7">
    <defs>
     <path d="M 0 3 
C 0.795609 3 1.55874 2.683901 2.12132 2.12132 
C 2.683901 1.55874 3 0.795609 3 0 
C 3 -0.795609 2.683901 -1.55874 2.12132 -2.12132 
C 1.55874 -2.683901 0.795609 -3 0 -3 
C -0.795609 -3 -1.55874 -2.683901 -2.12132 -2.12132 
C -2.683901 -1.55874 -3 -0.795609 -3 0 
C -3 0.795609 -2.683901 1.55874 -2.12132 2.12132 
C -1.55874 2.683901 -0.795609 3 0 3 
z
" id="mbeda34b51d" style="stroke:#77ab31;stroke-opacity:0.8;"/>
    </defs>
    <g clip-path="url(#pc1fd985e0b)">
     <use style="fill:#77ab31;fill-opacity:0.8;stroke:#77ab31;stroke-opacity:0.8;" x="439.880805" xlink:href="#mbeda34b51d" y="386.969699"/>
    </g>
   </g>
   <g id="PathCollection_8">
    <defs>
     <path d="M 0 3 
C 0.795609 3 1.55874 2.683901 2.12132 2.12132 
C 2.683901 1.55874 3 0.795609 3 0 
C 3 -0.795609 2.683901 -1.55874 2.12132 -2.12132 
C 1.55874 -2.683901 0.795609 -3 0 -3 
C -0.795609 -3 -1.55874 -2.683901 -2.12132 -2.12132 
C -2.683901 -1.55874 -3 -0.795609 -3 0 
C -3 0.795609 -2.683901 1.55874 -2.12132 2.12132 
C -1.55874 2.683901 -0.795609 3 0 3 
z
" id="mdef980aba9" style="stroke:#31b33e;stroke-opacity:0.8;"/>
    </defs>
    <g clip-path="url(#pc1fd985e0b)">
     <use style="fill:#31b33e;fill-opacity:0.8;stroke:#31b33e;stroke-opacity:0.8;" x="329.369469" xlink:href="#mdef980aba9" y="397.660007"/>
    </g>
   </g>
   <g id="PathCollection_9">
    <defs>
     <path d="M 0 3 
C 0.795609 3 1.55874 2.683901 2.12132 2.12132 
C 2.683901 1.55874 3 0.795609 3 0 
C 3 -0.795609 2.683901 -1.55874 2.12132 -2.12132 
C 1.55874 -2.683901 0.795609 -3 0 -3 
C -0.795609 -3 -1.55874 -2.683901 -2.12132 -2.12132 
C -2.683901 -1.55874 -3 -0.795609 -3 0 
C -3 0.795609 -2.683901 1.55874 -2.12132 2.12132 
C -1.55874 2.683901 -0.795609 3 0 3 
z
" id="me702fd8524" style="stroke:#33b07a;stroke-opacity:0.8;"/>
    </defs>
    <g clip-path="url(#pc1fd985e0b)">
     <use style="fill:#33b07a;fill-opacity:0.8;stroke:#33b07a;stroke-opacity:0.8;" x="221.927892" xlink:href="#me702fd8524" y="404.863613"/>
    </g>
   </g>
   <g id="PathCollection_10">
    <defs>
     <path d="M 0 3 
C 0.795609 3 1.55874 2.683901 2.12132 2.12132 
C 2.683901 1.55874 3 0.795609 3 0 
C 3 -0.795609 2.683901 -1.55874 2.12132 -2.12132 
C 1.55874 -2.683901 0.795609 -3 0 -3 
C -0.795609 -3 -1.55874 -2.683901 -2.12132 -2.12132 
C -2.683901 -1.55874 -3 -0.795609 -3 0 
C -3 0.795609 -2.683901 1.55874 -2.12132 2.12132 
C -1.55874 2.683901 -0.795609 3 0 3 
z
" id="m8b2ec8d80c" style="stroke:#35ae93;stroke-opacity:0.8;"/>
    </defs>
    <g clip-path="url(#pc1fd985e0b)">
     <use style="fill:#35ae93;fill-opacity:0.8;stroke:#35ae93;stroke-opacity:0.8;" x="660.903477" xlink:href="#m8b2ec8d80c" y="418.943074"/>
    </g>
   </g>
   <g id="PathCollection_11">
    <defs>
     <path d="M 0 3 
C 0.795609 3 1.55874 2.683901 2.12132 2.12132 
C 2.683901 1.55874 3 0.795609 3 0 
C 3 -0.795609 2.683901 -1.55874 2.12132 -2.12132 
C 1.55874 -2.683901 0.795609 -3 0 -3 
C -0.795609 -3 -1.55874 -2.683901 -2.12132 -2.12132 
C -2.683901 -1.55874 -3 -0.795609 -3 0 
C -3 0.795609 -2.683901 1.55874 -2.12132 2.12132 
C -1.55874 2.683901 -0.795609 3 0 3 
z
" id="m685c687e4f" style="stroke:#36ada4;stroke-opacity:0.8;"/>
    </defs>
    <g clip-path="url(#pc1fd985e0b)">
     <use style="fill:#36ada4;fill-opacity:0.8;stroke:#36ada4;stroke-opacity:0.8;" x="302.028146" xlink:href="#m685c687e4f" y="421.277647"/>
    </g>
   </g>
   <g id="PathCollection_12">
    <defs>
     <path d="M 0 3 
C 0.795609 3 1.55874 2.683901 2.12132 2.12132 
C 2.683901 1.55874 3 0.795609 3 0 
C 3 -0.795609 2.683901 -1.55874 2.12132 -2.12132 
C 1.55874 -2.683901 0.795609 -3 0 -3 
C -0.795609 -3 -1.55874 -2.683901 -2.12132 -2.12132 
C -2.683901 -1.55874 -3 -0.795609 -3 0 
C -3 0.795609 -2.683901 1.55874 -2.12132 2.12132 
C -1.55874 2.683901 -0.795609 3 0 3 
z
" id="m3af385a4d9" style="stroke:#37abb4;stroke-opacity:0.8;"/>
    </defs>
    <g clip-path="url(#pc1fd985e0b)">
     <use style="fill:#37abb4;fill-opacity:0.8;stroke:#37abb4;stroke-opacity:0.8;" x="400.587886" xlink:href="#m3af385a4d9" y="425.201692"/>
    </g>
   </g>
   <g id="PathCollection_13">
    <defs>
     <path d="M 0 3 
C 0.795609 3 1.55874 2.683901 2.12132 2.12132 
C 2.683901 1.55874 3 0.795609 3 0 
C 3 -0.795609 2.683901 -1.55874 2.12132 -2.12132 
C 1.55874 -2.683901 0.795609 -3 0 -3 
C -0.795609 -3 -1.55874 -2.683901 -2.12132 -2.12132 
C -2.683901 -1.55874 -3 -0.795609 -3 0 
C -3 0.795609 -2.683901 1.55874 -2.12132 2.12132 
C -1.55874 2.683901 -0.795609 3 0 3 
z
" id="m93afdea71b" style="stroke:#38a9c5;stroke-opacity:0.8;"/>
    </defs>
    <g clip-path="url(#pc1fd985e0b)">
     <use style="fill:#38a9c5;fill-opacity:0.8;stroke:#38a9c5;stroke-opacity:0.8;" x="390.764656" xlink:href="#m93afdea71b" y="440.517813"/>
    </g>
   </g>
   <g id="PathCollection_14">
    <defs>
     <path d="M 0 3 
C 0.795609 3 1.55874 2.683901 2.12132 2.12132 
C 2.683901 1.55874 3 0.795609 3 0 
C 3 -0.795609 2.683901 -1.55874 2.12132 -2.12132 
C 1.55874 -2.683901 0.795609 -3 0 -3 
C -0.795609 -3 -1.55874 -2.683901 -2.12132 -2.12132 
C -2.683901 -1.55874 -3 -0.795609 -3 0 
C -3 0.795609 -2.683901 1.55874 -2.12132 2.12132 
C -1.55874 2.683901 -0.795609 3 0 3 
z
" id="md6714869ef" style="stroke:#3aa5df;stroke-opacity:0.8;"/>
    </defs>
    <g clip-path="url(#pc1fd985e0b)">
     <use style="fill:#3aa5df;fill-opacity:0.8;stroke:#3aa5df;stroke-opacity:0.8;" x="353.927544" xlink:href="#md6714869ef" y="459.079863"/>
    </g>
   </g>
   <g id="PathCollection_15">
    <defs>
     <path d="M 0 3 
C 0.795609 3 1.55874 2.683901 2.12132 2.12132 
C 2.683901 1.55874 3 0.795609 3 0 
C 3 -0.795609 2.683901 -1.55874 2.12132 -2.12132 
C 1.55874 -2.683901 0.795609 -3 0 -3 
C -0.795609 -3 -1.55874 -2.683901 -2.12132 -2.12132 
C -2.683901 -1.55874 -3 -0.795609 -3 0 
C -3 0.795609 -2.683901 1.55874 -2.12132 2.12132 
C -1.55874 2.683901 -0.795609 3 0 3 
z
" id="m61b4c34d57" style="stroke:#6e9bf4;stroke-opacity:0.8;"/>
    </defs>
    <g clip-path="url(#pc1fd985e0b)">
     <use style="fill:#6e9bf4;fill-opacity:0.8;stroke:#6e9bf4;stroke-opacity:0.8;" x="278.27283" xlink:href="#m61b4c34d57" y="475.967996"/>
    </g>
   </g>
   <g id="PathCollection_16">
    <defs>
     <path d="M 0 3 
C 0.795609 3 1.55874 2.683901 2.12132 2.12132 
C 2.683901 1.55874 3 0.795609 3 0 
C 3 -0.795609 2.683901 -1.55874 2.12132 -2.12132 
C 1.55874 -2.683901 0.795609 -3 0 -3 
C -0.795609 -3 -1.55874 -2.683901 -2.12132 -2.12132 
C -2.683901 -1.55874 -3 -0.795609 -3 0 
C -3 0.795609 -2.683901 1.55874 -2.12132 2.12132 
C -1.55874 2.683901 -0.795609 3 0 3 
z
" id="m6adc93fc46" style="stroke:#a48cf4;stroke-opacity:0.8;"/>
    </defs>
    <g clip-path="url(#pc1fd985e0b)">
     <use style="fill:#a48cf4;fill-opacity:0.8;stroke:#a48cf4;stroke-opacity:0.8;" x="299.54895" xlink:href="#m6adc93fc46" y="484.718469"/>
    </g>
   </g>
   <g id="PathCollection_17">
    <defs>
     <path d="M 0 3 
C 0.795609 3 1.55874 2.683901 2.12132 2.12132 
C 2.683901 1.55874 3 0.795609 3 0 
C 3 -0.795609 2.683901 -1.55874 2.12132 -2.12132 
C 1.55874 -2.683901 0.795609 -3 0 -3 
C -0.795609 -3 -1.55874 -2.683901 -2.12132 -2.12132 
C -2.683901 -1.55874 -3 -0.795609 -3 0 
C -3 0.795609 -2.683901 1.55874 -2.12132 2.12132 
C -1.55874 2.683901 -0.795609 3 0 3 
z
" id="m41dfd86d97" style="stroke:#cc7af4;stroke-opacity:0.8;"/>
    </defs>
    <g clip-path="url(#pc1fd985e0b)">
     <use style="fill:#cc7af4;fill-opacity:0.8;stroke:#cc7af4;stroke-opacity:0.8;" x="105.890989" xlink:href="#m41dfd86d97" y="485.727581"/>
    </g>
   </g>
   <g id="PathCollection_18">
    <defs>
     <path d="M 0 3 
C 0.795609 3 1.55874 2.683901 2.12132 2.12132 
C 2.683901 1.55874 3 0.795609 3 0 
C 3 -0.795609 2.683901 -1.55874 2.12132 -2.12132 
C 1.55874 -2.683901 0.795609 -3 0 -3 
C -0.795609 -3 -1.55874 -2.683901 -2.12132 -2.12132 
C -2.683901 -1.55874 -3 -0.795609 -3 0 
C -3 0.795609 -2.683901 1.55874 -2.12132 2.12132 
C -1.55874 2.683901 -0.795609 3 0 3 
z
" id="m1c8867e76f" style="stroke:#f45cf2;stroke-opacity:0.8;"/>
    </defs>
    <g clip-path="url(#pc1fd985e0b)">
     <use style="fill:#f45cf2;fill-opacity:0.8;stroke:#f45cf2;stroke-opacity:0.8;" x="526.950343" xlink:href="#m1c8867e76f" y="493.899813"/>
    </g>
   </g>
   <g id="PathCollection_19">
    <defs>
     <path d="M 0 3 
C 0.795609 3 1.55874 2.683901 2.12132 2.12132 
C 2.683901 1.55874 3 0.795609 3 0 
C 3 -0.795609 2.683901 -1.55874 2.12132 -2.12132 
C 1.55874 -2.683901 0.795609 -3 0 -3 
C -0.795609 -3 -1.55874 -2.683901 -2.12132 -2.12132 
C -2.683901 -1.55874 -3 -0.795609 -3 0 
C -3 0.795609 -2.683901 1.55874 -2.12132 2.12132 
C -1.55874 2.683901 -0.795609 3 0 3 
z
" id="m474b1c8621" style="stroke:#f565cc;stroke-opacity:0.8;"/>
    </defs>
    <g clip-path="url(#pc1fd985e0b)">
     <use style="fill:#f565cc;fill-opacity:0.8;stroke:#f565cc;stroke-opacity:0.8;" x="366.206581" xlink:href="#m474b1c8621" y="498.342"/>
    </g>
   </g>
   <g id="PathCollection_20">
    <defs>
     <path d="M 0 3 
C 0.795609 3 1.55874 2.683901 2.12132 2.12132 
C 2.683901 1.55874 3 0.795609 3 0 
C 3 -0.795609 2.683901 -1.55874 2.12132 -2.12132 
C 1.55874 -2.683901 0.795609 -3 0 -3 
C -0.795609 -3 -1.55874 -2.683901 -2.12132 -2.12132 
C -2.683901 -1.55874 -3 -0.795609 -3 0 
C -3 0.795609 -2.683901 1.55874 -2.12132 2.12132 
C -1.55874 2.683901 -0.795609 3 0 3 
z
" id="m8f0f0d811c" style="stroke:#f66bad;stroke-opacity:0.8;"/>
    </defs>
    <g clip-path="url(#pc1fd985e0b)">
     <use style="fill:#f66bad;fill-opacity:0.8;stroke:#f66bad;stroke-opacity:0.8;" x="341.648506" xlink:href="#m8f0f0d811c" y="519.949134"/>
    </g>
   </g>
   <g id="patch_3">
    <path d="M 73.22875 541.206406 
L 73.22875 73.546406 
" style="fill:none;stroke:#ffffff;stroke-linecap:square;stroke-linejoin:miter;stroke-width:1.25;"/>
   </g>
   <g id="patch_4">
    <path d="M 73.22875 541.206406 
L 791.798016 541.206406 
" style="fill:none;stroke:#ffffff;stroke-linecap:square;stroke-linejoin:miter;stroke-width:1.25;"/>
   </g>
   <g id="text_13">
    <!-- Average Gross Scatter Plot by Genre, Top 20 -->
    <defs>
     <path d="M 4.5 23 
L 13.421875 23.78125 
Q 14.0625 18.40625 16.375 14.96875 
Q 18.703125 11.53125 23.578125 9.40625 
Q 28.46875 7.28125 34.578125 7.28125 
Q 39.984375 7.28125 44.140625 8.890625 
Q 48.296875 10.5 50.3125 13.296875 
Q 52.34375 16.109375 52.34375 19.4375 
Q 52.34375 22.796875 50.390625 25.3125 
Q 48.4375 27.828125 43.953125 29.546875 
Q 41.0625 30.671875 31.203125 33.03125 
Q 21.34375 35.40625 17.390625 37.5 
Q 12.25 40.1875 9.734375 44.15625 
Q 7.234375 48.140625 7.234375 53.078125 
Q 7.234375 58.5 10.296875 63.203125 
Q 13.375 67.921875 19.28125 70.359375 
Q 25.203125 72.796875 32.421875 72.796875 
Q 40.375 72.796875 46.453125 70.234375 
Q 52.546875 67.671875 55.8125 62.6875 
Q 59.078125 57.71875 59.328125 51.421875 
L 50.25 50.734375 
Q 49.515625 57.515625 45.28125 60.984375 
Q 41.0625 64.453125 32.8125 64.453125 
Q 24.21875 64.453125 20.28125 61.296875 
Q 16.359375 58.15625 16.359375 53.71875 
Q 16.359375 49.859375 19.140625 47.359375 
Q 21.875 44.875 33.421875 42.265625 
Q 44.96875 39.65625 49.265625 37.703125 
Q 55.515625 34.8125 58.484375 30.390625 
Q 61.46875 25.984375 61.46875 20.21875 
Q 61.46875 14.5 58.203125 9.4375 
Q 54.9375 4.390625 48.796875 1.578125 
Q 42.671875 -1.21875 35.015625 -1.21875 
Q 25.296875 -1.21875 18.71875 1.609375 
Q 12.15625 4.4375 8.421875 10.125 
Q 4.6875 15.828125 4.5 23 
z
" id="ArialMT-83"/>
     <path d="M 40.4375 19 
L 49.078125 17.875 
Q 47.65625 8.9375 41.8125 3.875 
Q 35.984375 -1.171875 27.484375 -1.171875 
Q 16.84375 -1.171875 10.375 5.78125 
Q 3.90625 12.75 3.90625 25.734375 
Q 3.90625 34.125 6.6875 40.421875 
Q 9.46875 46.734375 15.15625 49.875 
Q 20.84375 53.03125 27.546875 53.03125 
Q 35.984375 53.03125 41.359375 48.75 
Q 46.734375 44.484375 48.25 36.625 
L 39.703125 35.296875 
Q 38.484375 40.53125 35.375 43.15625 
Q 32.28125 45.796875 27.875 45.796875 
Q 21.234375 45.796875 17.078125 41.03125 
Q 12.9375 36.28125 12.9375 25.984375 
Q 12.9375 15.53125 16.9375 10.796875 
Q 20.953125 6.0625 27.390625 6.0625 
Q 32.5625 6.0625 36.03125 9.234375 
Q 39.5 12.40625 40.4375 19 
z
" id="ArialMT-99"/>
     <path d="M 7.71875 0 
L 7.71875 71.578125 
L 34.71875 71.578125 
Q 41.84375 71.578125 45.609375 70.90625 
Q 50.875 70.015625 54.4375 67.546875 
Q 58.015625 65.09375 60.1875 60.640625 
Q 62.359375 56.203125 62.359375 50.875 
Q 62.359375 41.75 56.546875 35.421875 
Q 50.734375 29.109375 35.546875 29.109375 
L 17.1875 29.109375 
L 17.1875 0 
z
M 17.1875 37.546875 
L 35.6875 37.546875 
Q 44.875 37.546875 48.734375 40.96875 
Q 52.59375 44.390625 52.59375 50.59375 
Q 52.59375 55.078125 50.3125 58.265625 
Q 48.046875 61.46875 44.34375 62.5 
Q 41.9375 63.140625 35.5 63.140625 
L 17.1875 63.140625 
z
" id="ArialMT-80"/>
     <path d="M 14.703125 0 
L 6.546875 0 
L 6.546875 71.578125 
L 15.328125 71.578125 
L 15.328125 46.046875 
Q 20.90625 53.03125 29.546875 53.03125 
Q 34.328125 53.03125 38.59375 51.09375 
Q 42.875 49.171875 45.625 45.671875 
Q 48.390625 42.1875 49.953125 37.25 
Q 51.515625 32.328125 51.515625 26.703125 
Q 51.515625 13.375 44.921875 6.09375 
Q 38.328125 -1.171875 29.109375 -1.171875 
Q 19.921875 -1.171875 14.703125 6.5 
z
M 14.59375 26.3125 
Q 14.59375 17 17.140625 12.84375 
Q 21.296875 6.0625 28.375 6.0625 
Q 34.125 6.0625 38.328125 11.0625 
Q 42.53125 16.0625 42.53125 25.984375 
Q 42.53125 36.140625 38.5 40.96875 
Q 34.46875 45.796875 28.765625 45.796875 
Q 23 45.796875 18.796875 40.796875 
Q 14.59375 35.796875 14.59375 26.3125 
z
" id="ArialMT-98"/>
     <path d="M 6.203125 -19.96875 
L 5.21875 -11.71875 
Q 8.109375 -12.5 10.25 -12.5 
Q 13.1875 -12.5 14.9375 -11.515625 
Q 16.703125 -10.546875 17.828125 -8.796875 
Q 18.65625 -7.46875 20.515625 -2.25 
Q 20.75 -1.515625 21.296875 -0.09375 
L 1.609375 51.859375 
L 11.078125 51.859375 
L 21.875 21.828125 
Q 23.96875 16.109375 25.640625 9.8125 
Q 27.15625 15.875 29.25 21.625 
L 40.328125 51.859375 
L 49.125 51.859375 
L 29.390625 -0.875 
Q 26.21875 -9.421875 24.46875 -12.640625 
Q 22.125 -17 19.09375 -19.015625 
Q 16.0625 -21.046875 11.859375 -21.046875 
Q 9.328125 -21.046875 6.203125 -19.96875 
z
" id="ArialMT-121"/>
     <path d="M 8.890625 0 
L 8.890625 10.015625 
L 18.890625 10.015625 
L 18.890625 0 
Q 18.890625 -5.515625 16.9375 -8.90625 
Q 14.984375 -12.3125 10.75 -14.15625 
L 8.296875 -10.40625 
Q 11.078125 -9.1875 12.390625 -6.8125 
Q 13.71875 -4.4375 13.875 0 
z
" id="ArialMT-44"/>
     <path d="M 6.59375 -19.875 
L 6.59375 51.859375 
L 14.59375 51.859375 
L 14.59375 45.125 
Q 17.4375 49.078125 21 51.046875 
Q 24.5625 53.03125 29.640625 53.03125 
Q 36.28125 53.03125 41.359375 49.609375 
Q 46.4375 46.1875 49.015625 39.953125 
Q 51.609375 33.734375 51.609375 26.3125 
Q 51.609375 18.359375 48.75 11.984375 
Q 45.90625 5.609375 40.453125 2.21875 
Q 35.015625 -1.171875 29 -1.171875 
Q 24.609375 -1.171875 21.109375 0.6875 
Q 17.625 2.546875 15.375 5.375 
L 15.375 -19.875 
z
M 14.546875 25.640625 
Q 14.546875 15.625 18.59375 10.84375 
Q 22.65625 6.0625 28.421875 6.0625 
Q 34.28125 6.0625 38.453125 11.015625 
Q 42.625 15.96875 42.625 26.375 
Q 42.625 36.28125 38.546875 41.203125 
Q 34.46875 46.140625 28.8125 46.140625 
Q 23.1875 46.140625 18.859375 40.890625 
Q 14.546875 35.640625 14.546875 25.640625 
z
" id="ArialMT-112"/>
     <path d="M 50.34375 8.453125 
L 50.34375 0 
L 3.03125 0 
Q 2.9375 3.171875 4.046875 6.109375 
Q 5.859375 10.9375 9.828125 15.625 
Q 13.8125 20.3125 21.34375 26.46875 
Q 33.015625 36.03125 37.109375 41.625 
Q 41.21875 47.21875 41.21875 52.203125 
Q 41.21875 57.421875 37.46875 61 
Q 33.734375 64.59375 27.734375 64.59375 
Q 21.390625 64.59375 17.578125 60.78125 
Q 13.765625 56.984375 13.71875 50.25 
L 4.6875 51.171875 
Q 5.609375 61.28125 11.65625 66.578125 
Q 17.71875 71.875 27.9375 71.875 
Q 38.234375 71.875 44.234375 66.15625 
Q 50.25 60.453125 50.25 52 
Q 50.25 47.703125 48.484375 43.546875 
Q 46.734375 39.40625 42.65625 34.8125 
Q 38.578125 30.21875 29.109375 22.21875 
Q 21.1875 15.578125 18.9375 13.203125 
Q 16.703125 10.84375 15.234375 8.453125 
z
" id="ArialMT-50"/>
    </defs>
    <g style="fill:#262626;" transform="translate(192.168383 67.546406)scale(0.24 -0.24)">
     <use xlink:href="#ArialMT-65"/>
     <use x="64.949219" xlink:href="#ArialMT-118"/>
     <use x="114.949219" xlink:href="#ArialMT-101"/>
     <use x="170.564453" xlink:href="#ArialMT-114"/>
     <use x="203.865234" xlink:href="#ArialMT-97"/>
     <use x="259.480469" xlink:href="#ArialMT-103"/>
     <use x="315.095703" xlink:href="#ArialMT-101"/>
     <use x="370.710938" xlink:href="#ArialMT-32"/>
     <use x="398.494141" xlink:href="#ArialMT-71"/>
     <use x="476.277344" xlink:href="#ArialMT-114"/>
     <use x="509.578125" xlink:href="#ArialMT-111"/>
     <use x="565.193359" xlink:href="#ArialMT-115"/>
     <use x="615.193359" xlink:href="#ArialMT-115"/>
     <use x="665.193359" xlink:href="#ArialMT-32"/>
     <use x="692.976562" xlink:href="#ArialMT-83"/>
     <use x="759.675781" xlink:href="#ArialMT-99"/>
     <use x="809.675781" xlink:href="#ArialMT-97"/>
     <use x="865.291016" xlink:href="#ArialMT-116"/>
     <use x="893.074219" xlink:href="#ArialMT-116"/>
     <use x="920.857422" xlink:href="#ArialMT-101"/>
     <use x="976.472656" xlink:href="#ArialMT-114"/>
     <use x="1009.773438" xlink:href="#ArialMT-32"/>
     <use x="1037.556641" xlink:href="#ArialMT-80"/>
     <use x="1104.255859" xlink:href="#ArialMT-108"/>
     <use x="1126.472656" xlink:href="#ArialMT-111"/>
     <use x="1182.087891" xlink:href="#ArialMT-116"/>
     <use x="1209.871094" xlink:href="#ArialMT-32"/>
     <use x="1237.654297" xlink:href="#ArialMT-98"/>
     <use x="1293.269531" xlink:href="#ArialMT-121"/>
     <use x="1343.269531" xlink:href="#ArialMT-32"/>
     <use x="1371.052734" xlink:href="#ArialMT-71"/>
     <use x="1448.835938" xlink:href="#ArialMT-101"/>
     <use x="1504.451172" xlink:href="#ArialMT-110"/>
     <use x="1560.066406" xlink:href="#ArialMT-114"/>
     <use x="1593.367188" xlink:href="#ArialMT-101"/>
     <use x="1648.982422" xlink:href="#ArialMT-44"/>
     <use x="1676.765625" xlink:href="#ArialMT-32"/>
     <use x="1702.798828" xlink:href="#ArialMT-84"/>
     <use x="1752.757812" xlink:href="#ArialMT-111"/>
     <use x="1808.373047" xlink:href="#ArialMT-112"/>
     <use x="1863.988281" xlink:href="#ArialMT-32"/>
     <use x="1891.771484" xlink:href="#ArialMT-50"/>
     <use x="1947.386719" xlink:href="#ArialMT-48"/>
    </g>
   </g>
  </g>
  <g id="legend_1">
   <g id="text_14">
    <!-- genres -->
    <g style="fill:#262626;" transform="translate(956.987984 24.589375)scale(0.12 -0.12)">
     <use xlink:href="#ArialMT-103"/>
     <use x="55.615234" xlink:href="#ArialMT-101"/>
     <use x="111.230469" xlink:href="#ArialMT-110"/>
     <use x="166.845703" xlink:href="#ArialMT-114"/>
     <use x="200.146484" xlink:href="#ArialMT-101"/>
     <use x="255.761719" xlink:href="#ArialMT-115"/>
    </g>
   </g>
   <g id="PathCollection_21">
    <g>
     <use style="fill:#f77189;fill-opacity:0.8;stroke:#f77189;stroke-opacity:0.8;" x="820.409078" xlink:href="#m36efd559c1" y="48.087188"/>
    </g>
   </g>
   <g id="text_15">
    <!-- Adventure,Fantasy -->
    <defs>
     <path d="M 40.234375 0 
L 40.234375 6.546875 
Q 35.296875 -1.171875 25.734375 -1.171875 
Q 19.53125 -1.171875 14.328125 2.25 
Q 9.125 5.671875 6.265625 11.796875 
Q 3.421875 17.921875 3.421875 25.875 
Q 3.421875 33.640625 6 39.96875 
Q 8.59375 46.296875 13.765625 49.65625 
Q 18.953125 53.03125 25.34375 53.03125 
Q 30.03125 53.03125 33.6875 51.046875 
Q 37.359375 49.078125 39.65625 45.90625 
L 39.65625 71.578125 
L 48.390625 71.578125 
L 48.390625 0 
z
M 12.453125 25.875 
Q 12.453125 15.921875 16.640625 10.984375 
Q 20.84375 6.0625 26.5625 6.0625 
Q 32.328125 6.0625 36.34375 10.765625 
Q 40.375 15.484375 40.375 25.140625 
Q 40.375 35.796875 36.265625 40.765625 
Q 32.171875 45.75 26.171875 45.75 
Q 20.3125 45.75 16.375 40.96875 
Q 12.453125 36.1875 12.453125 25.875 
z
" id="ArialMT-100"/>
     <path d="M 40.578125 0 
L 40.578125 7.625 
Q 34.515625 -1.171875 24.125 -1.171875 
Q 19.53125 -1.171875 15.546875 0.578125 
Q 11.578125 2.34375 9.640625 5 
Q 7.71875 7.671875 6.9375 11.53125 
Q 6.390625 14.109375 6.390625 19.734375 
L 6.390625 51.859375 
L 15.1875 51.859375 
L 15.1875 23.09375 
Q 15.1875 16.21875 15.71875 13.8125 
Q 16.546875 10.359375 19.234375 8.375 
Q 21.921875 6.390625 25.875 6.390625 
Q 29.828125 6.390625 33.296875 8.421875 
Q 36.765625 10.453125 38.203125 13.9375 
Q 39.65625 17.4375 39.65625 24.078125 
L 39.65625 51.859375 
L 48.4375 51.859375 
L 48.4375 0 
z
" id="ArialMT-117"/>
     <path d="M 8.203125 0 
L 8.203125 71.578125 
L 56.5 71.578125 
L 56.5 63.140625 
L 17.671875 63.140625 
L 17.671875 40.96875 
L 51.265625 40.96875 
L 51.265625 32.515625 
L 17.671875 32.515625 
L 17.671875 0 
z
" id="ArialMT-70"/>
    </defs>
    <g style="fill:#262626;" transform="translate(860.009078 53.862188)scale(0.22 -0.22)">
     <use xlink:href="#ArialMT-65"/>
     <use x="66.699219" xlink:href="#ArialMT-100"/>
     <use x="122.314453" xlink:href="#ArialMT-118"/>
     <use x="172.314453" xlink:href="#ArialMT-101"/>
     <use x="227.929688" xlink:href="#ArialMT-110"/>
     <use x="283.544922" xlink:href="#ArialMT-116"/>
     <use x="311.328125" xlink:href="#ArialMT-117"/>
     <use x="366.943359" xlink:href="#ArialMT-114"/>
     <use x="400.244141" xlink:href="#ArialMT-101"/>
     <use x="455.859375" xlink:href="#ArialMT-44"/>
     <use x="483.642578" xlink:href="#ArialMT-70"/>
     <use x="544.726562" xlink:href="#ArialMT-97"/>
     <use x="600.341797" xlink:href="#ArialMT-110"/>
     <use x="655.957031" xlink:href="#ArialMT-116"/>
     <use x="683.740234" xlink:href="#ArialMT-97"/>
     <use x="739.355469" xlink:href="#ArialMT-115"/>
     <use x="789.355469" xlink:href="#ArialMT-121"/>
    </g>
   </g>
   <g id="PathCollection_22">
    <g>
     <use style="fill:#f7754f;fill-opacity:0.8;stroke:#f7754f;stroke-opacity:0.8;" x="820.409078" xlink:href="#m73d3786c1e" y="79.464688"/>
    </g>
   </g>
   <g id="text_16">
    <!-- Adventure,Drama,Sci-Fi -->
    <defs>
     <path d="M 7.71875 0 
L 7.71875 71.578125 
L 32.375 71.578125 
Q 40.71875 71.578125 45.125 70.5625 
Q 51.265625 69.140625 55.609375 65.4375 
Q 61.28125 60.640625 64.078125 53.1875 
Q 66.890625 45.75 66.890625 36.1875 
Q 66.890625 28.03125 64.984375 21.734375 
Q 63.09375 15.4375 60.109375 11.296875 
Q 57.125 7.171875 53.578125 4.796875 
Q 50.046875 2.4375 45.046875 1.21875 
Q 40.046875 0 33.546875 0 
z
M 17.1875 8.453125 
L 32.46875 8.453125 
Q 39.546875 8.453125 43.578125 9.765625 
Q 47.609375 11.078125 50 13.484375 
Q 53.375 16.84375 55.25 22.53125 
Q 57.125 28.21875 57.125 36.328125 
Q 57.125 47.5625 53.4375 53.59375 
Q 49.75 59.625 44.484375 61.671875 
Q 40.671875 63.140625 32.234375 63.140625 
L 17.1875 63.140625 
z
" id="ArialMT-68"/>
     <path d="M 6.59375 0 
L 6.59375 51.859375 
L 14.453125 51.859375 
L 14.453125 44.578125 
Q 16.890625 48.390625 20.9375 50.703125 
Q 25 53.03125 30.171875 53.03125 
Q 35.9375 53.03125 39.625 50.640625 
Q 43.3125 48.25 44.828125 43.953125 
Q 50.984375 53.03125 60.84375 53.03125 
Q 68.5625 53.03125 72.703125 48.75 
Q 76.859375 44.484375 76.859375 35.59375 
L 76.859375 0 
L 68.109375 0 
L 68.109375 32.671875 
Q 68.109375 37.9375 67.25 40.25 
Q 66.40625 42.578125 64.15625 43.984375 
Q 61.921875 45.40625 58.890625 45.40625 
Q 53.421875 45.40625 49.796875 41.765625 
Q 46.1875 38.140625 46.1875 30.125 
L 46.1875 0 
L 37.40625 0 
L 37.40625 33.6875 
Q 37.40625 39.546875 35.25 42.46875 
Q 33.109375 45.40625 28.21875 45.40625 
Q 24.515625 45.40625 21.359375 43.453125 
Q 18.21875 41.5 16.796875 37.734375 
Q 15.375 33.984375 15.375 26.90625 
L 15.375 0 
z
" id="ArialMT-109"/>
     <path d="M 3.171875 21.484375 
L 3.171875 30.328125 
L 30.171875 30.328125 
L 30.171875 21.484375 
z
" id="ArialMT-45"/>
    </defs>
    <g style="fill:#262626;" transform="translate(860.009078 85.239688)scale(0.22 -0.22)">
     <use xlink:href="#ArialMT-65"/>
     <use x="66.699219" xlink:href="#ArialMT-100"/>
     <use x="122.314453" xlink:href="#ArialMT-118"/>
     <use x="172.314453" xlink:href="#ArialMT-101"/>
     <use x="227.929688" xlink:href="#ArialMT-110"/>
     <use x="283.544922" xlink:href="#ArialMT-116"/>
     <use x="311.328125" xlink:href="#ArialMT-117"/>
     <use x="366.943359" xlink:href="#ArialMT-114"/>
     <use x="400.244141" xlink:href="#ArialMT-101"/>
     <use x="455.859375" xlink:href="#ArialMT-44"/>
     <use x="483.642578" xlink:href="#ArialMT-68"/>
     <use x="555.859375" xlink:href="#ArialMT-114"/>
     <use x="589.160156" xlink:href="#ArialMT-97"/>
     <use x="644.775391" xlink:href="#ArialMT-109"/>
     <use x="728.076172" xlink:href="#ArialMT-97"/>
     <use x="783.691406" xlink:href="#ArialMT-44"/>
     <use x="811.474609" xlink:href="#ArialMT-83"/>
     <use x="878.173828" xlink:href="#ArialMT-99"/>
     <use x="928.173828" xlink:href="#ArialMT-105"/>
     <use x="950.390625" xlink:href="#ArialMT-45"/>
     <use x="983.691406" xlink:href="#ArialMT-70"/>
     <use x="1044.775391" xlink:href="#ArialMT-105"/>
    </g>
   </g>
   <g id="PathCollection_23">
    <g>
     <use style="fill:#dc8932;fill-opacity:0.8;stroke:#dc8932;stroke-opacity:0.8;" x="820.409078" xlink:href="#m3c5f6afe9f" y="110.584375"/>
    </g>
   </g>
   <g id="text_17">
    <!-- Action,Adventure,Sci-Fi -->
    <g style="fill:#262626;" transform="translate(860.009078 116.359375)scale(0.22 -0.22)">
     <use xlink:href="#ArialMT-65"/>
     <use x="66.699219" xlink:href="#ArialMT-99"/>
     <use x="116.699219" xlink:href="#ArialMT-116"/>
     <use x="144.482422" xlink:href="#ArialMT-105"/>
     <use x="166.699219" xlink:href="#ArialMT-111"/>
     <use x="222.314453" xlink:href="#ArialMT-110"/>
     <use x="277.929688" xlink:href="#ArialMT-44"/>
     <use x="305.712891" xlink:href="#ArialMT-65"/>
     <use x="372.412109" xlink:href="#ArialMT-100"/>
     <use x="428.027344" xlink:href="#ArialMT-118"/>
     <use x="478.027344" xlink:href="#ArialMT-101"/>
     <use x="533.642578" xlink:href="#ArialMT-110"/>
     <use x="589.257812" xlink:href="#ArialMT-116"/>
     <use x="617.041016" xlink:href="#ArialMT-117"/>
     <use x="672.65625" xlink:href="#ArialMT-114"/>
     <use x="705.957031" xlink:href="#ArialMT-101"/>
     <use x="761.572266" xlink:href="#ArialMT-44"/>
     <use x="789.355469" xlink:href="#ArialMT-83"/>
     <use x="856.054688" xlink:href="#ArialMT-99"/>
     <use x="906.054688" xlink:href="#ArialMT-105"/>
     <use x="928.271484" xlink:href="#ArialMT-45"/>
     <use x="961.572266" xlink:href="#ArialMT-70"/>
     <use x="1022.65625" xlink:href="#ArialMT-105"/>
    </g>
   </g>
   <g id="PathCollection_24">
    <g>
     <use style="fill:#c39532;fill-opacity:0.8;stroke:#c39532;stroke-opacity:0.8;" x="820.409078" xlink:href="#ma0df478d30" y="141.972187"/>
    </g>
   </g>
   <g id="text_18">
    <!-- Action,Comedy,Mystery -->
    <defs>
     <path d="M 58.796875 25.09375 
L 68.265625 22.703125 
Q 65.28125 11.03125 57.546875 4.90625 
Q 49.8125 -1.21875 38.625 -1.21875 
Q 27.046875 -1.21875 19.796875 3.484375 
Q 12.546875 8.203125 8.765625 17.140625 
Q 4.984375 26.078125 4.984375 36.328125 
Q 4.984375 47.515625 9.25 55.828125 
Q 13.53125 64.15625 21.40625 68.46875 
Q 29.296875 72.796875 38.765625 72.796875 
Q 49.515625 72.796875 56.828125 67.328125 
Q 64.15625 61.859375 67.046875 51.953125 
L 57.71875 49.75 
Q 55.21875 57.5625 50.484375 61.125 
Q 45.75 64.703125 38.578125 64.703125 
Q 30.328125 64.703125 24.78125 60.734375 
Q 19.234375 56.78125 16.984375 50.109375 
Q 14.75 43.453125 14.75 36.375 
Q 14.75 27.25 17.40625 20.4375 
Q 20.0625 13.625 25.671875 10.25 
Q 31.296875 6.890625 37.84375 6.890625 
Q 45.796875 6.890625 51.3125 11.46875 
Q 56.84375 16.0625 58.796875 25.09375 
z
" id="ArialMT-67"/>
     <path d="M 7.421875 0 
L 7.421875 71.578125 
L 21.6875 71.578125 
L 38.625 20.90625 
Q 40.96875 13.8125 42.046875 10.296875 
Q 43.265625 14.203125 45.84375 21.78125 
L 62.984375 71.578125 
L 75.734375 71.578125 
L 75.734375 0 
L 66.609375 0 
L 66.609375 59.90625 
L 45.796875 0 
L 37.25 0 
L 16.546875 60.9375 
L 16.546875 0 
z
" id="ArialMT-77"/>
    </defs>
    <g style="fill:#262626;" transform="translate(860.009078 147.747187)scale(0.22 -0.22)">
     <use xlink:href="#ArialMT-65"/>
     <use x="66.699219" xlink:href="#ArialMT-99"/>
     <use x="116.699219" xlink:href="#ArialMT-116"/>
     <use x="144.482422" xlink:href="#ArialMT-105"/>
     <use x="166.699219" xlink:href="#ArialMT-111"/>
     <use x="222.314453" xlink:href="#ArialMT-110"/>
     <use x="277.929688" xlink:href="#ArialMT-44"/>
     <use x="305.712891" xlink:href="#ArialMT-67"/>
     <use x="377.929688" xlink:href="#ArialMT-111"/>
     <use x="433.544922" xlink:href="#ArialMT-109"/>
     <use x="516.845703" xlink:href="#ArialMT-101"/>
     <use x="572.460938" xlink:href="#ArialMT-100"/>
     <use x="628.076172" xlink:href="#ArialMT-121"/>
     <use x="670.701172" xlink:href="#ArialMT-44"/>
     <use x="698.484375" xlink:href="#ArialMT-77"/>
     <use x="781.785156" xlink:href="#ArialMT-121"/>
     <use x="831.785156" xlink:href="#ArialMT-115"/>
     <use x="881.785156" xlink:href="#ArialMT-116"/>
     <use x="909.568359" xlink:href="#ArialMT-101"/>
     <use x="965.183594" xlink:href="#ArialMT-114"/>
     <use x="998.484375" xlink:href="#ArialMT-121"/>
    </g>
   </g>
   <g id="PathCollection_25">
    <g>
     <use style="fill:#ae9d31;fill-opacity:0.8;stroke:#ae9d31;stroke-opacity:0.8;" x="820.409078" xlink:href="#m618ecf4bfb" y="173.349688"/>
    </g>
   </g>
   <g id="text_19">
    <!-- Biography,Drama,Musical -->
    <defs>
     <path d="M 6.59375 0 
L 6.59375 71.578125 
L 15.375 71.578125 
L 15.375 45.90625 
Q 21.53125 53.03125 30.90625 53.03125 
Q 36.671875 53.03125 40.921875 50.75 
Q 45.171875 48.484375 47 44.484375 
Q 48.828125 40.484375 48.828125 32.859375 
L 48.828125 0 
L 40.046875 0 
L 40.046875 32.859375 
Q 40.046875 39.453125 37.1875 42.453125 
Q 34.328125 45.453125 29.109375 45.453125 
Q 25.203125 45.453125 21.75 43.421875 
Q 18.3125 41.40625 16.84375 37.9375 
Q 15.375 34.46875 15.375 28.375 
L 15.375 0 
z
" id="ArialMT-104"/>
    </defs>
    <g style="fill:#262626;" transform="translate(860.009078 179.124688)scale(0.22 -0.22)">
     <use xlink:href="#ArialMT-66"/>
     <use x="66.699219" xlink:href="#ArialMT-105"/>
     <use x="88.916016" xlink:href="#ArialMT-111"/>
     <use x="144.53125" xlink:href="#ArialMT-103"/>
     <use x="200.146484" xlink:href="#ArialMT-114"/>
     <use x="233.447266" xlink:href="#ArialMT-97"/>
     <use x="289.0625" xlink:href="#ArialMT-112"/>
     <use x="344.677734" xlink:href="#ArialMT-104"/>
     <use x="400.292969" xlink:href="#ArialMT-121"/>
     <use x="442.917969" xlink:href="#ArialMT-44"/>
     <use x="470.701172" xlink:href="#ArialMT-68"/>
     <use x="542.917969" xlink:href="#ArialMT-114"/>
     <use x="576.21875" xlink:href="#ArialMT-97"/>
     <use x="631.833984" xlink:href="#ArialMT-109"/>
     <use x="715.134766" xlink:href="#ArialMT-97"/>
     <use x="770.75" xlink:href="#ArialMT-44"/>
     <use x="798.533203" xlink:href="#ArialMT-77"/>
     <use x="881.833984" xlink:href="#ArialMT-117"/>
     <use x="937.449219" xlink:href="#ArialMT-115"/>
     <use x="987.449219" xlink:href="#ArialMT-105"/>
     <use x="1009.666016" xlink:href="#ArialMT-99"/>
     <use x="1059.666016" xlink:href="#ArialMT-97"/>
     <use x="1115.28125" xlink:href="#ArialMT-108"/>
    </g>
   </g>
   <g id="PathCollection_26">
    <g>
     <use style="fill:#97a431;fill-opacity:0.8;stroke:#97a431;stroke-opacity:0.8;" x="820.409078" xlink:href="#m79b113f17e" y="204.727187"/>
    </g>
   </g>
   <g id="text_20">
    <!-- Action,Adventure,Fantasy -->
    <g style="fill:#262626;" transform="translate(860.009078 210.502187)scale(0.22 -0.22)">
     <use xlink:href="#ArialMT-65"/>
     <use x="66.699219" xlink:href="#ArialMT-99"/>
     <use x="116.699219" xlink:href="#ArialMT-116"/>
     <use x="144.482422" xlink:href="#ArialMT-105"/>
     <use x="166.699219" xlink:href="#ArialMT-111"/>
     <use x="222.314453" xlink:href="#ArialMT-110"/>
     <use x="277.929688" xlink:href="#ArialMT-44"/>
     <use x="305.712891" xlink:href="#ArialMT-65"/>
     <use x="372.412109" xlink:href="#ArialMT-100"/>
     <use x="428.027344" xlink:href="#ArialMT-118"/>
     <use x="478.027344" xlink:href="#ArialMT-101"/>
     <use x="533.642578" xlink:href="#ArialMT-110"/>
     <use x="589.257812" xlink:href="#ArialMT-116"/>
     <use x="617.041016" xlink:href="#ArialMT-117"/>
     <use x="672.65625" xlink:href="#ArialMT-114"/>
     <use x="705.957031" xlink:href="#ArialMT-101"/>
     <use x="761.572266" xlink:href="#ArialMT-44"/>
     <use x="789.355469" xlink:href="#ArialMT-70"/>
     <use x="850.439453" xlink:href="#ArialMT-97"/>
     <use x="906.054688" xlink:href="#ArialMT-110"/>
     <use x="961.669922" xlink:href="#ArialMT-116"/>
     <use x="989.453125" xlink:href="#ArialMT-97"/>
     <use x="1045.068359" xlink:href="#ArialMT-115"/>
     <use x="1095.068359" xlink:href="#ArialMT-121"/>
    </g>
   </g>
   <g id="PathCollection_27">
    <g>
     <use style="fill:#77ab31;fill-opacity:0.8;stroke:#77ab31;stroke-opacity:0.8;" x="820.409078" xlink:href="#mbeda34b51d" y="236.372812"/>
    </g>
   </g>
   <g id="text_21">
    <!-- Adventure,Mystery,Sci-Fi -->
    <g style="fill:#262626;" transform="translate(860.009078 242.147812)scale(0.22 -0.22)">
     <use xlink:href="#ArialMT-65"/>
     <use x="66.699219" xlink:href="#ArialMT-100"/>
     <use x="122.314453" xlink:href="#ArialMT-118"/>
     <use x="172.314453" xlink:href="#ArialMT-101"/>
     <use x="227.929688" xlink:href="#ArialMT-110"/>
     <use x="283.544922" xlink:href="#ArialMT-116"/>
     <use x="311.328125" xlink:href="#ArialMT-117"/>
     <use x="366.943359" xlink:href="#ArialMT-114"/>
     <use x="400.244141" xlink:href="#ArialMT-101"/>
     <use x="455.859375" xlink:href="#ArialMT-44"/>
     <use x="483.642578" xlink:href="#ArialMT-77"/>
     <use x="566.943359" xlink:href="#ArialMT-121"/>
     <use x="616.943359" xlink:href="#ArialMT-115"/>
     <use x="666.943359" xlink:href="#ArialMT-116"/>
     <use x="694.726562" xlink:href="#ArialMT-101"/>
     <use x="750.341797" xlink:href="#ArialMT-114"/>
     <use x="783.642578" xlink:href="#ArialMT-121"/>
     <use x="826.267578" xlink:href="#ArialMT-44"/>
     <use x="854.050781" xlink:href="#ArialMT-83"/>
     <use x="920.75" xlink:href="#ArialMT-99"/>
     <use x="970.75" xlink:href="#ArialMT-105"/>
     <use x="992.966797" xlink:href="#ArialMT-45"/>
     <use x="1026.267578" xlink:href="#ArialMT-70"/>
     <use x="1087.351562" xlink:href="#ArialMT-105"/>
    </g>
   </g>
   <g id="PathCollection_28">
    <g>
     <use style="fill:#31b33e;fill-opacity:0.8;stroke:#31b33e;stroke-opacity:0.8;" x="820.409078" xlink:href="#mdef980aba9" y="267.750313"/>
    </g>
   </g>
   <g id="text_22">
    <!-- Action,Adventure,Thriller -->
    <g style="fill:#262626;" transform="translate(860.009078 273.525313)scale(0.22 -0.22)">
     <use xlink:href="#ArialMT-65"/>
     <use x="66.699219" xlink:href="#ArialMT-99"/>
     <use x="116.699219" xlink:href="#ArialMT-116"/>
     <use x="144.482422" xlink:href="#ArialMT-105"/>
     <use x="166.699219" xlink:href="#ArialMT-111"/>
     <use x="222.314453" xlink:href="#ArialMT-110"/>
     <use x="277.929688" xlink:href="#ArialMT-44"/>
     <use x="305.712891" xlink:href="#ArialMT-65"/>
     <use x="372.412109" xlink:href="#ArialMT-100"/>
     <use x="428.027344" xlink:href="#ArialMT-118"/>
     <use x="478.027344" xlink:href="#ArialMT-101"/>
     <use x="533.642578" xlink:href="#ArialMT-110"/>
     <use x="589.257812" xlink:href="#ArialMT-116"/>
     <use x="617.041016" xlink:href="#ArialMT-117"/>
     <use x="672.65625" xlink:href="#ArialMT-114"/>
     <use x="705.957031" xlink:href="#ArialMT-101"/>
     <use x="761.572266" xlink:href="#ArialMT-44"/>
     <use x="789.355469" xlink:href="#ArialMT-84"/>
     <use x="850.439453" xlink:href="#ArialMT-104"/>
     <use x="906.054688" xlink:href="#ArialMT-114"/>
     <use x="939.355469" xlink:href="#ArialMT-105"/>
     <use x="961.572266" xlink:href="#ArialMT-108"/>
     <use x="983.789062" xlink:href="#ArialMT-108"/>
     <use x="1006.005859" xlink:href="#ArialMT-101"/>
     <use x="1061.621094" xlink:href="#ArialMT-114"/>
    </g>
   </g>
   <g id="PathCollection_29">
    <g>
     <use style="fill:#33b07a;fill-opacity:0.8;stroke:#33b07a;stroke-opacity:0.8;" x="820.409078" xlink:href="#me702fd8524" y="298.87"/>
    </g>
   </g>
   <g id="text_23">
    <!-- Adventure,Family,Fantasy -->
    <g style="fill:#262626;" transform="translate(860.009078 304.645)scale(0.22 -0.22)">
     <use xlink:href="#ArialMT-65"/>
     <use x="66.699219" xlink:href="#ArialMT-100"/>
     <use x="122.314453" xlink:href="#ArialMT-118"/>
     <use x="172.314453" xlink:href="#ArialMT-101"/>
     <use x="227.929688" xlink:href="#ArialMT-110"/>
     <use x="283.544922" xlink:href="#ArialMT-116"/>
     <use x="311.328125" xlink:href="#ArialMT-117"/>
     <use x="366.943359" xlink:href="#ArialMT-114"/>
     <use x="400.244141" xlink:href="#ArialMT-101"/>
     <use x="455.859375" xlink:href="#ArialMT-44"/>
     <use x="483.642578" xlink:href="#ArialMT-70"/>
     <use x="544.726562" xlink:href="#ArialMT-97"/>
     <use x="600.341797" xlink:href="#ArialMT-109"/>
     <use x="683.642578" xlink:href="#ArialMT-105"/>
     <use x="705.859375" xlink:href="#ArialMT-108"/>
     <use x="728.076172" xlink:href="#ArialMT-121"/>
     <use x="770.701172" xlink:href="#ArialMT-44"/>
     <use x="798.484375" xlink:href="#ArialMT-70"/>
     <use x="859.568359" xlink:href="#ArialMT-97"/>
     <use x="915.183594" xlink:href="#ArialMT-110"/>
     <use x="970.798828" xlink:href="#ArialMT-116"/>
     <use x="998.582031" xlink:href="#ArialMT-97"/>
     <use x="1054.197266" xlink:href="#ArialMT-115"/>
     <use x="1104.197266" xlink:href="#ArialMT-121"/>
    </g>
   </g>
   <g id="PathCollection_30">
    <g>
     <use style="fill:#35ae93;fill-opacity:0.8;stroke:#35ae93;stroke-opacity:0.8;" x="820.409078" xlink:href="#m8b2ec8d80c" y="330.2475"/>
    </g>
   </g>
   <g id="text_24">
    <!-- Action,Sci-Fi -->
    <g style="fill:#262626;" transform="translate(860.009078 336.0225)scale(0.22 -0.22)">
     <use xlink:href="#ArialMT-65"/>
     <use x="66.699219" xlink:href="#ArialMT-99"/>
     <use x="116.699219" xlink:href="#ArialMT-116"/>
     <use x="144.482422" xlink:href="#ArialMT-105"/>
     <use x="166.699219" xlink:href="#ArialMT-111"/>
     <use x="222.314453" xlink:href="#ArialMT-110"/>
     <use x="277.929688" xlink:href="#ArialMT-44"/>
     <use x="305.712891" xlink:href="#ArialMT-83"/>
     <use x="372.412109" xlink:href="#ArialMT-99"/>
     <use x="422.412109" xlink:href="#ArialMT-105"/>
     <use x="444.628906" xlink:href="#ArialMT-45"/>
     <use x="477.929688" xlink:href="#ArialMT-70"/>
     <use x="539.013672" xlink:href="#ArialMT-105"/>
    </g>
   </g>
   <g id="PathCollection_31">
    <g>
     <use style="fill:#36ada4;fill-opacity:0.8;stroke:#36ada4;stroke-opacity:0.8;" x="820.409078" xlink:href="#m685c687e4f" y="361.635313"/>
    </g>
   </g>
   <g id="text_25">
    <!-- Adventure,Animation,Comedy -->
    <g style="fill:#262626;" transform="translate(860.009078 367.410313)scale(0.22 -0.22)">
     <use xlink:href="#ArialMT-65"/>
     <use x="66.699219" xlink:href="#ArialMT-100"/>
     <use x="122.314453" xlink:href="#ArialMT-118"/>
     <use x="172.314453" xlink:href="#ArialMT-101"/>
     <use x="227.929688" xlink:href="#ArialMT-110"/>
     <use x="283.544922" xlink:href="#ArialMT-116"/>
     <use x="311.328125" xlink:href="#ArialMT-117"/>
     <use x="366.943359" xlink:href="#ArialMT-114"/>
     <use x="400.244141" xlink:href="#ArialMT-101"/>
     <use x="455.859375" xlink:href="#ArialMT-44"/>
     <use x="483.642578" xlink:href="#ArialMT-65"/>
     <use x="550.341797" xlink:href="#ArialMT-110"/>
     <use x="605.957031" xlink:href="#ArialMT-105"/>
     <use x="628.173828" xlink:href="#ArialMT-109"/>
     <use x="711.474609" xlink:href="#ArialMT-97"/>
     <use x="767.089844" xlink:href="#ArialMT-116"/>
     <use x="794.873047" xlink:href="#ArialMT-105"/>
     <use x="817.089844" xlink:href="#ArialMT-111"/>
     <use x="872.705078" xlink:href="#ArialMT-110"/>
     <use x="928.320312" xlink:href="#ArialMT-44"/>
     <use x="956.103516" xlink:href="#ArialMT-67"/>
     <use x="1028.320312" xlink:href="#ArialMT-111"/>
     <use x="1083.935547" xlink:href="#ArialMT-109"/>
     <use x="1167.236328" xlink:href="#ArialMT-101"/>
     <use x="1222.851562" xlink:href="#ArialMT-100"/>
     <use x="1278.466797" xlink:href="#ArialMT-121"/>
    </g>
   </g>
   <g id="PathCollection_32">
    <g>
     <use style="fill:#37abb4;fill-opacity:0.8;stroke:#37abb4;stroke-opacity:0.8;" x="820.409078" xlink:href="#m3af385a4d9" y="393.012813"/>
    </g>
   </g>
   <g id="text_26">
    <!-- Adventure,Drama,Fantasy -->
    <g style="fill:#262626;" transform="translate(860.009078 398.787813)scale(0.22 -0.22)">
     <use xlink:href="#ArialMT-65"/>
     <use x="66.699219" xlink:href="#ArialMT-100"/>
     <use x="122.314453" xlink:href="#ArialMT-118"/>
     <use x="172.314453" xlink:href="#ArialMT-101"/>
     <use x="227.929688" xlink:href="#ArialMT-110"/>
     <use x="283.544922" xlink:href="#ArialMT-116"/>
     <use x="311.328125" xlink:href="#ArialMT-117"/>
     <use x="366.943359" xlink:href="#ArialMT-114"/>
     <use x="400.244141" xlink:href="#ArialMT-101"/>
     <use x="455.859375" xlink:href="#ArialMT-44"/>
     <use x="483.642578" xlink:href="#ArialMT-68"/>
     <use x="555.859375" xlink:href="#ArialMT-114"/>
     <use x="589.160156" xlink:href="#ArialMT-97"/>
     <use x="644.775391" xlink:href="#ArialMT-109"/>
     <use x="728.076172" xlink:href="#ArialMT-97"/>
     <use x="783.691406" xlink:href="#ArialMT-44"/>
     <use x="811.474609" xlink:href="#ArialMT-70"/>
     <use x="872.558594" xlink:href="#ArialMT-97"/>
     <use x="928.173828" xlink:href="#ArialMT-110"/>
     <use x="983.789062" xlink:href="#ArialMT-116"/>
     <use x="1011.572266" xlink:href="#ArialMT-97"/>
     <use x="1067.1875" xlink:href="#ArialMT-115"/>
     <use x="1117.1875" xlink:href="#ArialMT-121"/>
    </g>
   </g>
   <g id="PathCollection_33">
    <g>
     <use style="fill:#38a9c5;fill-opacity:0.8;stroke:#38a9c5;stroke-opacity:0.8;" x="820.409078" xlink:href="#m93afdea71b" y="424.658438"/>
    </g>
   </g>
   <g id="text_27">
    <!-- Action,Mystery,Sci-Fi -->
    <g style="fill:#262626;" transform="translate(860.009078 430.433438)scale(0.22 -0.22)">
     <use xlink:href="#ArialMT-65"/>
     <use x="66.699219" xlink:href="#ArialMT-99"/>
     <use x="116.699219" xlink:href="#ArialMT-116"/>
     <use x="144.482422" xlink:href="#ArialMT-105"/>
     <use x="166.699219" xlink:href="#ArialMT-111"/>
     <use x="222.314453" xlink:href="#ArialMT-110"/>
     <use x="277.929688" xlink:href="#ArialMT-44"/>
     <use x="305.712891" xlink:href="#ArialMT-77"/>
     <use x="389.013672" xlink:href="#ArialMT-121"/>
     <use x="439.013672" xlink:href="#ArialMT-115"/>
     <use x="489.013672" xlink:href="#ArialMT-116"/>
     <use x="516.796875" xlink:href="#ArialMT-101"/>
     <use x="572.412109" xlink:href="#ArialMT-114"/>
     <use x="605.712891" xlink:href="#ArialMT-121"/>
     <use x="648.337891" xlink:href="#ArialMT-44"/>
     <use x="676.121094" xlink:href="#ArialMT-83"/>
     <use x="742.820312" xlink:href="#ArialMT-99"/>
     <use x="792.820312" xlink:href="#ArialMT-105"/>
     <use x="815.037109" xlink:href="#ArialMT-45"/>
     <use x="848.337891" xlink:href="#ArialMT-70"/>
     <use x="909.421875" xlink:href="#ArialMT-105"/>
    </g>
   </g>
   <g id="PathCollection_34">
    <g>
     <use style="fill:#3aa5df;fill-opacity:0.8;stroke:#3aa5df;stroke-opacity:0.8;" x="820.409078" xlink:href="#md6714869ef" y="456.035938"/>
    </g>
   </g>
   <g id="text_28">
    <!-- Action,Drama,Family -->
    <g style="fill:#262626;" transform="translate(860.009078 461.810938)scale(0.22 -0.22)">
     <use xlink:href="#ArialMT-65"/>
     <use x="66.699219" xlink:href="#ArialMT-99"/>
     <use x="116.699219" xlink:href="#ArialMT-116"/>
     <use x="144.482422" xlink:href="#ArialMT-105"/>
     <use x="166.699219" xlink:href="#ArialMT-111"/>
     <use x="222.314453" xlink:href="#ArialMT-110"/>
     <use x="277.929688" xlink:href="#ArialMT-44"/>
     <use x="305.712891" xlink:href="#ArialMT-68"/>
     <use x="377.929688" xlink:href="#ArialMT-114"/>
     <use x="411.230469" xlink:href="#ArialMT-97"/>
     <use x="466.845703" xlink:href="#ArialMT-109"/>
     <use x="550.146484" xlink:href="#ArialMT-97"/>
     <use x="605.761719" xlink:href="#ArialMT-44"/>
     <use x="633.544922" xlink:href="#ArialMT-70"/>
     <use x="694.628906" xlink:href="#ArialMT-97"/>
     <use x="750.244141" xlink:href="#ArialMT-109"/>
     <use x="833.544922" xlink:href="#ArialMT-105"/>
     <use x="855.761719" xlink:href="#ArialMT-108"/>
     <use x="877.978516" xlink:href="#ArialMT-121"/>
    </g>
   </g>
   <g id="PathCollection_35">
    <g>
     <use style="fill:#6e9bf4;fill-opacity:0.8;stroke:#6e9bf4;stroke-opacity:0.8;" x="820.409078" xlink:href="#m61b4c34d57" y="487.681563"/>
    </g>
   </g>
   <g id="text_29">
    <!-- Action,Adventure,Comedy -->
    <g style="fill:#262626;" transform="translate(860.009078 493.456563)scale(0.22 -0.22)">
     <use xlink:href="#ArialMT-65"/>
     <use x="66.699219" xlink:href="#ArialMT-99"/>
     <use x="116.699219" xlink:href="#ArialMT-116"/>
     <use x="144.482422" xlink:href="#ArialMT-105"/>
     <use x="166.699219" xlink:href="#ArialMT-111"/>
     <use x="222.314453" xlink:href="#ArialMT-110"/>
     <use x="277.929688" xlink:href="#ArialMT-44"/>
     <use x="305.712891" xlink:href="#ArialMT-65"/>
     <use x="372.412109" xlink:href="#ArialMT-100"/>
     <use x="428.027344" xlink:href="#ArialMT-118"/>
     <use x="478.027344" xlink:href="#ArialMT-101"/>
     <use x="533.642578" xlink:href="#ArialMT-110"/>
     <use x="589.257812" xlink:href="#ArialMT-116"/>
     <use x="617.041016" xlink:href="#ArialMT-117"/>
     <use x="672.65625" xlink:href="#ArialMT-114"/>
     <use x="705.957031" xlink:href="#ArialMT-101"/>
     <use x="761.572266" xlink:href="#ArialMT-44"/>
     <use x="789.355469" xlink:href="#ArialMT-67"/>
     <use x="861.572266" xlink:href="#ArialMT-111"/>
     <use x="917.1875" xlink:href="#ArialMT-109"/>
     <use x="1000.488281" xlink:href="#ArialMT-101"/>
     <use x="1056.103516" xlink:href="#ArialMT-100"/>
     <use x="1111.71875" xlink:href="#ArialMT-121"/>
    </g>
   </g>
   <g id="PathCollection_36">
    <g>
     <use style="fill:#a48cf4;fill-opacity:0.8;stroke:#a48cf4;stroke-opacity:0.8;" x="820.409078" xlink:href="#m6adc93fc46" y="519.327188"/>
    </g>
   </g>
   <g id="text_30">
    <!-- Animation,Comedy,Family -->
    <g style="fill:#262626;" transform="translate(860.009078 525.102188)scale(0.22 -0.22)">
     <use xlink:href="#ArialMT-65"/>
     <use x="66.699219" xlink:href="#ArialMT-110"/>
     <use x="122.314453" xlink:href="#ArialMT-105"/>
     <use x="144.53125" xlink:href="#ArialMT-109"/>
     <use x="227.832031" xlink:href="#ArialMT-97"/>
     <use x="283.447266" xlink:href="#ArialMT-116"/>
     <use x="311.230469" xlink:href="#ArialMT-105"/>
     <use x="333.447266" xlink:href="#ArialMT-111"/>
     <use x="389.0625" xlink:href="#ArialMT-110"/>
     <use x="444.677734" xlink:href="#ArialMT-44"/>
     <use x="472.460938" xlink:href="#ArialMT-67"/>
     <use x="544.677734" xlink:href="#ArialMT-111"/>
     <use x="600.292969" xlink:href="#ArialMT-109"/>
     <use x="683.59375" xlink:href="#ArialMT-101"/>
     <use x="739.208984" xlink:href="#ArialMT-100"/>
     <use x="794.824219" xlink:href="#ArialMT-121"/>
     <use x="837.449219" xlink:href="#ArialMT-44"/>
     <use x="865.232422" xlink:href="#ArialMT-70"/>
     <use x="926.316406" xlink:href="#ArialMT-97"/>
     <use x="981.931641" xlink:href="#ArialMT-109"/>
     <use x="1065.232422" xlink:href="#ArialMT-105"/>
     <use x="1087.449219" xlink:href="#ArialMT-108"/>
     <use x="1109.666016" xlink:href="#ArialMT-121"/>
    </g>
   </g>
   <g id="PathCollection_37">
    <g>
     <use style="fill:#cc7af4;fill-opacity:0.8;stroke:#cc7af4;stroke-opacity:0.8;" x="820.409078" xlink:href="#m41dfd86d97" y="550.704688"/>
    </g>
   </g>
   <g id="text_31">
    <!-- Action,Adventure,Family -->
    <g style="fill:#262626;" transform="translate(860.009078 556.479688)scale(0.22 -0.22)">
     <use xlink:href="#ArialMT-65"/>
     <use x="66.699219" xlink:href="#ArialMT-99"/>
     <use x="116.699219" xlink:href="#ArialMT-116"/>
     <use x="144.482422" xlink:href="#ArialMT-105"/>
     <use x="166.699219" xlink:href="#ArialMT-111"/>
     <use x="222.314453" xlink:href="#ArialMT-110"/>
     <use x="277.929688" xlink:href="#ArialMT-44"/>
     <use x="305.712891" xlink:href="#ArialMT-65"/>
     <use x="372.412109" xlink:href="#ArialMT-100"/>
     <use x="428.027344" xlink:href="#ArialMT-118"/>
     <use x="478.027344" xlink:href="#ArialMT-101"/>
     <use x="533.642578" xlink:href="#ArialMT-110"/>
     <use x="589.257812" xlink:href="#ArialMT-116"/>
     <use x="617.041016" xlink:href="#ArialMT-117"/>
     <use x="672.65625" xlink:href="#ArialMT-114"/>
     <use x="705.957031" xlink:href="#ArialMT-101"/>
     <use x="761.572266" xlink:href="#ArialMT-44"/>
     <use x="789.355469" xlink:href="#ArialMT-70"/>
     <use x="850.439453" xlink:href="#ArialMT-97"/>
     <use x="906.054688" xlink:href="#ArialMT-109"/>
     <use x="989.355469" xlink:href="#ArialMT-105"/>
     <use x="1011.572266" xlink:href="#ArialMT-108"/>
     <use x="1033.789062" xlink:href="#ArialMT-121"/>
    </g>
   </g>
   <g id="PathCollection_38">
    <g>
     <use style="fill:#f45cf2;fill-opacity:0.8;stroke:#f45cf2;stroke-opacity:0.8;" x="820.409078" xlink:href="#m1c8867e76f" y="582.082188"/>
    </g>
   </g>
   <g id="text_32">
    <!-- Action,Adventure,Animation -->
    <g style="fill:#262626;" transform="translate(860.009078 587.857188)scale(0.22 -0.22)">
     <use xlink:href="#ArialMT-65"/>
     <use x="66.699219" xlink:href="#ArialMT-99"/>
     <use x="116.699219" xlink:href="#ArialMT-116"/>
     <use x="144.482422" xlink:href="#ArialMT-105"/>
     <use x="166.699219" xlink:href="#ArialMT-111"/>
     <use x="222.314453" xlink:href="#ArialMT-110"/>
     <use x="277.929688" xlink:href="#ArialMT-44"/>
     <use x="305.712891" xlink:href="#ArialMT-65"/>
     <use x="372.412109" xlink:href="#ArialMT-100"/>
     <use x="428.027344" xlink:href="#ArialMT-118"/>
     <use x="478.027344" xlink:href="#ArialMT-101"/>
     <use x="533.642578" xlink:href="#ArialMT-110"/>
     <use x="589.257812" xlink:href="#ArialMT-116"/>
     <use x="617.041016" xlink:href="#ArialMT-117"/>
     <use x="672.65625" xlink:href="#ArialMT-114"/>
     <use x="705.957031" xlink:href="#ArialMT-101"/>
     <use x="761.572266" xlink:href="#ArialMT-44"/>
     <use x="789.355469" xlink:href="#ArialMT-65"/>
     <use x="856.054688" xlink:href="#ArialMT-110"/>
     <use x="911.669922" xlink:href="#ArialMT-105"/>
     <use x="933.886719" xlink:href="#ArialMT-109"/>
     <use x="1017.1875" xlink:href="#ArialMT-97"/>
     <use x="1072.802734" xlink:href="#ArialMT-116"/>
     <use x="1100.585938" xlink:href="#ArialMT-105"/>
     <use x="1122.802734" xlink:href="#ArialMT-111"/>
     <use x="1178.417969" xlink:href="#ArialMT-110"/>
    </g>
   </g>
   <g id="PathCollection_39">
    <g>
     <use style="fill:#f565cc;fill-opacity:0.8;stroke:#f565cc;stroke-opacity:0.8;" x="820.409078" xlink:href="#m474b1c8621" y="613.201875"/>
    </g>
   </g>
   <g id="text_33">
    <!-- Action,Adventure,Mystery -->
    <g style="fill:#262626;" transform="translate(860.009078 618.976875)scale(0.22 -0.22)">
     <use xlink:href="#ArialMT-65"/>
     <use x="66.699219" xlink:href="#ArialMT-99"/>
     <use x="116.699219" xlink:href="#ArialMT-116"/>
     <use x="144.482422" xlink:href="#ArialMT-105"/>
     <use x="166.699219" xlink:href="#ArialMT-111"/>
     <use x="222.314453" xlink:href="#ArialMT-110"/>
     <use x="277.929688" xlink:href="#ArialMT-44"/>
     <use x="305.712891" xlink:href="#ArialMT-65"/>
     <use x="372.412109" xlink:href="#ArialMT-100"/>
     <use x="428.027344" xlink:href="#ArialMT-118"/>
     <use x="478.027344" xlink:href="#ArialMT-101"/>
     <use x="533.642578" xlink:href="#ArialMT-110"/>
     <use x="589.257812" xlink:href="#ArialMT-116"/>
     <use x="617.041016" xlink:href="#ArialMT-117"/>
     <use x="672.65625" xlink:href="#ArialMT-114"/>
     <use x="705.957031" xlink:href="#ArialMT-101"/>
     <use x="761.572266" xlink:href="#ArialMT-44"/>
     <use x="789.355469" xlink:href="#ArialMT-77"/>
     <use x="872.65625" xlink:href="#ArialMT-121"/>
     <use x="922.65625" xlink:href="#ArialMT-115"/>
     <use x="972.65625" xlink:href="#ArialMT-116"/>
     <use x="1000.439453" xlink:href="#ArialMT-101"/>
     <use x="1056.054688" xlink:href="#ArialMT-114"/>
     <use x="1089.355469" xlink:href="#ArialMT-121"/>
    </g>
   </g>
   <g id="PathCollection_40">
    <g>
     <use style="fill:#f66bad;fill-opacity:0.8;stroke:#f66bad;stroke-opacity:0.8;" x="820.409078" xlink:href="#m8f0f0d811c" y="644.8475"/>
    </g>
   </g>
   <g id="text_34">
    <!-- Action,Animation,Comedy -->
    <g style="fill:#262626;" transform="translate(860.009078 650.6225)scale(0.22 -0.22)">
     <use xlink:href="#ArialMT-65"/>
     <use x="66.699219" xlink:href="#ArialMT-99"/>
     <use x="116.699219" xlink:href="#ArialMT-116"/>
     <use x="144.482422" xlink:href="#ArialMT-105"/>
     <use x="166.699219" xlink:href="#ArialMT-111"/>
     <use x="222.314453" xlink:href="#ArialMT-110"/>
     <use x="277.929688" xlink:href="#ArialMT-44"/>
     <use x="305.712891" xlink:href="#ArialMT-65"/>
     <use x="372.412109" xlink:href="#ArialMT-110"/>
     <use x="428.027344" xlink:href="#ArialMT-105"/>
     <use x="450.244141" xlink:href="#ArialMT-109"/>
     <use x="533.544922" xlink:href="#ArialMT-97"/>
     <use x="589.160156" xlink:href="#ArialMT-116"/>
     <use x="616.943359" xlink:href="#ArialMT-105"/>
     <use x="639.160156" xlink:href="#ArialMT-111"/>
     <use x="694.775391" xlink:href="#ArialMT-110"/>
     <use x="750.390625" xlink:href="#ArialMT-44"/>
     <use x="778.173828" xlink:href="#ArialMT-67"/>
     <use x="850.390625" xlink:href="#ArialMT-111"/>
     <use x="906.005859" xlink:href="#ArialMT-109"/>
     <use x="989.306641" xlink:href="#ArialMT-101"/>
     <use x="1044.921875" xlink:href="#ArialMT-100"/>
     <use x="1100.537109" xlink:href="#ArialMT-121"/>
    </g>
   </g>
  </g>
 </g>
 <defs>
  <clipPath id="pc1fd985e0b">
   <rect height="467.66" width="718.569266" x="73.22875" y="73.546406"/>
  </clipPath>
 </defs>
</svg>
