<?xml version="1.0" encoding="utf-8" standalone="no"?>
<!DOCTYPE svg PUBLIC "-//W3C//DTD SVG 1.1//EN"
  "http://www.w3.org/Graphics/SVG/1.1/DTD/svg11.dtd">
<!-- Created with matplotlib (https://matplotlib.org/) -->
<svg height="705.380937pt" version="1.1" viewBox="0 0 1041.46375 705.380937" width="1041.46375pt" xmlns="http://www.w3.org/2000/svg" xmlns:xlink="http://www.w3.org/1999/xlink">
 <defs>
  <style type="text/css">
*{stroke-linecap:butt;stroke-linejoin:round;}
  </style>
 </defs>
 <g id="figure_1">
  <g id="patch_1">
   <path d="M -0 705.380937 
L 1041.46375 705.380937 
L 1041.46375 0 
L -0 0 
z
" style="fill:#ffffff;"/>
  </g>
  <g id="axes_1">
   <g id="patch_2">
    <path d="M 73.22875 642.33125 
L 1034.26375 642.33125 
L 1034.26375 30.67125 
L 73.22875 30.67125 
z
" style="fill:#eaeaf2;"/>
   </g>
   <g id="matplotlib.axis_1">
    <g id="xtick_1">
     <g id="line2d_1">
      <path clip-path="url(#pc89d34f2ce)" d="M 139.507026 642.33125 
L 139.507026 30.67125 
" style="fill:none;stroke:#ffffff;stroke-linecap:round;"/>
     </g>
     <g id="text_1">
      <!-- 3 -->
      <defs>
       <path d="M 4.203125 18.890625 
L 12.984375 20.0625 
Q 14.5 12.59375 18.140625 9.296875 
Q 21.78125 6 27 6 
Q 33.203125 6 37.46875 10.296875 
Q 41.75 14.59375 41.75 20.953125 
Q 41.75 27 37.796875 30.921875 
Q 33.84375 34.859375 27.734375 34.859375 
Q 25.25 34.859375 21.53125 33.890625 
L 22.515625 41.609375 
Q 23.390625 41.5 23.921875 41.5 
Q 29.546875 41.5 34.03125 44.421875 
Q 38.53125 47.359375 38.53125 53.46875 
Q 38.53125 58.296875 35.25 61.46875 
Q 31.984375 64.65625 26.8125 64.65625 
Q 21.6875 64.65625 18.265625 61.421875 
Q 14.84375 58.203125 13.875 51.765625 
L 5.078125 53.328125 
Q 6.6875 62.15625 12.390625 67.015625 
Q 18.109375 71.875 26.609375 71.875 
Q 32.46875 71.875 37.390625 69.359375 
Q 42.328125 66.84375 44.9375 62.5 
Q 47.5625 58.15625 47.5625 53.265625 
Q 47.5625 48.640625 45.0625 44.828125 
Q 42.578125 41.015625 37.703125 38.765625 
Q 44.046875 37.3125 47.5625 32.6875 
Q 51.078125 28.078125 51.078125 21.140625 
Q 51.078125 11.765625 44.234375 5.25 
Q 37.40625 -1.265625 26.953125 -1.265625 
Q 17.53125 -1.265625 11.296875 4.34375 
Q 5.078125 9.96875 4.203125 18.890625 
z
" id="ArialMT-51"/>
      </defs>
      <g style="fill:#262626;" transform="translate(133.389995 667.578437)scale(0.22 -0.22)">
       <use xlink:href="#ArialMT-51"/>
      </g>
     </g>
    </g>
    <g id="xtick_2">
     <g id="line2d_2">
      <path clip-path="url(#pc89d34f2ce)" d="M 305.202716 642.33125 
L 305.202716 30.67125 
" style="fill:none;stroke:#ffffff;stroke-linecap:round;"/>
     </g>
     <g id="text_2">
      <!-- 4 -->
      <defs>
       <path d="M 32.328125 0 
L 32.328125 17.140625 
L 1.265625 17.140625 
L 1.265625 25.203125 
L 33.9375 71.578125 
L 41.109375 71.578125 
L 41.109375 25.203125 
L 50.78125 25.203125 
L 50.78125 17.140625 
L 41.109375 17.140625 
L 41.109375 0 
z
M 32.328125 25.203125 
L 32.328125 57.46875 
L 9.90625 25.203125 
z
" id="ArialMT-52"/>
      </defs>
      <g style="fill:#262626;" transform="translate(299.085684 667.578437)scale(0.22 -0.22)">
       <use xlink:href="#ArialMT-52"/>
      </g>
     </g>
    </g>
    <g id="xtick_3">
     <g id="line2d_3">
      <path clip-path="url(#pc89d34f2ce)" d="M 470.898405 642.33125 
L 470.898405 30.67125 
" style="fill:none;stroke:#ffffff;stroke-linecap:round;"/>
     </g>
     <g id="text_3">
      <!-- 5 -->
      <defs>
       <path d="M 4.15625 18.75 
L 13.375 19.53125 
Q 14.40625 12.796875 18.140625 9.390625 
Q 21.875 6 27.15625 6 
Q 33.5 6 37.890625 10.78125 
Q 42.28125 15.578125 42.28125 23.484375 
Q 42.28125 31 38.0625 35.34375 
Q 33.84375 39.703125 27 39.703125 
Q 22.75 39.703125 19.328125 37.765625 
Q 15.921875 35.84375 13.96875 32.765625 
L 5.71875 33.84375 
L 12.640625 70.609375 
L 48.25 70.609375 
L 48.25 62.203125 
L 19.671875 62.203125 
L 15.828125 42.96875 
Q 22.265625 47.46875 29.34375 47.46875 
Q 38.71875 47.46875 45.15625 40.96875 
Q 51.609375 34.46875 51.609375 24.265625 
Q 51.609375 14.546875 45.953125 7.46875 
Q 39.0625 -1.21875 27.15625 -1.21875 
Q 17.390625 -1.21875 11.203125 4.25 
Q 5.03125 9.71875 4.15625 18.75 
z
" id="ArialMT-53"/>
      </defs>
      <g style="fill:#262626;" transform="translate(464.781374 667.578437)scale(0.22 -0.22)">
       <use xlink:href="#ArialMT-53"/>
      </g>
     </g>
    </g>
    <g id="xtick_4">
     <g id="line2d_4">
      <path clip-path="url(#pc89d34f2ce)" d="M 636.594095 642.33125 
L 636.594095 30.67125 
" style="fill:none;stroke:#ffffff;stroke-linecap:round;"/>
     </g>
     <g id="text_4">
      <!-- 6 -->
      <defs>
       <path d="M 49.75 54.046875 
L 41.015625 53.375 
Q 39.84375 58.546875 37.703125 60.890625 
Q 34.125 64.65625 28.90625 64.65625 
Q 24.703125 64.65625 21.53125 62.3125 
Q 17.390625 59.28125 14.984375 53.46875 
Q 12.59375 47.65625 12.5 36.921875 
Q 15.671875 41.75 20.265625 44.09375 
Q 24.859375 46.4375 29.890625 46.4375 
Q 38.671875 46.4375 44.84375 39.96875 
Q 51.03125 33.5 51.03125 23.25 
Q 51.03125 16.5 48.125 10.71875 
Q 45.21875 4.9375 40.140625 1.859375 
Q 35.0625 -1.21875 28.609375 -1.21875 
Q 17.625 -1.21875 10.6875 6.859375 
Q 3.765625 14.9375 3.765625 33.5 
Q 3.765625 54.25 11.421875 63.671875 
Q 18.109375 71.875 29.4375 71.875 
Q 37.890625 71.875 43.28125 67.140625 
Q 48.6875 62.40625 49.75 54.046875 
z
M 13.875 23.1875 
Q 13.875 18.65625 15.796875 14.5 
Q 17.71875 10.359375 21.1875 8.171875 
Q 24.65625 6 28.46875 6 
Q 34.03125 6 38.03125 10.484375 
Q 42.046875 14.984375 42.046875 22.703125 
Q 42.046875 30.125 38.078125 34.390625 
Q 34.125 38.671875 28.125 38.671875 
Q 22.171875 38.671875 18.015625 34.390625 
Q 13.875 30.125 13.875 23.1875 
z
" id="ArialMT-54"/>
      </defs>
      <g style="fill:#262626;" transform="translate(630.477064 667.578437)scale(0.22 -0.22)">
       <use xlink:href="#ArialMT-54"/>
      </g>
     </g>
    </g>
    <g id="xtick_5">
     <g id="line2d_5">
      <path clip-path="url(#pc89d34f2ce)" d="M 802.289784 642.33125 
L 802.289784 30.67125 
" style="fill:none;stroke:#ffffff;stroke-linecap:round;"/>
     </g>
     <g id="text_5">
      <!-- 7 -->
      <defs>
       <path d="M 4.734375 62.203125 
L 4.734375 70.65625 
L 51.078125 70.65625 
L 51.078125 63.8125 
Q 44.234375 56.546875 37.515625 44.484375 
Q 30.8125 32.421875 27.15625 19.671875 
Q 24.515625 10.6875 23.78125 0 
L 14.75 0 
Q 14.890625 8.453125 18.0625 20.40625 
Q 21.234375 32.375 27.171875 43.484375 
Q 33.109375 54.59375 39.796875 62.203125 
z
" id="ArialMT-55"/>
      </defs>
      <g style="fill:#262626;" transform="translate(796.172753 667.578437)scale(0.22 -0.22)">
       <use xlink:href="#ArialMT-55"/>
      </g>
     </g>
    </g>
    <g id="xtick_6">
     <g id="line2d_6">
      <path clip-path="url(#pc89d34f2ce)" d="M 967.985474 642.33125 
L 967.985474 30.67125 
" style="fill:none;stroke:#ffffff;stroke-linecap:round;"/>
     </g>
     <g id="text_6">
      <!-- 8 -->
      <defs>
       <path d="M 17.671875 38.8125 
Q 12.203125 40.828125 9.5625 44.53125 
Q 6.9375 48.25 6.9375 53.421875 
Q 6.9375 61.234375 12.546875 66.546875 
Q 18.171875 71.875 27.484375 71.875 
Q 36.859375 71.875 42.578125 66.421875 
Q 48.296875 60.984375 48.296875 53.171875 
Q 48.296875 48.1875 45.671875 44.5 
Q 43.0625 40.828125 37.75 38.8125 
Q 44.34375 36.671875 47.78125 31.875 
Q 51.21875 27.09375 51.21875 20.453125 
Q 51.21875 11.28125 44.71875 5.03125 
Q 38.234375 -1.21875 27.640625 -1.21875 
Q 17.046875 -1.21875 10.546875 5.046875 
Q 4.046875 11.328125 4.046875 20.703125 
Q 4.046875 27.6875 7.59375 32.390625 
Q 11.140625 37.109375 17.671875 38.8125 
z
M 15.921875 53.71875 
Q 15.921875 48.640625 19.1875 45.40625 
Q 22.46875 42.1875 27.6875 42.1875 
Q 32.765625 42.1875 36.015625 45.375 
Q 39.265625 48.578125 39.265625 53.21875 
Q 39.265625 58.0625 35.90625 61.359375 
Q 32.5625 64.65625 27.59375 64.65625 
Q 22.5625 64.65625 19.234375 61.421875 
Q 15.921875 58.203125 15.921875 53.71875 
z
M 13.09375 20.65625 
Q 13.09375 16.890625 14.875 13.375 
Q 16.65625 9.859375 20.171875 7.921875 
Q 23.6875 6 27.734375 6 
Q 34.03125 6 38.125 10.046875 
Q 42.234375 14.109375 42.234375 20.359375 
Q 42.234375 26.703125 38.015625 30.859375 
Q 33.796875 35.015625 27.4375 35.015625 
Q 21.234375 35.015625 17.15625 30.90625 
Q 13.09375 26.8125 13.09375 20.65625 
z
" id="ArialMT-56"/>
      </defs>
      <g style="fill:#262626;" transform="translate(961.868443 667.578437)scale(0.22 -0.22)">
       <use xlink:href="#ArialMT-56"/>
      </g>
     </g>
    </g>
    <g id="text_7">
     <!-- Average Rating -->
     <defs>
      <path d="M -0.140625 0 
L 27.34375 71.578125 
L 37.546875 71.578125 
L 66.84375 0 
L 56.0625 0 
L 47.703125 21.6875 
L 17.78125 21.6875 
L 9.90625 0 
z
M 20.515625 29.390625 
L 44.78125 29.390625 
L 37.3125 49.21875 
Q 33.890625 58.25 32.234375 64.0625 
Q 30.859375 57.171875 28.375 50.390625 
z
" id="ArialMT-65"/>
      <path d="M 21 0 
L 1.265625 51.859375 
L 10.546875 51.859375 
L 21.6875 20.796875 
Q 23.484375 15.765625 25 10.359375 
Q 26.171875 14.453125 28.265625 20.21875 
L 39.796875 51.859375 
L 48.828125 51.859375 
L 29.203125 0 
z
" id="ArialMT-118"/>
      <path d="M 42.09375 16.703125 
L 51.171875 15.578125 
Q 49.03125 7.625 43.21875 3.21875 
Q 37.40625 -1.171875 28.375 -1.171875 
Q 17 -1.171875 10.328125 5.828125 
Q 3.65625 12.84375 3.65625 25.484375 
Q 3.65625 38.578125 10.390625 45.796875 
Q 17.140625 53.03125 27.875 53.03125 
Q 38.28125 53.03125 44.875 45.953125 
Q 51.46875 38.875 51.46875 26.03125 
Q 51.46875 25.25 51.421875 23.6875 
L 12.75 23.6875 
Q 13.234375 15.140625 17.578125 10.59375 
Q 21.921875 6.0625 28.421875 6.0625 
Q 33.25 6.0625 36.671875 8.59375 
Q 40.09375 11.140625 42.09375 16.703125 
z
M 13.234375 30.90625 
L 42.1875 30.90625 
Q 41.609375 37.453125 38.875 40.71875 
Q 34.671875 45.796875 27.984375 45.796875 
Q 21.921875 45.796875 17.796875 41.75 
Q 13.671875 37.703125 13.234375 30.90625 
z
" id="ArialMT-101"/>
      <path d="M 6.5 0 
L 6.5 51.859375 
L 14.40625 51.859375 
L 14.40625 44 
Q 17.4375 49.515625 20 51.265625 
Q 22.5625 53.03125 25.640625 53.03125 
Q 30.078125 53.03125 34.671875 50.203125 
L 31.640625 42.046875 
Q 28.421875 43.953125 25.203125 43.953125 
Q 22.3125 43.953125 20.015625 42.21875 
Q 17.71875 40.484375 16.75 37.40625 
Q 15.28125 32.71875 15.28125 27.15625 
L 15.28125 0 
z
" id="ArialMT-114"/>
      <path d="M 40.4375 6.390625 
Q 35.546875 2.25 31.03125 0.53125 
Q 26.515625 -1.171875 21.34375 -1.171875 
Q 12.796875 -1.171875 8.203125 3 
Q 3.609375 7.171875 3.609375 13.671875 
Q 3.609375 17.484375 5.34375 20.625 
Q 7.078125 23.78125 9.890625 25.6875 
Q 12.703125 27.59375 16.21875 28.5625 
Q 18.796875 29.25 24.03125 29.890625 
Q 34.671875 31.15625 39.703125 32.90625 
Q 39.75 34.71875 39.75 35.203125 
Q 39.75 40.578125 37.25 42.78125 
Q 33.890625 45.75 27.25 45.75 
Q 21.046875 45.75 18.09375 43.578125 
Q 15.140625 41.40625 13.71875 35.890625 
L 5.125 37.0625 
Q 6.296875 42.578125 8.984375 45.96875 
Q 11.671875 49.359375 16.75 51.1875 
Q 21.828125 53.03125 28.515625 53.03125 
Q 35.15625 53.03125 39.296875 51.46875 
Q 43.453125 49.90625 45.40625 47.53125 
Q 47.359375 45.171875 48.140625 41.546875 
Q 48.578125 39.3125 48.578125 33.453125 
L 48.578125 21.734375 
Q 48.578125 9.46875 49.140625 6.21875 
Q 49.703125 2.984375 51.375 0 
L 42.1875 0 
Q 40.828125 2.734375 40.4375 6.390625 
z
M 39.703125 26.03125 
Q 34.90625 24.078125 25.34375 22.703125 
Q 19.921875 21.921875 17.671875 20.9375 
Q 15.4375 19.96875 14.203125 18.09375 
Q 12.984375 16.21875 12.984375 13.921875 
Q 12.984375 10.40625 15.640625 8.0625 
Q 18.3125 5.71875 23.4375 5.71875 
Q 28.515625 5.71875 32.46875 7.9375 
Q 36.421875 10.15625 38.28125 14.015625 
Q 39.703125 17 39.703125 22.796875 
z
" id="ArialMT-97"/>
      <path d="M 4.984375 -4.296875 
L 13.53125 -5.5625 
Q 14.0625 -9.515625 16.5 -11.328125 
Q 19.78125 -13.765625 25.4375 -13.765625 
Q 31.546875 -13.765625 34.859375 -11.328125 
Q 38.1875 -8.890625 39.359375 -4.5 
Q 40.046875 -1.8125 39.984375 6.78125 
Q 34.234375 0 25.640625 0 
Q 14.9375 0 9.078125 7.71875 
Q 3.21875 15.4375 3.21875 26.21875 
Q 3.21875 33.640625 5.90625 39.90625 
Q 8.59375 46.1875 13.6875 49.609375 
Q 18.796875 53.03125 25.6875 53.03125 
Q 34.859375 53.03125 40.828125 45.609375 
L 40.828125 51.859375 
L 48.921875 51.859375 
L 48.921875 7.03125 
Q 48.921875 -5.078125 46.453125 -10.125 
Q 44 -15.1875 38.640625 -18.109375 
Q 33.296875 -21.046875 25.484375 -21.046875 
Q 16.21875 -21.046875 10.5 -16.875 
Q 4.78125 -12.703125 4.984375 -4.296875 
z
M 12.25 26.859375 
Q 12.25 16.65625 16.296875 11.96875 
Q 20.359375 7.28125 26.46875 7.28125 
Q 32.515625 7.28125 36.609375 11.9375 
Q 40.71875 16.609375 40.71875 26.5625 
Q 40.71875 36.078125 36.5 40.90625 
Q 32.28125 45.75 26.3125 45.75 
Q 20.453125 45.75 16.34375 40.984375 
Q 12.25 36.234375 12.25 26.859375 
z
" id="ArialMT-103"/>
      <path id="ArialMT-32"/>
      <path d="M 7.859375 0 
L 7.859375 71.578125 
L 39.59375 71.578125 
Q 49.171875 71.578125 54.140625 69.640625 
Q 59.125 67.71875 62.109375 62.828125 
Q 65.09375 57.953125 65.09375 52.046875 
Q 65.09375 44.4375 60.15625 39.203125 
Q 55.21875 33.984375 44.921875 32.5625 
Q 48.6875 30.765625 50.640625 29 
Q 54.78125 25.203125 58.5 19.484375 
L 70.953125 0 
L 59.03125 0 
L 49.5625 14.890625 
Q 45.40625 21.34375 42.71875 24.75 
Q 40.046875 28.171875 37.921875 29.53125 
Q 35.796875 30.90625 33.59375 31.453125 
Q 31.984375 31.78125 28.328125 31.78125 
L 17.328125 31.78125 
L 17.328125 0 
z
M 17.328125 39.984375 
L 37.703125 39.984375 
Q 44.1875 39.984375 47.84375 41.328125 
Q 51.515625 42.671875 53.421875 45.625 
Q 55.328125 48.578125 55.328125 52.046875 
Q 55.328125 57.125 51.640625 60.390625 
Q 47.953125 63.671875 39.984375 63.671875 
L 17.328125 63.671875 
z
" id="ArialMT-82"/>
      <path d="M 25.78125 7.859375 
L 27.046875 0.09375 
Q 23.34375 -0.6875 20.40625 -0.6875 
Q 15.625 -0.6875 12.984375 0.828125 
Q 10.359375 2.34375 9.28125 4.8125 
Q 8.203125 7.28125 8.203125 15.1875 
L 8.203125 45.015625 
L 1.765625 45.015625 
L 1.765625 51.859375 
L 8.203125 51.859375 
L 8.203125 64.703125 
L 16.9375 69.96875 
L 16.9375 51.859375 
L 25.78125 51.859375 
L 25.78125 45.015625 
L 16.9375 45.015625 
L 16.9375 14.703125 
Q 16.9375 10.9375 17.40625 9.859375 
Q 17.875 8.796875 18.921875 8.15625 
Q 19.96875 7.515625 21.921875 7.515625 
Q 23.390625 7.515625 25.78125 7.859375 
z
" id="ArialMT-116"/>
      <path d="M 6.640625 61.46875 
L 6.640625 71.578125 
L 15.4375 71.578125 
L 15.4375 61.46875 
z
M 6.640625 0 
L 6.640625 51.859375 
L 15.4375 51.859375 
L 15.4375 0 
z
" id="ArialMT-105"/>
      <path d="M 6.59375 0 
L 6.59375 51.859375 
L 14.5 51.859375 
L 14.5 44.484375 
Q 20.21875 53.03125 31 53.03125 
Q 35.6875 53.03125 39.625 51.34375 
Q 43.5625 49.65625 45.515625 46.921875 
Q 47.46875 44.1875 48.25 40.4375 
Q 48.734375 37.984375 48.734375 31.890625 
L 48.734375 0 
L 39.9375 0 
L 39.9375 31.546875 
Q 39.9375 36.921875 38.90625 39.578125 
Q 37.890625 42.234375 35.28125 43.8125 
Q 32.671875 45.40625 29.15625 45.40625 
Q 23.53125 45.40625 19.453125 41.84375 
Q 15.375 38.28125 15.375 28.328125 
L 15.375 0 
z
" id="ArialMT-110"/>
     </defs>
     <g style="fill:#262626;" transform="translate(471.244375 693.129687)scale(0.24 -0.24)">
      <use xlink:href="#ArialMT-65"/>
      <use x="64.949219" xlink:href="#ArialMT-118"/>
      <use x="114.949219" xlink:href="#ArialMT-101"/>
      <use x="170.564453" xlink:href="#ArialMT-114"/>
      <use x="203.865234" xlink:href="#ArialMT-97"/>
      <use x="259.480469" xlink:href="#ArialMT-103"/>
      <use x="315.095703" xlink:href="#ArialMT-101"/>
      <use x="370.710938" xlink:href="#ArialMT-32"/>
      <use x="398.494141" xlink:href="#ArialMT-82"/>
      <use x="470.710938" xlink:href="#ArialMT-97"/>
      <use x="526.326172" xlink:href="#ArialMT-116"/>
      <use x="554.109375" xlink:href="#ArialMT-105"/>
      <use x="576.326172" xlink:href="#ArialMT-110"/>
      <use x="631.941406" xlink:href="#ArialMT-103"/>
     </g>
    </g>
   </g>
   <g id="matplotlib.axis_2">
    <g id="ytick_1">
     <g id="line2d_7">
      <path clip-path="url(#pc89d34f2ce)" d="M 73.22875 587.624773 
L 1034.26375 587.624773 
" style="fill:none;stroke:#ffffff;stroke-linecap:round;"/>
     </g>
     <g id="text_8">
      <!-- 0.0 -->
      <defs>
       <path d="M 4.15625 35.296875 
Q 4.15625 48 6.765625 55.734375 
Q 9.375 63.484375 14.515625 67.671875 
Q 19.671875 71.875 27.484375 71.875 
Q 33.25 71.875 37.59375 69.546875 
Q 41.9375 67.234375 44.765625 62.859375 
Q 47.609375 58.5 49.21875 52.21875 
Q 50.828125 45.953125 50.828125 35.296875 
Q 50.828125 22.703125 48.234375 14.96875 
Q 45.65625 7.234375 40.5 3 
Q 35.359375 -1.21875 27.484375 -1.21875 
Q 17.140625 -1.21875 11.234375 6.203125 
Q 4.15625 15.140625 4.15625 35.296875 
z
M 13.1875 35.296875 
Q 13.1875 17.671875 17.3125 11.828125 
Q 21.4375 6 27.484375 6 
Q 33.546875 6 37.671875 11.859375 
Q 41.796875 17.71875 41.796875 35.296875 
Q 41.796875 52.984375 37.671875 58.78125 
Q 33.546875 64.59375 27.390625 64.59375 
Q 21.34375 64.59375 17.71875 59.46875 
Q 13.1875 52.9375 13.1875 35.296875 
z
" id="ArialMT-48"/>
       <path d="M 9.078125 0 
L 9.078125 10.015625 
L 19.09375 10.015625 
L 19.09375 0 
z
" id="ArialMT-46"/>
      </defs>
      <g style="fill:#262626;" transform="translate(33.14875 595.498367)scale(0.22 -0.22)">
       <use xlink:href="#ArialMT-48"/>
       <use x="55.615234" xlink:href="#ArialMT-46"/>
       <use x="83.398438" xlink:href="#ArialMT-48"/>
      </g>
     </g>
    </g>
    <g id="ytick_2">
     <g id="line2d_8">
      <path clip-path="url(#pc89d34f2ce)" d="M 73.22875 512.464866 
L 1034.26375 512.464866 
" style="fill:none;stroke:#ffffff;stroke-linecap:round;"/>
     </g>
     <g id="text_9">
      <!-- 0.1 -->
      <defs>
       <path d="M 37.25 0 
L 28.46875 0 
L 28.46875 56 
Q 25.296875 52.984375 20.140625 49.953125 
Q 14.984375 46.921875 10.890625 45.40625 
L 10.890625 53.90625 
Q 18.265625 57.375 23.78125 62.296875 
Q 29.296875 67.234375 31.59375 71.875 
L 37.25 71.875 
z
" id="ArialMT-49"/>
      </defs>
      <g style="fill:#262626;" transform="translate(33.14875 520.33846)scale(0.22 -0.22)">
       <use xlink:href="#ArialMT-48"/>
       <use x="55.615234" xlink:href="#ArialMT-46"/>
       <use x="83.398438" xlink:href="#ArialMT-49"/>
      </g>
     </g>
    </g>
    <g id="ytick_3">
     <g id="line2d_9">
      <path clip-path="url(#pc89d34f2ce)" d="M 73.22875 437.30496 
L 1034.26375 437.30496 
" style="fill:none;stroke:#ffffff;stroke-linecap:round;"/>
     </g>
     <g id="text_10">
      <!-- 0.2 -->
      <defs>
       <path d="M 50.34375 8.453125 
L 50.34375 0 
L 3.03125 0 
Q 2.9375 3.171875 4.046875 6.109375 
Q 5.859375 10.9375 9.828125 15.625 
Q 13.8125 20.3125 21.34375 26.46875 
Q 33.015625 36.03125 37.109375 41.625 
Q 41.21875 47.21875 41.21875 52.203125 
Q 41.21875 57.421875 37.46875 61 
Q 33.734375 64.59375 27.734375 64.59375 
Q 21.390625 64.59375 17.578125 60.78125 
Q 13.765625 56.984375 13.71875 50.25 
L 4.6875 51.171875 
Q 5.609375 61.28125 11.65625 66.578125 
Q 17.71875 71.875 27.9375 71.875 
Q 38.234375 71.875 44.234375 66.15625 
Q 50.25 60.453125 50.25 52 
Q 50.25 47.703125 48.484375 43.546875 
Q 46.734375 39.40625 42.65625 34.8125 
Q 38.578125 30.21875 29.109375 22.21875 
Q 21.1875 15.578125 18.9375 13.203125 
Q 16.703125 10.84375 15.234375 8.453125 
z
" id="ArialMT-50"/>
      </defs>
      <g style="fill:#262626;" transform="translate(33.14875 445.178553)scale(0.22 -0.22)">
       <use xlink:href="#ArialMT-48"/>
       <use x="55.615234" xlink:href="#ArialMT-46"/>
       <use x="83.398438" xlink:href="#ArialMT-50"/>
      </g>
     </g>
    </g>
    <g id="ytick_4">
     <g id="line2d_10">
      <path clip-path="url(#pc89d34f2ce)" d="M 73.22875 362.145053 
L 1034.26375 362.145053 
" style="fill:none;stroke:#ffffff;stroke-linecap:round;"/>
     </g>
     <g id="text_11">
      <!-- 0.3 -->
      <g style="fill:#262626;" transform="translate(33.14875 370.018647)scale(0.22 -0.22)">
       <use xlink:href="#ArialMT-48"/>
       <use x="55.615234" xlink:href="#ArialMT-46"/>
       <use x="83.398438" xlink:href="#ArialMT-51"/>
      </g>
     </g>
    </g>
    <g id="ytick_5">
     <g id="line2d_11">
      <path clip-path="url(#pc89d34f2ce)" d="M 73.22875 286.985146 
L 1034.26375 286.985146 
" style="fill:none;stroke:#ffffff;stroke-linecap:round;"/>
     </g>
     <g id="text_12">
      <!-- 0.4 -->
      <g style="fill:#262626;" transform="translate(33.14875 294.85874)scale(0.22 -0.22)">
       <use xlink:href="#ArialMT-48"/>
       <use x="55.615234" xlink:href="#ArialMT-46"/>
       <use x="83.398438" xlink:href="#ArialMT-52"/>
      </g>
     </g>
    </g>
    <g id="ytick_6">
     <g id="line2d_12">
      <path clip-path="url(#pc89d34f2ce)" d="M 73.22875 211.82524 
L 1034.26375 211.82524 
" style="fill:none;stroke:#ffffff;stroke-linecap:round;"/>
     </g>
     <g id="text_13">
      <!-- 0.5 -->
      <g style="fill:#262626;" transform="translate(33.14875 219.698834)scale(0.22 -0.22)">
       <use xlink:href="#ArialMT-48"/>
       <use x="55.615234" xlink:href="#ArialMT-46"/>
       <use x="83.398438" xlink:href="#ArialMT-53"/>
      </g>
     </g>
    </g>
    <g id="ytick_7">
     <g id="line2d_13">
      <path clip-path="url(#pc89d34f2ce)" d="M 73.22875 136.665333 
L 1034.26375 136.665333 
" style="fill:none;stroke:#ffffff;stroke-linecap:round;"/>
     </g>
     <g id="text_14">
      <!-- 0.6 -->
      <g style="fill:#262626;" transform="translate(33.14875 144.538927)scale(0.22 -0.22)">
       <use xlink:href="#ArialMT-48"/>
       <use x="55.615234" xlink:href="#ArialMT-46"/>
       <use x="83.398438" xlink:href="#ArialMT-54"/>
      </g>
     </g>
    </g>
    <g id="ytick_8">
     <g id="line2d_14">
      <path clip-path="url(#pc89d34f2ce)" d="M 73.22875 61.505427 
L 1034.26375 61.505427 
" style="fill:none;stroke:#ffffff;stroke-linecap:round;"/>
     </g>
     <g id="text_15">
      <!-- 0.7 -->
      <g style="fill:#262626;" transform="translate(33.14875 69.37902)scale(0.22 -0.22)">
       <use xlink:href="#ArialMT-48"/>
       <use x="55.615234" xlink:href="#ArialMT-46"/>
       <use x="83.398438" xlink:href="#ArialMT-55"/>
      </g>
     </g>
    </g>
    <g id="text_16">
     <!-- Total Gross in $ Billions -->
     <defs>
      <path d="M 25.921875 0 
L 25.921875 63.140625 
L 2.34375 63.140625 
L 2.34375 71.578125 
L 59.078125 71.578125 
L 59.078125 63.140625 
L 35.40625 63.140625 
L 35.40625 0 
z
" id="ArialMT-84"/>
      <path d="M 3.328125 25.921875 
Q 3.328125 40.328125 11.328125 47.265625 
Q 18.015625 53.03125 27.640625 53.03125 
Q 38.328125 53.03125 45.109375 46.015625 
Q 51.90625 39.015625 51.90625 26.65625 
Q 51.90625 16.65625 48.90625 10.90625 
Q 45.90625 5.171875 40.15625 2 
Q 34.421875 -1.171875 27.640625 -1.171875 
Q 16.75 -1.171875 10.03125 5.8125 
Q 3.328125 12.796875 3.328125 25.921875 
z
M 12.359375 25.921875 
Q 12.359375 15.96875 16.703125 11.015625 
Q 21.046875 6.0625 27.640625 6.0625 
Q 34.1875 6.0625 38.53125 11.03125 
Q 42.875 16.015625 42.875 26.21875 
Q 42.875 35.84375 38.5 40.796875 
Q 34.125 45.75 27.640625 45.75 
Q 21.046875 45.75 16.703125 40.8125 
Q 12.359375 35.890625 12.359375 25.921875 
z
" id="ArialMT-111"/>
      <path d="M 6.390625 0 
L 6.390625 71.578125 
L 15.1875 71.578125 
L 15.1875 0 
z
" id="ArialMT-108"/>
      <path d="M 41.21875 28.078125 
L 41.21875 36.46875 
L 71.53125 36.53125 
L 71.53125 9.96875 
Q 64.546875 4.390625 57.125 1.578125 
Q 49.703125 -1.21875 41.890625 -1.21875 
Q 31.34375 -1.21875 22.71875 3.296875 
Q 14.109375 7.8125 9.71875 16.359375 
Q 5.328125 24.90625 5.328125 35.453125 
Q 5.328125 45.90625 9.6875 54.953125 
Q 14.0625 64.015625 22.265625 68.40625 
Q 30.46875 72.796875 41.15625 72.796875 
Q 48.921875 72.796875 55.1875 70.28125 
Q 61.46875 67.78125 65.03125 63.28125 
Q 68.609375 58.796875 70.453125 51.5625 
L 61.921875 49.21875 
Q 60.296875 54.6875 57.90625 57.8125 
Q 55.515625 60.9375 51.0625 62.8125 
Q 46.625 64.703125 41.21875 64.703125 
Q 34.71875 64.703125 29.984375 62.71875 
Q 25.25 60.75 22.34375 57.515625 
Q 19.4375 54.296875 17.828125 50.4375 
Q 15.09375 43.796875 15.09375 36.03125 
Q 15.09375 26.46875 18.390625 20.015625 
Q 21.6875 13.578125 27.984375 10.453125 
Q 34.28125 7.328125 41.359375 7.328125 
Q 47.515625 7.328125 53.375 9.6875 
Q 59.234375 12.0625 62.25 14.75 
L 62.25 28.078125 
z
" id="ArialMT-71"/>
      <path d="M 3.078125 15.484375 
L 11.765625 16.84375 
Q 12.5 11.625 15.84375 8.84375 
Q 19.1875 6.0625 25.203125 6.0625 
Q 31.25 6.0625 34.171875 8.515625 
Q 37.109375 10.984375 37.109375 14.3125 
Q 37.109375 17.28125 34.515625 19 
Q 32.71875 20.171875 25.53125 21.96875 
Q 15.875 24.421875 12.140625 26.203125 
Q 8.40625 27.984375 6.46875 31.125 
Q 4.546875 34.28125 4.546875 38.09375 
Q 4.546875 41.546875 6.125 44.5 
Q 7.71875 47.46875 10.453125 49.421875 
Q 12.5 50.921875 16.03125 51.96875 
Q 19.578125 53.03125 23.640625 53.03125 
Q 29.734375 53.03125 34.34375 51.265625 
Q 38.96875 49.515625 41.15625 46.5 
Q 43.359375 43.5 44.1875 38.484375 
L 35.59375 37.3125 
Q 35.015625 41.3125 32.203125 43.546875 
Q 29.390625 45.796875 24.265625 45.796875 
Q 18.21875 45.796875 15.625 43.796875 
Q 13.03125 41.796875 13.03125 39.109375 
Q 13.03125 37.40625 14.109375 36.03125 
Q 15.1875 34.625 17.484375 33.6875 
Q 18.796875 33.203125 25.25 31.453125 
Q 34.578125 28.953125 38.25 27.359375 
Q 41.9375 25.78125 44.03125 22.75 
Q 46.140625 19.734375 46.140625 15.234375 
Q 46.140625 10.84375 43.578125 6.953125 
Q 41.015625 3.078125 36.171875 0.953125 
Q 31.34375 -1.171875 25.25 -1.171875 
Q 15.140625 -1.171875 9.84375 3.03125 
Q 4.546875 7.234375 3.078125 15.484375 
z
" id="ArialMT-115"/>
      <path d="M 24.90625 -10.296875 
L 24.90625 -1.515625 
Q 18.3125 -0.6875 14.1875 1.4375 
Q 10.0625 3.5625 7.046875 8.296875 
Q 4.046875 13.03125 3.5625 19.875 
L 12.40625 21.53125 
Q 13.421875 14.453125 16.015625 11.140625 
Q 19.734375 6.453125 24.90625 5.90625 
L 24.90625 33.890625 
Q 19.484375 34.90625 13.8125 38.09375 
Q 9.625 40.4375 7.34375 44.578125 
Q 5.078125 48.734375 5.078125 54 
Q 5.078125 63.375 11.71875 69.1875 
Q 16.15625 73.09375 24.90625 73.96875 
L 24.90625 78.171875 
L 30.078125 78.171875 
L 30.078125 73.96875 
Q 37.75 73.25 42.234375 69.484375 
Q 48 64.703125 49.171875 56.34375 
L 40.09375 54.984375 
Q 39.3125 60.15625 36.84375 62.90625 
Q 34.375 65.671875 30.078125 66.546875 
L 30.078125 41.21875 
Q 36.71875 39.546875 38.875 38.625 
Q 42.96875 36.8125 45.546875 34.21875 
Q 48.140625 31.640625 49.53125 28.078125 
Q 50.921875 24.515625 50.921875 20.359375 
Q 50.921875 11.234375 45.109375 5.125 
Q 39.3125 -0.984375 30.078125 -1.421875 
L 30.078125 -10.296875 
z
M 24.90625 66.65625 
Q 19.78125 65.875 16.828125 62.546875 
Q 13.875 59.234375 13.875 54.6875 
Q 13.875 50.203125 16.375 47.171875 
Q 18.890625 44.140625 24.90625 42.328125 
z
M 30.078125 5.90625 
Q 35.203125 6.546875 38.546875 10.34375 
Q 41.890625 14.15625 41.890625 19.78125 
Q 41.890625 24.5625 39.515625 27.46875 
Q 37.15625 30.375 30.078125 32.671875 
z
" id="ArialMT-36"/>
      <path d="M 7.328125 0 
L 7.328125 71.578125 
L 34.1875 71.578125 
Q 42.390625 71.578125 47.34375 69.40625 
Q 52.296875 67.234375 55.09375 62.71875 
Q 57.90625 58.203125 57.90625 53.265625 
Q 57.90625 48.6875 55.421875 44.625 
Q 52.9375 40.578125 47.90625 38.09375 
Q 54.390625 36.1875 57.875 31.59375 
Q 61.375 27 61.375 20.75 
Q 61.375 15.71875 59.25 11.390625 
Q 57.125 7.078125 54 4.734375 
Q 50.875 2.390625 46.15625 1.1875 
Q 41.453125 0 34.625 0 
z
M 16.796875 41.5 
L 32.28125 41.5 
Q 38.578125 41.5 41.3125 42.328125 
Q 44.921875 43.40625 46.75 45.890625 
Q 48.578125 48.390625 48.578125 52.15625 
Q 48.578125 55.71875 46.875 58.421875 
Q 45.171875 61.140625 41.984375 62.140625 
Q 38.8125 63.140625 31.109375 63.140625 
L 16.796875 63.140625 
z
M 16.796875 8.453125 
L 34.625 8.453125 
Q 39.203125 8.453125 41.0625 8.796875 
Q 44.34375 9.375 46.53125 10.734375 
Q 48.734375 12.109375 50.140625 14.71875 
Q 51.5625 17.328125 51.5625 20.75 
Q 51.5625 24.75 49.515625 27.703125 
Q 47.46875 30.671875 43.828125 31.859375 
Q 40.1875 33.0625 33.34375 33.0625 
L 16.796875 33.0625 
z
" id="ArialMT-66"/>
     </defs>
     <g style="fill:#262626;" transform="translate(24.37875 461.2075)rotate(-90)scale(0.24 -0.24)">
      <use xlink:href="#ArialMT-84"/>
      <use x="49.958984" xlink:href="#ArialMT-111"/>
      <use x="105.574219" xlink:href="#ArialMT-116"/>
      <use x="133.357422" xlink:href="#ArialMT-97"/>
      <use x="188.972656" xlink:href="#ArialMT-108"/>
      <use x="211.189453" xlink:href="#ArialMT-32"/>
      <use x="238.972656" xlink:href="#ArialMT-71"/>
      <use x="316.755859" xlink:href="#ArialMT-114"/>
      <use x="350.056641" xlink:href="#ArialMT-111"/>
      <use x="405.671875" xlink:href="#ArialMT-115"/>
      <use x="455.671875" xlink:href="#ArialMT-115"/>
      <use x="505.671875" xlink:href="#ArialMT-32"/>
      <use x="533.455078" xlink:href="#ArialMT-105"/>
      <use x="555.671875" xlink:href="#ArialMT-110"/>
      <use x="611.287109" xlink:href="#ArialMT-32"/>
      <use x="639.070312" xlink:href="#ArialMT-36"/>
      <use x="694.685547" xlink:href="#ArialMT-32"/>
      <use x="722.46875" xlink:href="#ArialMT-66"/>
      <use x="789.167969" xlink:href="#ArialMT-105"/>
      <use x="811.384766" xlink:href="#ArialMT-108"/>
      <use x="833.601562" xlink:href="#ArialMT-108"/>
      <use x="855.818359" xlink:href="#ArialMT-105"/>
      <use x="878.035156" xlink:href="#ArialMT-111"/>
      <use x="933.650391" xlink:href="#ArialMT-110"/>
      <use x="989.265625" xlink:href="#ArialMT-115"/>
     </g>
    </g>
   </g>
   <g id="PathCollection_1">
    <defs>
     <path d="M 0 3 
C 0.795609 3 1.55874 2.683901 2.12132 2.12132 
C 2.683901 1.55874 3 0.795609 3 0 
C 3 -0.795609 2.683901 -1.55874 2.12132 -2.12132 
C 1.55874 -2.683901 0.795609 -3 0 -3 
C -0.795609 -3 -1.55874 -2.683901 -2.12132 -2.12132 
C -2.683901 -1.55874 -3 -0.795609 -3 0 
C -3 0.795609 -2.683901 1.55874 -2.12132 2.12132 
C -1.55874 2.683901 -0.795609 3 0 3 
z
" id="m9c67e497b1" style="stroke:#001c7f;stroke-opacity:0.8;"/>
    </defs>
    <g clip-path="url(#pc89d34f2ce)">
     <use style="fill:#001c7f;fill-opacity:0.8;stroke:#001c7f;stroke-opacity:0.8;" x="829.905733" xlink:href="#m9c67e497b1" y="58.473977"/>
     <use style="fill:#001c7f;fill-opacity:0.8;stroke:#001c7f;stroke-opacity:0.8;" x="1017.694181" xlink:href="#m9c67e497b1" y="96.266883"/>
     <use style="fill:#001c7f;fill-opacity:0.8;stroke:#001c7f;stroke-opacity:0.8;" x="774.553767" xlink:href="#m9c67e497b1" y="137.317264"/>
     <use style="fill:#001c7f;fill-opacity:0.8;stroke:#001c7f;stroke-opacity:0.8;" x="653.163664" xlink:href="#m9c67e497b1" y="178.679721"/>
     <use style="fill:#001c7f;fill-opacity:0.8;stroke:#001c7f;stroke-opacity:0.8;" x="901.707198" xlink:href="#m9c67e497b1" y="260.679179"/>
     <use style="fill:#001c7f;fill-opacity:0.8;stroke:#001c7f;stroke-opacity:0.8;" x="684.164793" xlink:href="#m9c67e497b1" y="264.803591"/>
     <use style="fill:#001c7f;fill-opacity:0.8;stroke:#001c7f;stroke-opacity:0.8;" x="802.289784" xlink:href="#m9c67e497b1" y="284.42971"/>
     <use style="fill:#001c7f;fill-opacity:0.8;stroke:#001c7f;stroke-opacity:0.8;" x="727.726724" xlink:href="#m9c67e497b1" y="292.697393"/>
     <use style="fill:#001c7f;fill-opacity:0.8;stroke:#001c7f;stroke-opacity:0.8;" x="655.23486" xlink:href="#m9c67e497b1" y="298.268527"/>
     <use style="fill:#001c7f;fill-opacity:0.8;stroke:#001c7f;stroke-opacity:0.8;" x="951.415905" xlink:href="#m9c67e497b1" y="309.157319"/>
     <use style="fill:#001c7f;fill-opacity:0.8;stroke:#001c7f;stroke-opacity:0.8;" x="709.279271" xlink:href="#m9c67e497b1" y="310.962834"/>
     <use style="fill:#001c7f;fill-opacity:0.8;stroke:#001c7f;stroke-opacity:0.8;" x="775.778474" xlink:href="#m9c67e497b1" y="313.997617"/>
     <use style="fill:#001c7f;fill-opacity:0.8;stroke:#001c7f;stroke-opacity:0.8;" x="769.150647" xlink:href="#m9c67e497b1" y="325.842818"/>
     <use style="fill:#001c7f;fill-opacity:0.8;stroke:#001c7f;stroke-opacity:0.8;" x="744.296293" xlink:href="#m9c67e497b1" y="340.19836"/>
     <use style="fill:#001c7f;fill-opacity:0.8;stroke:#001c7f;stroke-opacity:0.8;" x="693.251331" xlink:href="#m9c67e497b1" y="353.259326"/>
     <use style="fill:#001c7f;fill-opacity:0.8;stroke:#001c7f;stroke-opacity:0.8;" x="707.606533" xlink:href="#m9c67e497b1" y="360.026778"/>
     <use style="fill:#001c7f;fill-opacity:0.8;stroke:#001c7f;stroke-opacity:0.8;" x="576.943647" xlink:href="#m9c67e497b1" y="360.807207"/>
     <use style="fill:#001c7f;fill-opacity:0.8;stroke:#001c7f;stroke-opacity:0.8;" x="861.036438" xlink:href="#m9c67e497b1" y="367.127458"/>
     <use style="fill:#001c7f;fill-opacity:0.8;stroke:#001c7f;stroke-opacity:0.8;" x="752.581078" xlink:href="#m9c67e497b1" y="370.562963"/>
     <use style="fill:#001c7f;fill-opacity:0.8;stroke:#001c7f;stroke-opacity:0.8;" x="736.011509" xlink:href="#m9c67e497b1" y="387.273515"/>
     <use style="fill:#001c7f;fill-opacity:0.8;stroke:#001c7f;stroke-opacity:0.8;" x="752.581078" xlink:href="#m9c67e497b1" y="405.347468"/>
     <use style="fill:#001c7f;fill-opacity:0.8;stroke:#001c7f;stroke-opacity:0.8;" x="661.448448" xlink:href="#m9c67e497b1" y="414.867473"/>
     <use style="fill:#001c7f;fill-opacity:0.8;stroke:#001c7f;stroke-opacity:0.8;" x="835.428922" xlink:href="#m9c67e497b1" y="429.07495"/>
     <use style="fill:#001c7f;fill-opacity:0.8;stroke:#001c7f;stroke-opacity:0.8;" x="591.61955" xlink:href="#m9c67e497b1" y="430.991527"/>
     <use style="fill:#001c7f;fill-opacity:0.8;stroke:#001c7f;stroke-opacity:0.8;" x="802.289784" xlink:href="#m9c67e497b1" y="431.981947"/>
     <use style="fill:#001c7f;fill-opacity:0.8;stroke:#001c7f;stroke-opacity:0.8;" x="959.70069" xlink:href="#m9c67e497b1" y="435.313222"/>
     <use style="fill:#001c7f;fill-opacity:0.8;stroke:#001c7f;stroke-opacity:0.8;" x="487.467974" xlink:href="#m9c67e497b1" y="439.16419"/>
     <use style="fill:#001c7f;fill-opacity:0.8;stroke:#001c7f;stroke-opacity:0.8;" x="697.349181" xlink:href="#m9c67e497b1" y="440.580579"/>
     <use style="fill:#001c7f;fill-opacity:0.8;stroke:#001c7f;stroke-opacity:0.8;" x="606.768871" xlink:href="#m9c67e497b1" y="442.806665"/>
     <use style="fill:#001c7f;fill-opacity:0.8;stroke:#001c7f;stroke-opacity:0.8;" x="636.594095" xlink:href="#m9c67e497b1" y="448.109196"/>
     <use style="fill:#001c7f;fill-opacity:0.8;stroke:#001c7f;stroke-opacity:0.8;" x="638.961176" xlink:href="#m9c67e497b1" y="449.598973"/>
     <use style="fill:#001c7f;fill-opacity:0.8;stroke:#001c7f;stroke-opacity:0.8;" x="785.720216" xlink:href="#m9c67e497b1" y="454.892378"/>
     <use style="fill:#001c7f;fill-opacity:0.8;stroke:#001c7f;stroke-opacity:0.8;" x="752.581078" xlink:href="#m9c67e497b1" y="466.531426"/>
     <use style="fill:#001c7f;fill-opacity:0.8;stroke:#001c7f;stroke-opacity:0.8;" x="653.163664" xlink:href="#m9c67e497b1" y="468.783295"/>
     <use style="fill:#001c7f;fill-opacity:0.8;stroke:#001c7f;stroke-opacity:0.8;" x="708.39556" xlink:href="#m9c67e497b1" y="469.129718"/>
     <use style="fill:#001c7f;fill-opacity:0.8;stroke:#001c7f;stroke-opacity:0.8;" x="650.983457" xlink:href="#m9c67e497b1" y="481.608034"/>
     <use style="fill:#001c7f;fill-opacity:0.8;stroke:#001c7f;stroke-opacity:0.8;" x="868.56806" xlink:href="#m9c67e497b1" y="481.649304"/>
     <use style="fill:#001c7f;fill-opacity:0.8;stroke:#001c7f;stroke-opacity:0.8;" x="667.366151" xlink:href="#m9c67e497b1" y="485.952614"/>
     <use style="fill:#001c7f;fill-opacity:0.8;stroke:#001c7f;stroke-opacity:0.8;" x="835.428922" xlink:href="#m9c67e497b1" y="486.309219"/>
     <use style="fill:#001c7f;fill-opacity:0.8;stroke:#001c7f;stroke-opacity:0.8;" x="719.44194" xlink:href="#m9c67e497b1" y="489.494496"/>
     <use style="fill:#001c7f;fill-opacity:0.8;stroke:#001c7f;stroke-opacity:0.8;" x="796.766595" xlink:href="#m9c67e497b1" y="489.780003"/>
     <use style="fill:#001c7f;fill-opacity:0.8;stroke:#001c7f;stroke-opacity:0.8;" x="818.859353" xlink:href="#m9c67e497b1" y="491.495252"/>
     <use style="fill:#001c7f;fill-opacity:0.8;stroke:#001c7f;stroke-opacity:0.8;" x="644.878879" xlink:href="#m9c67e497b1" y="498.448922"/>
     <use style="fill:#001c7f;fill-opacity:0.8;stroke:#001c7f;stroke-opacity:0.8;" x="692.51639" xlink:href="#m9c67e497b1" y="498.451217"/>
     <use style="fill:#001c7f;fill-opacity:0.8;stroke:#001c7f;stroke-opacity:0.8;" x="785.720216" xlink:href="#m9c67e497b1" y="499.687682"/>
     <use style="fill:#001c7f;fill-opacity:0.8;stroke:#001c7f;stroke-opacity:0.8;" x="747.846915" xlink:href="#m9c67e497b1" y="501.246198"/>
     <use style="fill:#001c7f;fill-opacity:0.8;stroke:#001c7f;stroke-opacity:0.8;" x="809.821407" xlink:href="#m9c67e497b1" y="501.77242"/>
     <use style="fill:#001c7f;fill-opacity:0.8;stroke:#001c7f;stroke-opacity:0.8;" x="630.221184" xlink:href="#m9c67e497b1" y="502.636355"/>
     <use style="fill:#001c7f;fill-opacity:0.8;stroke:#001c7f;stroke-opacity:0.8;" x="868.56806" xlink:href="#m9c67e497b1" y="509.185639"/>
     <use style="fill:#001c7f;fill-opacity:0.8;stroke:#001c7f;stroke-opacity:0.8;" x="668.076276" xlink:href="#m9c67e497b1" y="509.208112"/>
     <use style="fill:#001c7f;fill-opacity:0.8;stroke:#001c7f;stroke-opacity:0.8;" x="620.024526" xlink:href="#m9c67e497b1" y="510.797819"/>
     <use style="fill:#001c7f;fill-opacity:0.8;stroke:#001c7f;stroke-opacity:0.8;" x="556.256791" xlink:href="#m9c67e497b1" y="512.309581"/>
     <use style="fill:#001c7f;fill-opacity:0.8;stroke:#001c7f;stroke-opacity:0.8;" x="715.618193" xlink:href="#m9c67e497b1" y="513.009137"/>
     <use style="fill:#001c7f;fill-opacity:0.8;stroke:#001c7f;stroke-opacity:0.8;" x="711.393863" xlink:href="#m9c67e497b1" y="514.905373"/>
     <use style="fill:#001c7f;fill-opacity:0.8;stroke:#001c7f;stroke-opacity:0.8;" x="760.865862" xlink:href="#m9c67e497b1" y="514.907563"/>
     <use style="fill:#001c7f;fill-opacity:0.8;stroke:#001c7f;stroke-opacity:0.8;" x="653.163664" xlink:href="#m9c67e497b1" y="515.884892"/>
     <use style="fill:#001c7f;fill-opacity:0.8;stroke:#001c7f;stroke-opacity:0.8;" x="612.923282" xlink:href="#m9c67e497b1" y="516.359159"/>
     <use style="fill:#001c7f;fill-opacity:0.8;stroke:#001c7f;stroke-opacity:0.8;" x="823.001746" xlink:href="#m9c67e497b1" y="518.701447"/>
     <use style="fill:#001c7f;fill-opacity:0.8;stroke:#001c7f;stroke-opacity:0.8;" x="673.047147" xlink:href="#m9c67e497b1" y="518.942598"/>
     <use style="fill:#001c7f;fill-opacity:0.8;stroke:#001c7f;stroke-opacity:0.8;" x="702.872371" xlink:href="#m9c67e497b1" y="519.003778"/>
     <use style="fill:#001c7f;fill-opacity:0.8;stroke:#001c7f;stroke-opacity:0.8;" x="744.296293" xlink:href="#m9c67e497b1" y="520.131177"/>
     <use style="fill:#001c7f;fill-opacity:0.8;stroke:#001c7f;stroke-opacity:0.8;" x="822.54148" xlink:href="#m9c67e497b1" y="520.240743"/>
     <use style="fill:#001c7f;fill-opacity:0.8;stroke:#001c7f;stroke-opacity:0.8;" x="653.163664" xlink:href="#m9c67e497b1" y="520.649605"/>
     <use style="fill:#001c7f;fill-opacity:0.8;stroke:#001c7f;stroke-opacity:0.8;" x="752.581078" xlink:href="#m9c67e497b1" y="520.665263"/>
     <use style="fill:#001c7f;fill-opacity:0.8;stroke:#001c7f;stroke-opacity:0.8;" x="603.454957" xlink:href="#m9c67e497b1" y="521.638133"/>
     <use style="fill:#001c7f;fill-opacity:0.8;stroke:#001c7f;stroke-opacity:0.8;" x="653.163664" xlink:href="#m9c67e497b1" y="522.085334"/>
     <use style="fill:#001c7f;fill-opacity:0.8;stroke:#001c7f;stroke-opacity:0.8;" x="620.024526" xlink:href="#m9c67e497b1" y="523.024833"/>
     <use style="fill:#001c7f;fill-opacity:0.8;stroke:#001c7f;stroke-opacity:0.8;" x="470.898405" xlink:href="#m9c67e497b1" y="524.090601"/>
     <use style="fill:#001c7f;fill-opacity:0.8;stroke:#001c7f;stroke-opacity:0.8;" x="683.541207" xlink:href="#m9c67e497b1" y="524.828546"/>
     <use style="fill:#001c7f;fill-opacity:0.8;stroke:#001c7f;stroke-opacity:0.8;" x="634.108659" xlink:href="#m9c67e497b1" y="526.847806"/>
     <use style="fill:#001c7f;fill-opacity:0.8;stroke:#001c7f;stroke-opacity:0.8;" x="446.044052" xlink:href="#m9c67e497b1" y="526.933148"/>
     <use style="fill:#001c7f;fill-opacity:0.8;stroke:#001c7f;stroke-opacity:0.8;" x="635.213297" xlink:href="#m9c67e497b1" y="528.117011"/>
     <use style="fill:#001c7f;fill-opacity:0.8;stroke:#001c7f;stroke-opacity:0.8;" x="769.150647" xlink:href="#m9c67e497b1" y="528.323606"/>
     <use style="fill:#001c7f;fill-opacity:0.8;stroke:#001c7f;stroke-opacity:0.8;" x="454.328836" xlink:href="#m9c67e497b1" y="528.361186"/>
     <use style="fill:#001c7f;fill-opacity:0.8;stroke:#001c7f;stroke-opacity:0.8;" x="636.594095" xlink:href="#m9c67e497b1" y="529.676485"/>
     <use style="fill:#001c7f;fill-opacity:0.8;stroke:#001c7f;stroke-opacity:0.8;" x="628.30931" xlink:href="#m9c67e497b1" y="529.904163"/>
     <use style="fill:#001c7f;fill-opacity:0.8;stroke:#001c7f;stroke-opacity:0.8;" x="769.150647" xlink:href="#m9c67e497b1" y="530.524852"/>
     <use style="fill:#001c7f;fill-opacity:0.8;stroke:#001c7f;stroke-opacity:0.8;" x="676.36106" xlink:href="#m9c67e497b1" y="531.084801"/>
     <use style="fill:#001c7f;fill-opacity:0.8;stroke:#001c7f;stroke-opacity:0.8;" x="806.432177" xlink:href="#m9c67e497b1" y="531.102644"/>
     <use style="fill:#001c7f;fill-opacity:0.8;stroke:#001c7f;stroke-opacity:0.8;" x="614.501336" xlink:href="#m9c67e497b1" y="531.95482"/>
     <use style="fill:#001c7f;fill-opacity:0.8;stroke:#001c7f;stroke-opacity:0.8;" x="702.872371" xlink:href="#m9c67e497b1" y="532.682881"/>
     <use style="fill:#001c7f;fill-opacity:0.8;stroke:#001c7f;stroke-opacity:0.8;" x="769.150647" xlink:href="#m9c67e497b1" y="533.058715"/>
     <use style="fill:#001c7f;fill-opacity:0.8;stroke:#001c7f;stroke-opacity:0.8;" x="659.081367" xlink:href="#m9c67e497b1" y="536.571499"/>
     <use style="fill:#001c7f;fill-opacity:0.8;stroke:#001c7f;stroke-opacity:0.8;" x="540.858807" xlink:href="#m9c67e497b1" y="536.783271"/>
     <use style="fill:#001c7f;fill-opacity:0.8;stroke:#001c7f;stroke-opacity:0.8;" x="575.839009" xlink:href="#m9c67e497b1" y="536.917891"/>
     <use style="fill:#001c7f;fill-opacity:0.8;stroke:#001c7f;stroke-opacity:0.8;" x="777.871472" xlink:href="#m9c67e497b1" y="537.408256"/>
     <use style="fill:#001c7f;fill-opacity:0.8;stroke:#001c7f;stroke-opacity:0.8;" x="814.716961" xlink:href="#m9c67e497b1" y="537.539573"/>
     <use style="fill:#001c7f;fill-opacity:0.8;stroke:#001c7f;stroke-opacity:0.8;" x="730.488319" xlink:href="#m9c67e497b1" y="540.340423"/>
     <use style="fill:#001c7f;fill-opacity:0.8;stroke:#001c7f;stroke-opacity:0.8;" x="783.353134" xlink:href="#m9c67e497b1" y="541.314427"/>
     <use style="fill:#001c7f;fill-opacity:0.8;stroke:#001c7f;stroke-opacity:0.8;" x="520.607112" xlink:href="#m9c67e497b1" y="542.83569"/>
     <use style="fill:#001c7f;fill-opacity:0.8;stroke:#001c7f;stroke-opacity:0.8;" x="843.713707" xlink:href="#m9c67e497b1" y="543.234205"/>
     <use style="fill:#001c7f;fill-opacity:0.8;stroke:#001c7f;stroke-opacity:0.8;" x="653.163664" xlink:href="#m9c67e497b1" y="543.318008"/>
     <use style="fill:#001c7f;fill-opacity:0.8;stroke:#001c7f;stroke-opacity:0.8;" x="799.922703" xlink:href="#m9c67e497b1" y="543.444001"/>
     <use style="fill:#001c7f;fill-opacity:0.8;stroke:#001c7f;stroke-opacity:0.8;" x="554.359938" xlink:href="#m9c67e497b1" y="544.356267"/>
     <use style="fill:#001c7f;fill-opacity:0.8;stroke:#001c7f;stroke-opacity:0.8;" x="590.031509" xlink:href="#m9c67e497b1" y="545.371104"/>
     <use style="fill:#001c7f;fill-opacity:0.8;stroke:#001c7f;stroke-opacity:0.8;" x="661.448448" xlink:href="#m9c67e497b1" y="545.895742"/>
     <use style="fill:#001c7f;fill-opacity:0.8;stroke:#001c7f;stroke-opacity:0.8;" x="675.256422" xlink:href="#m9c67e497b1" y="547.413772"/>
     <use style="fill:#001c7f;fill-opacity:0.8;stroke:#001c7f;stroke-opacity:0.8;" x="771.359922" xlink:href="#m9c67e497b1" y="547.619895"/>
     <use style="fill:#001c7f;fill-opacity:0.8;stroke:#001c7f;stroke-opacity:0.8;" x="798.147392" xlink:href="#m9c67e497b1" y="548.910469"/>
     <use style="fill:#001c7f;fill-opacity:0.8;stroke:#001c7f;stroke-opacity:0.8;" x="644.496505" xlink:href="#m9c67e497b1" y="550.359914"/>
     <use style="fill:#001c7f;fill-opacity:0.8;stroke:#001c7f;stroke-opacity:0.8;" x="768.278564" xlink:href="#m9c67e497b1" y="551.533848"/>
     <use style="fill:#001c7f;fill-opacity:0.8;stroke:#001c7f;stroke-opacity:0.8;" x="885.137629" xlink:href="#m9c67e497b1" y="551.848657"/>
     <use style="fill:#001c7f;fill-opacity:0.8;stroke:#001c7f;stroke-opacity:0.8;" x="769.150647" xlink:href="#m9c67e497b1" y="552.186877"/>
     <use style="fill:#001c7f;fill-opacity:0.8;stroke:#001c7f;stroke-opacity:0.8;" x="586.885388" xlink:href="#m9c67e497b1" y="552.525096"/>
     <use style="fill:#001c7f;fill-opacity:0.8;stroke:#001c7f;stroke-opacity:0.8;" x="524.289239" xlink:href="#m9c67e497b1" y="553.545041"/>
     <use style="fill:#001c7f;fill-opacity:0.8;stroke:#001c7f;stroke-opacity:0.8;" x="603.454957" xlink:href="#m9c67e497b1" y="553.577335"/>
     <use style="fill:#001c7f;fill-opacity:0.8;stroke:#001c7f;stroke-opacity:0.8;" x="603.454957" xlink:href="#m9c67e497b1" y="553.588609"/>
     <use style="fill:#001c7f;fill-opacity:0.8;stroke:#001c7f;stroke-opacity:0.8;" x="570.315819" xlink:href="#m9c67e497b1" y="554.328934"/>
     <use style="fill:#001c7f;fill-opacity:0.8;stroke:#001c7f;stroke-opacity:0.8;" x="860.283276" xlink:href="#m9c67e497b1" y="554.788575"/>
     <use style="fill:#001c7f;fill-opacity:0.8;stroke:#001c7f;stroke-opacity:0.8;" x="750.654384" xlink:href="#m9c67e497b1" y="555.114067"/>
     <use style="fill:#001c7f;fill-opacity:0.8;stroke:#001c7f;stroke-opacity:0.8;" x="754.087402" xlink:href="#m9c67e497b1" y="555.69582"/>
     <use style="fill:#001c7f;fill-opacity:0.8;stroke:#001c7f;stroke-opacity:0.8;" x="671.804429" xlink:href="#m9c67e497b1" y="555.760881"/>
     <use style="fill:#001c7f;fill-opacity:0.8;stroke:#001c7f;stroke-opacity:0.8;" x="934.846336" xlink:href="#m9c67e497b1" y="555.907292"/>
     <use style="fill:#001c7f;fill-opacity:0.8;stroke:#001c7f;stroke-opacity:0.8;" x="794.311844" xlink:href="#m9c67e497b1" y="556.305818"/>
     <use style="fill:#001c7f;fill-opacity:0.8;stroke:#001c7f;stroke-opacity:0.8;" x="868.56806" xlink:href="#m9c67e497b1" y="556.325933"/>
     <use style="fill:#001c7f;fill-opacity:0.8;stroke:#001c7f;stroke-opacity:0.8;" x="857.916195" xlink:href="#m9c67e497b1" y="557.393225"/>
     <use style="fill:#001c7f;fill-opacity:0.8;stroke:#001c7f;stroke-opacity:0.8;" x="719.44194" xlink:href="#m9c67e497b1" y="558.099707"/>
     <use style="fill:#001c7f;fill-opacity:0.8;stroke:#001c7f;stroke-opacity:0.8;" x="498.514353" xlink:href="#m9c67e497b1" y="558.554925"/>
     <use style="fill:#001c7f;fill-opacity:0.8;stroke:#001c7f;stroke-opacity:0.8;" x="686.302802" xlink:href="#m9c67e497b1" y="559.439808"/>
     <use style="fill:#001c7f;fill-opacity:0.8;stroke:#001c7f;stroke-opacity:0.8;" x="792.163937" xlink:href="#m9c67e497b1" y="560.736377"/>
     <use style="fill:#001c7f;fill-opacity:0.8;stroke:#001c7f;stroke-opacity:0.8;" x="744.296293" xlink:href="#m9c67e497b1" y="561.886996"/>
     <use style="fill:#001c7f;fill-opacity:0.8;stroke:#001c7f;stroke-opacity:0.8;" x="704.943567" xlink:href="#m9c67e497b1" y="562.022856"/>
     <use style="fill:#001c7f;fill-opacity:0.8;stroke:#001c7f;stroke-opacity:0.8;" x="674.831562" xlink:href="#m9c67e497b1" y="562.258582"/>
     <use style="fill:#001c7f;fill-opacity:0.8;stroke:#001c7f;stroke-opacity:0.8;" x="570.315819" xlink:href="#m9c67e497b1" y="563.078299"/>
     <use style="fill:#001c7f;fill-opacity:0.8;stroke:#001c7f;stroke-opacity:0.8;" x="614.501336" xlink:href="#m9c67e497b1" y="563.286993"/>
     <use style="fill:#001c7f;fill-opacity:0.8;stroke:#001c7f;stroke-opacity:0.8;" x="823.593516" xlink:href="#m9c67e497b1" y="563.339845"/>
     <use style="fill:#001c7f;fill-opacity:0.8;stroke:#001c7f;stroke-opacity:0.8;" x="669.733233" xlink:href="#m9c67e497b1" y="563.340532"/>
     <use style="fill:#001c7f;fill-opacity:0.8;stroke:#001c7f;stroke-opacity:0.8;" x="831.28653" xlink:href="#m9c67e497b1" y="563.513982"/>
     <use style="fill:#001c7f;fill-opacity:0.8;stroke:#001c7f;stroke-opacity:0.8;" x="748.30506" xlink:href="#m9c67e497b1" y="564.737621"/>
     <use style="fill:#001c7f;fill-opacity:0.8;stroke:#001c7f;stroke-opacity:0.8;" x="827.144138" xlink:href="#m9c67e497b1" y="564.825391"/>
     <use style="fill:#001c7f;fill-opacity:0.8;stroke:#001c7f;stroke-opacity:0.8;" x="752.581078" xlink:href="#m9c67e497b1" y="565.001641"/>
     <use style="fill:#001c7f;fill-opacity:0.8;stroke:#001c7f;stroke-opacity:0.8;" x="610.082784" xlink:href="#m9c67e497b1" y="565.097748"/>
     <use style="fill:#001c7f;fill-opacity:0.8;stroke:#001c7f;stroke-opacity:0.8;" x="725.241289" xlink:href="#m9c67e497b1" y="565.117936"/>
     <use style="fill:#001c7f;fill-opacity:0.8;stroke:#001c7f;stroke-opacity:0.8;" x="758.794666" xlink:href="#m9c67e497b1" y="565.884854"/>
     <use style="fill:#001c7f;fill-opacity:0.8;stroke:#001c7f;stroke-opacity:0.8;" x="812.94165" xlink:href="#m9c67e497b1" y="566.357968"/>
     <use style="fill:#001c7f;fill-opacity:0.8;stroke:#001c7f;stroke-opacity:0.8;" x="736.011509" xlink:href="#m9c67e497b1" y="566.951486"/>
     <use style="fill:#001c7f;fill-opacity:0.8;stroke:#001c7f;stroke-opacity:0.8;" x="984.555043" xlink:href="#m9c67e497b1" y="567.331598"/>
     <use style="fill:#001c7f;fill-opacity:0.8;stroke:#001c7f;stroke-opacity:0.8;" x="751.860662" xlink:href="#m9c67e497b1" y="567.548248"/>
     <use style="fill:#001c7f;fill-opacity:0.8;stroke:#001c7f;stroke-opacity:0.8;" x="553.74625" xlink:href="#m9c67e497b1" y="567.622091"/>
     <use style="fill:#001c7f;fill-opacity:0.8;stroke:#001c7f;stroke-opacity:0.8;" x="727.12052" xlink:href="#m9c67e497b1" y="568.010338"/>
     <use style="fill:#001c7f;fill-opacity:0.8;stroke:#001c7f;stroke-opacity:0.8;" x="690.315744" xlink:href="#m9c67e497b1" y="568.545029"/>
     <use style="fill:#001c7f;fill-opacity:0.8;stroke:#001c7f;stroke-opacity:0.8;" x="898.393284" xlink:href="#m9c67e497b1" y="568.568129"/>
     <use style="fill:#001c7f;fill-opacity:0.8;stroke:#001c7f;stroke-opacity:0.8;" x="696.244543" xlink:href="#m9c67e497b1" y="568.84147"/>
     <use style="fill:#001c7f;fill-opacity:0.8;stroke:#001c7f;stroke-opacity:0.8;" x="626.652353" xlink:href="#m9c67e497b1" y="569.16329"/>
     <use style="fill:#001c7f;fill-opacity:0.8;stroke:#001c7f;stroke-opacity:0.8;" x="722.454589" xlink:href="#m9c67e497b1" y="569.486617"/>
     <use style="fill:#001c7f;fill-opacity:0.8;stroke:#001c7f;stroke-opacity:0.8;" x="653.163664" xlink:href="#m9c67e497b1" y="569.491039"/>
     <use style="fill:#001c7f;fill-opacity:0.8;stroke:#001c7f;stroke-opacity:0.8;" x="666.419319" xlink:href="#m9c67e497b1" y="569.688913"/>
     <use style="fill:#001c7f;fill-opacity:0.8;stroke:#001c7f;stroke-opacity:0.8;" x="680.779612" xlink:href="#m9c67e497b1" y="569.848929"/>
     <use style="fill:#001c7f;fill-opacity:0.8;stroke:#001c7f;stroke-opacity:0.8;" x="754.254771" xlink:href="#m9c67e497b1" y="569.882411"/>
     <use style="fill:#001c7f;fill-opacity:0.8;stroke:#001c7f;stroke-opacity:0.8;" x="835.428922" xlink:href="#m9c67e497b1" y="570.488314"/>
     <use style="fill:#001c7f;fill-opacity:0.8;stroke:#001c7f;stroke-opacity:0.8;" x="708.39556" xlink:href="#m9c67e497b1" y="570.993639"/>
     <use style="fill:#001c7f;fill-opacity:0.8;stroke:#001c7f;stroke-opacity:0.8;" x="537.176681" xlink:href="#m9c67e497b1" y="571.552829"/>
     <use style="fill:#001c7f;fill-opacity:0.8;stroke:#001c7f;stroke-opacity:0.8;" x="689.064397" xlink:href="#m9c67e497b1" y="571.666922"/>
     <use style="fill:#001c7f;fill-opacity:0.8;stroke:#001c7f;stroke-opacity:0.8;" x="731.492535" xlink:href="#m9c67e497b1" y="571.810056"/>
     <use style="fill:#001c7f;fill-opacity:0.8;stroke:#001c7f;stroke-opacity:0.8;" x="769.150647" xlink:href="#m9c67e497b1" y="572.028591"/>
     <use style="fill:#001c7f;fill-opacity:0.8;stroke:#001c7f;stroke-opacity:0.8;" x="907.230388" xlink:href="#m9c67e497b1" y="572.123543"/>
     <use style="fill:#001c7f;fill-opacity:0.8;stroke:#001c7f;stroke-opacity:0.8;" x="731.869116" xlink:href="#m9c67e497b1" y="572.313103"/>
     <use style="fill:#001c7f;fill-opacity:0.8;stroke:#001c7f;stroke-opacity:0.8;" x="682.988888" xlink:href="#m9c67e497b1" y="572.46293"/>
     <use style="fill:#001c7f;fill-opacity:0.8;stroke:#001c7f;stroke-opacity:0.8;" x="553.74625" xlink:href="#m9c67e497b1" y="572.641984"/>
     <use style="fill:#001c7f;fill-opacity:0.8;stroke:#001c7f;stroke-opacity:0.8;" x="488.503572" xlink:href="#m9c67e497b1" y="573.488937"/>
     <use style="fill:#001c7f;fill-opacity:0.8;stroke:#001c7f;stroke-opacity:0.8;" x="586.885388" xlink:href="#m9c67e497b1" y="573.711735"/>
     <use style="fill:#001c7f;fill-opacity:0.8;stroke:#001c7f;stroke-opacity:0.8;" x="664.210043" xlink:href="#m9c67e497b1" y="573.780694"/>
     <use style="fill:#001c7f;fill-opacity:0.8;stroke:#001c7f;stroke-opacity:0.8;" x="696.244543" xlink:href="#m9c67e497b1" y="574.01847"/>
     <use style="fill:#001c7f;fill-opacity:0.8;stroke:#001c7f;stroke-opacity:0.8;" x="827.144138" xlink:href="#m9c67e497b1" y="574.06818"/>
     <use style="fill:#001c7f;fill-opacity:0.8;stroke:#001c7f;stroke-opacity:0.8;" x="1034.26375" xlink:href="#m9c67e497b1" y="574.09599"/>
     <use style="fill:#001c7f;fill-opacity:0.8;stroke:#001c7f;stroke-opacity:0.8;" x="658.686853" xlink:href="#m9c67e497b1" y="574.208354"/>
     <use style="fill:#001c7f;fill-opacity:0.8;stroke:#001c7f;stroke-opacity:0.8;" x="1001.124612" xlink:href="#m9c67e497b1" y="574.471789"/>
     <use style="fill:#001c7f;fill-opacity:0.8;stroke:#001c7f;stroke-opacity:0.8;" x="437.759267" xlink:href="#m9c67e497b1" y="574.922749"/>
     <use style="fill:#001c7f;fill-opacity:0.8;stroke:#001c7f;stroke-opacity:0.8;" x="573.629733" xlink:href="#m9c67e497b1" y="575.006026"/>
     <use style="fill:#001c7f;fill-opacity:0.8;stroke:#001c7f;stroke-opacity:0.8;" x="745.95325" xlink:href="#m9c67e497b1" y="575.252163"/>
     <use style="fill:#001c7f;fill-opacity:0.8;stroke:#001c7f;stroke-opacity:0.8;" x="615.882134" xlink:href="#m9c67e497b1" y="575.40954"/>
     <use style="fill:#001c7f;fill-opacity:0.8;stroke:#001c7f;stroke-opacity:0.8;" x="723.960913" xlink:href="#m9c67e497b1" y="575.443996"/>
     <use style="fill:#001c7f;fill-opacity:0.8;stroke:#001c7f;stroke-opacity:0.8;" x="354.911422" xlink:href="#m9c67e497b1" y="575.452626"/>
     <use style="fill:#001c7f;fill-opacity:0.8;stroke:#001c7f;stroke-opacity:0.8;" x="697.829458" xlink:href="#m9c67e497b1" y="575.976324"/>
     <use style="fill:#001c7f;fill-opacity:0.8;stroke:#001c7f;stroke-opacity:0.8;" x="676.36106" xlink:href="#m9c67e497b1" y="577.0149"/>
     <use style="fill:#001c7f;fill-opacity:0.8;stroke:#001c7f;stroke-opacity:0.8;" x="723.584332" xlink:href="#m9c67e497b1" y="577.131266"/>
     <use style="fill:#001c7f;fill-opacity:0.8;stroke:#001c7f;stroke-opacity:0.8;" x="684.796477" xlink:href="#m9c67e497b1" y="577.391212"/>
     <use style="fill:#001c7f;fill-opacity:0.8;stroke:#001c7f;stroke-opacity:0.8;" x="831.8783" xlink:href="#m9c67e497b1" y="577.493201"/>
     <use style="fill:#001c7f;fill-opacity:0.8;stroke:#001c7f;stroke-opacity:0.8;" x="780.197026" xlink:href="#m9c67e497b1" y="577.524747"/>
     <use style="fill:#001c7f;fill-opacity:0.8;stroke:#001c7f;stroke-opacity:0.8;" x="487.467974" xlink:href="#m9c67e497b1" y="577.803628"/>
     <use style="fill:#001c7f;fill-opacity:0.8;stroke:#001c7f;stroke-opacity:0.8;" x="711.157155" xlink:href="#m9c67e497b1" y="578.081719"/>
     <use style="fill:#001c7f;fill-opacity:0.8;stroke:#001c7f;stroke-opacity:0.8;" x="934.846336" xlink:href="#m9c67e497b1" y="578.845119"/>
     <use style="fill:#001c7f;fill-opacity:0.8;stroke:#001c7f;stroke-opacity:0.8;" x="702.872371" xlink:href="#m9c67e497b1" y="579.043015"/>
     <use style="fill:#001c7f;fill-opacity:0.8;stroke:#001c7f;stroke-opacity:0.8;" x="686.302802" xlink:href="#m9c67e497b1" y="579.282023"/>
     <use style="fill:#001c7f;fill-opacity:0.8;stroke:#001c7f;stroke-opacity:0.8;" x="824.382543" xlink:href="#m9c67e497b1" y="579.725467"/>
     <use style="fill:#001c7f;fill-opacity:0.8;stroke:#001c7f;stroke-opacity:0.8;" x="736.011509" xlink:href="#m9c67e497b1" y="580.130804"/>
     <use style="fill:#001c7f;fill-opacity:0.8;stroke:#001c7f;stroke-opacity:0.8;" x="636.594095" xlink:href="#m9c67e497b1" y="580.634901"/>
     <use style="fill:#001c7f;fill-opacity:0.8;stroke:#001c7f;stroke-opacity:0.8;" x="719.44194" xlink:href="#m9c67e497b1" y="581.25948"/>
     <use style="fill:#001c7f;fill-opacity:0.8;stroke:#001c7f;stroke-opacity:0.8;" x="809.391028" xlink:href="#m9c67e497b1" y="581.284369"/>
     <use style="fill:#001c7f;fill-opacity:0.8;stroke:#001c7f;stroke-opacity:0.8;" x="669.733233" xlink:href="#m9c67e497b1" y="581.325922"/>
     <use style="fill:#001c7f;fill-opacity:0.8;stroke:#001c7f;stroke-opacity:0.8;" x="763.022176" xlink:href="#m9c67e497b1" y="581.603484"/>
     <use style="fill:#001c7f;fill-opacity:0.8;stroke:#001c7f;stroke-opacity:0.8;" x="835.428922" xlink:href="#m9c67e497b1" y="581.61198"/>
     <use style="fill:#001c7f;fill-opacity:0.8;stroke:#001c7f;stroke-opacity:0.8;" x="760.865862" xlink:href="#m9c67e497b1" y="581.923762"/>
     <use style="fill:#001c7f;fill-opacity:0.8;stroke:#001c7f;stroke-opacity:0.8;" x="404.620129" xlink:href="#m9c67e497b1" y="582.035882"/>
     <use style="fill:#001c7f;fill-opacity:0.8;stroke:#001c7f;stroke-opacity:0.8;" x="719.44194" xlink:href="#m9c67e497b1" y="582.127026"/>
     <use style="fill:#001c7f;fill-opacity:0.8;stroke:#001c7f;stroke-opacity:0.8;" x="520.607112" xlink:href="#m9c67e497b1" y="582.213259"/>
     <use style="fill:#001c7f;fill-opacity:0.8;stroke:#001c7f;stroke-opacity:0.8;" x="778.897452" xlink:href="#m9c67e497b1" y="582.329607"/>
     <use style="fill:#001c7f;fill-opacity:0.8;stroke:#001c7f;stroke-opacity:0.8;" x="555.817446" xlink:href="#m9c67e497b1" y="582.473895"/>
     <use style="fill:#001c7f;fill-opacity:0.8;stroke:#001c7f;stroke-opacity:0.8;" x="611.739741" xlink:href="#m9c67e497b1" y="582.488232"/>
     <use style="fill:#001c7f;fill-opacity:0.8;stroke:#001c7f;stroke-opacity:0.8;" x="691.825991" xlink:href="#m9c67e497b1" y="582.510742"/>
     <use style="fill:#001c7f;fill-opacity:0.8;stroke:#001c7f;stroke-opacity:0.8;" x="750.509881" xlink:href="#m9c67e497b1" y="583.337257"/>
     <use style="fill:#001c7f;fill-opacity:0.8;stroke:#001c7f;stroke-opacity:0.8;" x="752.581078" xlink:href="#m9c67e497b1" y="583.49173"/>
     <use style="fill:#001c7f;fill-opacity:0.8;stroke:#001c7f;stroke-opacity:0.8;" x="967.985474" xlink:href="#m9c67e497b1" y="583.641298"/>
     <use style="fill:#001c7f;fill-opacity:0.8;stroke:#001c7f;stroke-opacity:0.8;" x="756.72347" xlink:href="#m9c67e497b1" y="583.812286"/>
     <use style="fill:#001c7f;fill-opacity:0.8;stroke:#001c7f;stroke-opacity:0.8;" x="740.530482" xlink:href="#m9c67e497b1" y="584.078742"/>
     <use style="fill:#001c7f;fill-opacity:0.8;stroke:#001c7f;stroke-opacity:0.8;" x="669.733233" xlink:href="#m9c67e497b1" y="584.389289"/>
     <use style="fill:#001c7f;fill-opacity:0.8;stroke:#001c7f;stroke-opacity:0.8;" x="702.872371" xlink:href="#m9c67e497b1" y="584.454115"/>
     <use style="fill:#001c7f;fill-opacity:0.8;stroke:#001c7f;stroke-opacity:0.8;" x="752.581078" xlink:href="#m9c67e497b1" y="584.591319"/>
     <use style="fill:#001c7f;fill-opacity:0.8;stroke:#001c7f;stroke-opacity:0.8;" x="719.44194" xlink:href="#m9c67e497b1" y="584.713078"/>
     <use style="fill:#001c7f;fill-opacity:0.8;stroke:#001c7f;stroke-opacity:0.8;" x="719.44194" xlink:href="#m9c67e497b1" y="584.768696"/>
     <use style="fill:#001c7f;fill-opacity:0.8;stroke:#001c7f;stroke-opacity:0.8;" x="702.872371" xlink:href="#m9c67e497b1" y="584.768696"/>
     <use style="fill:#001c7f;fill-opacity:0.8;stroke:#001c7f;stroke-opacity:0.8;" x="421.189698" xlink:href="#m9c67e497b1" y="584.80327"/>
     <use style="fill:#001c7f;fill-opacity:0.8;stroke:#001c7f;stroke-opacity:0.8;" x="835.428922" xlink:href="#m9c67e497b1" y="584.826269"/>
     <use style="fill:#001c7f;fill-opacity:0.8;stroke:#001c7f;stroke-opacity:0.8;" x="818.859353" xlink:href="#m9c67e497b1" y="585.037769"/>
     <use style="fill:#001c7f;fill-opacity:0.8;stroke:#001c7f;stroke-opacity:0.8;" x="885.137629" xlink:href="#m9c67e497b1" y="585.219656"/>
     <use style="fill:#001c7f;fill-opacity:0.8;stroke:#001c7f;stroke-opacity:0.8;" x="802.289784" xlink:href="#m9c67e497b1" y="585.219656"/>
     <use style="fill:#001c7f;fill-opacity:0.8;stroke:#001c7f;stroke-opacity:0.8;" x="702.872371" xlink:href="#m9c67e497b1" y="585.291058"/>
     <use style="fill:#001c7f;fill-opacity:0.8;stroke:#001c7f;stroke-opacity:0.8;" x="893.422414" xlink:href="#m9c67e497b1" y="585.366218"/>
     <use style="fill:#001c7f;fill-opacity:0.8;stroke:#001c7f;stroke-opacity:0.8;" x="838.699232" xlink:href="#m9c67e497b1" y="585.368137"/>
     <use style="fill:#001c7f;fill-opacity:0.8;stroke:#001c7f;stroke-opacity:0.8;" x="984.555043" xlink:href="#m9c67e497b1" y="585.368472"/>
     <use style="fill:#001c7f;fill-opacity:0.8;stroke:#001c7f;stroke-opacity:0.8;" x="835.428922" xlink:href="#m9c67e497b1" y="585.369976"/>
     <use style="fill:#001c7f;fill-opacity:0.8;stroke:#001c7f;stroke-opacity:0.8;" x="907.230388" xlink:href="#m9c67e497b1" y="585.40029"/>
     <use style="fill:#001c7f;fill-opacity:0.8;stroke:#001c7f;stroke-opacity:0.8;" x="901.707198" xlink:href="#m9c67e497b1" y="585.452376"/>
     <use style="fill:#001c7f;fill-opacity:0.8;stroke:#001c7f;stroke-opacity:0.8;" x="835.428922" xlink:href="#m9c67e497b1" y="585.699702"/>
     <use style="fill:#001c7f;fill-opacity:0.8;stroke:#001c7f;stroke-opacity:0.8;" x="553.74625" xlink:href="#m9c67e497b1" y="585.896095"/>
     <use style="fill:#001c7f;fill-opacity:0.8;stroke:#001c7f;stroke-opacity:0.8;" x="918.276767" xlink:href="#m9c67e497b1" y="585.917039"/>
     <use style="fill:#001c7f;fill-opacity:0.8;stroke:#001c7f;stroke-opacity:0.8;" x="835.428922" xlink:href="#m9c67e497b1" y="585.932923"/>
     <use style="fill:#001c7f;fill-opacity:0.8;stroke:#001c7f;stroke-opacity:0.8;" x="673.047147" xlink:href="#m9c67e497b1" y="585.954644"/>
     <use style="fill:#001c7f;fill-opacity:0.8;stroke:#001c7f;stroke-opacity:0.8;" x="620.024526" xlink:href="#m9c67e497b1" y="586.032285"/>
     <use style="fill:#001c7f;fill-opacity:0.8;stroke:#001c7f;stroke-opacity:0.8;" x="885.137629" xlink:href="#m9c67e497b1" y="586.061447"/>
     <use style="fill:#001c7f;fill-opacity:0.8;stroke:#001c7f;stroke-opacity:0.8;" x="885.137629" xlink:href="#m9c67e497b1" y="586.123078"/>
     <use style="fill:#001c7f;fill-opacity:0.8;stroke:#001c7f;stroke-opacity:0.8;" x="901.707198" xlink:href="#m9c67e497b1" y="586.149801"/>
     <use style="fill:#001c7f;fill-opacity:0.8;stroke:#001c7f;stroke-opacity:0.8;" x="675.256422" xlink:href="#m9c67e497b1" y="586.158152"/>
     <use style="fill:#001c7f;fill-opacity:0.8;stroke:#001c7f;stroke-opacity:0.8;" x="537.176681" xlink:href="#m9c67e497b1" y="586.271894"/>
     <use style="fill:#001c7f;fill-opacity:0.8;stroke:#001c7f;stroke-opacity:0.8;" x="777.435431" xlink:href="#m9c67e497b1" y="586.278283"/>
     <use style="fill:#001c7f;fill-opacity:0.8;stroke:#001c7f;stroke-opacity:0.8;" x="586.885388" xlink:href="#m9c67e497b1" y="586.496322"/>
     <use style="fill:#001c7f;fill-opacity:0.8;stroke:#001c7f;stroke-opacity:0.8;" x="620.024526" xlink:href="#m9c67e497b1" y="586.497374"/>
     <use style="fill:#001c7f;fill-opacity:0.8;stroke:#001c7f;stroke-opacity:0.8;" x="918.276767" xlink:href="#m9c67e497b1" y="586.497374"/>
     <use style="fill:#001c7f;fill-opacity:0.8;stroke:#001c7f;stroke-opacity:0.8;" x="763.627457" xlink:href="#m9c67e497b1" y="586.507145"/>
     <use style="fill:#001c7f;fill-opacity:0.8;stroke:#001c7f;stroke-opacity:0.8;" x="789.862608" xlink:href="#m9c67e497b1" y="586.611937"/>
     <use style="fill:#001c7f;fill-opacity:0.8;stroke:#001c7f;stroke-opacity:0.8;" x="879.61444" xlink:href="#m9c67e497b1" y="586.710929"/>
     <use style="fill:#001c7f;fill-opacity:0.8;stroke:#001c7f;stroke-opacity:0.8;" x="669.733233" xlink:href="#m9c67e497b1" y="586.798014"/>
     <use style="fill:#001c7f;fill-opacity:0.8;stroke:#001c7f;stroke-opacity:0.8;" x="669.733233" xlink:href="#m9c67e497b1" y="586.840504"/>
     <use style="fill:#001c7f;fill-opacity:0.8;stroke:#001c7f;stroke-opacity:0.8;" x="818.859353" xlink:href="#m9c67e497b1" y="586.985914"/>
     <use style="fill:#001c7f;fill-opacity:0.8;stroke:#001c7f;stroke-opacity:0.8;" x="719.44194" xlink:href="#m9c67e497b1" y="587.010716"/>
     <use style="fill:#001c7f;fill-opacity:0.8;stroke:#001c7f;stroke-opacity:0.8;" x="614.501336" xlink:href="#m9c67e497b1" y="587.07717"/>
     <use style="fill:#001c7f;fill-opacity:0.8;stroke:#001c7f;stroke-opacity:0.8;" x="719.44194" xlink:href="#m9c67e497b1" y="587.080953"/>
     <use style="fill:#001c7f;fill-opacity:0.8;stroke:#001c7f;stroke-opacity:0.8;" x="901.707198" xlink:href="#m9c67e497b1" y="587.163291"/>
     <use style="fill:#001c7f;fill-opacity:0.8;stroke:#001c7f;stroke-opacity:0.8;" x="586.885388" xlink:href="#m9c67e497b1" y="587.218909"/>
     <use style="fill:#001c7f;fill-opacity:0.8;stroke:#001c7f;stroke-opacity:0.8;" x="719.44194" xlink:href="#m9c67e497b1" y="587.282044"/>
     <use style="fill:#001c7f;fill-opacity:0.8;stroke:#001c7f;stroke-opacity:0.8;" x="840.527251" xlink:href="#m9c67e497b1" y="587.290294"/>
     <use style="fill:#001c7f;fill-opacity:0.8;stroke:#001c7f;stroke-opacity:0.8;" x="879.61444" xlink:href="#m9c67e497b1" y="587.338075"/>
     <use style="fill:#001c7f;fill-opacity:0.8;stroke:#001c7f;stroke-opacity:0.8;" x="586.885388" xlink:href="#m9c67e497b1" y="587.338414"/>
     <use style="fill:#001c7f;fill-opacity:0.8;stroke:#001c7f;stroke-opacity:0.8;" x="702.872371" xlink:href="#m9c67e497b1" y="587.383434"/>
     <use style="fill:#001c7f;fill-opacity:0.8;stroke:#001c7f;stroke-opacity:0.8;" x="1001.124612" xlink:href="#m9c67e497b1" y="587.391777"/>
     <use style="fill:#001c7f;fill-opacity:0.8;stroke:#001c7f;stroke-opacity:0.8;" x="885.137629" xlink:href="#m9c67e497b1" y="587.433115"/>
     <use style="fill:#001c7f;fill-opacity:0.8;stroke:#001c7f;stroke-opacity:0.8;" x="686.302802" xlink:href="#m9c67e497b1" y="587.433115"/>
     <use style="fill:#001c7f;fill-opacity:0.8;stroke:#001c7f;stroke-opacity:0.8;" x="785.720216" xlink:href="#m9c67e497b1" y="587.452657"/>
     <use style="fill:#001c7f;fill-opacity:0.8;stroke:#001c7f;stroke-opacity:0.8;" x="851.998491" xlink:href="#m9c67e497b1" y="587.456415"/>
     <use style="fill:#001c7f;fill-opacity:0.8;stroke:#001c7f;stroke-opacity:0.8;" x="918.276767" xlink:href="#m9c67e497b1" y="587.469943"/>
     <use style="fill:#001c7f;fill-opacity:0.8;stroke:#001c7f;stroke-opacity:0.8;" x="429.474483" xlink:href="#m9c67e497b1" y="587.485877"/>
     <use style="fill:#001c7f;fill-opacity:0.8;stroke:#001c7f;stroke-opacity:0.8;" x="404.620129" xlink:href="#m9c67e497b1" y="587.487982"/>
     <use style="fill:#001c7f;fill-opacity:0.8;stroke:#001c7f;stroke-opacity:0.8;" x="934.846336" xlink:href="#m9c67e497b1" y="587.495498"/>
     <use style="fill:#001c7f;fill-opacity:0.8;stroke:#001c7f;stroke-opacity:0.8;" x="73.22875" xlink:href="#m9c67e497b1" y="587.497753"/>
     <use style="fill:#001c7f;fill-opacity:0.8;stroke:#001c7f;stroke-opacity:0.8;" x="818.859353" xlink:href="#m9c67e497b1" y="587.513822"/>
     <use style="fill:#001c7f;fill-opacity:0.8;stroke:#001c7f;stroke-opacity:0.8;" x="851.998491" xlink:href="#m9c67e497b1" y="587.526651"/>
     <use style="fill:#001c7f;fill-opacity:0.8;stroke:#001c7f;stroke-opacity:0.8;" x="818.859353" xlink:href="#m9c67e497b1" y="587.532326"/>
     <use style="fill:#001c7f;fill-opacity:0.8;stroke:#001c7f;stroke-opacity:0.8;" x="785.720216" xlink:href="#m9c67e497b1" y="587.537587"/>
     <use style="fill:#001c7f;fill-opacity:0.8;stroke:#001c7f;stroke-opacity:0.8;" x="586.885388" xlink:href="#m9c67e497b1" y="587.540594"/>
     <use style="fill:#001c7f;fill-opacity:0.8;stroke:#001c7f;stroke-opacity:0.8;" x="752.581078" xlink:href="#m9c67e497b1" y="587.548861"/>
     <use style="fill:#001c7f;fill-opacity:0.8;stroke:#001c7f;stroke-opacity:0.8;" x="205.785302" xlink:href="#m9c67e497b1" y="587.549913"/>
     <use style="fill:#001c7f;fill-opacity:0.8;stroke:#001c7f;stroke-opacity:0.8;" x="752.581078" xlink:href="#m9c67e497b1" y="587.551492"/>
     <use style="fill:#001c7f;fill-opacity:0.8;stroke:#001c7f;stroke-opacity:0.8;" x="730.488319" xlink:href="#m9c67e497b1" y="587.556077"/>
     <use style="fill:#001c7f;fill-opacity:0.8;stroke:#001c7f;stroke-opacity:0.8;" x="785.720216" xlink:href="#m9c67e497b1" y="587.556828"/>
     <use style="fill:#001c7f;fill-opacity:0.8;stroke:#001c7f;stroke-opacity:0.8;" x="851.998491" xlink:href="#m9c67e497b1" y="587.558707"/>
     <use style="fill:#001c7f;fill-opacity:0.8;stroke:#001c7f;stroke-opacity:0.8;" x="769.150647" xlink:href="#m9c67e497b1" y="587.56254"/>
     <use style="fill:#001c7f;fill-opacity:0.8;stroke:#001c7f;stroke-opacity:0.8;" x="926.561552" xlink:href="#m9c67e497b1" y="587.562954"/>
     <use style="fill:#001c7f;fill-opacity:0.8;stroke:#001c7f;stroke-opacity:0.8;" x="620.024526" xlink:href="#m9c67e497b1" y="587.566148"/>
     <use style="fill:#001c7f;fill-opacity:0.8;stroke:#001c7f;stroke-opacity:0.8;" x="520.607112" xlink:href="#m9c67e497b1" y="587.576971"/>
     <use style="fill:#001c7f;fill-opacity:0.8;stroke:#001c7f;stroke-opacity:0.8;" x="785.720216" xlink:href="#m9c67e497b1" y="587.580128"/>
     <use style="fill:#001c7f;fill-opacity:0.8;stroke:#001c7f;stroke-opacity:0.8;" x="851.998491" xlink:href="#m9c67e497b1" y="587.58133"/>
     <use style="fill:#001c7f;fill-opacity:0.8;stroke:#001c7f;stroke-opacity:0.8;" x="686.302802" xlink:href="#m9c67e497b1" y="587.586892"/>
     <use style="fill:#001c7f;fill-opacity:0.8;stroke:#001c7f;stroke-opacity:0.8;" x="736.011509" xlink:href="#m9c67e497b1" y="587.587042"/>
     <use style="fill:#001c7f;fill-opacity:0.8;stroke:#001c7f;stroke-opacity:0.8;" x="885.137629" xlink:href="#m9c67e497b1" y="587.589598"/>
     <use style="fill:#001c7f;fill-opacity:0.8;stroke:#001c7f;stroke-opacity:0.8;" x="818.859353" xlink:href="#m9c67e497b1" y="587.589673"/>
     <use style="fill:#001c7f;fill-opacity:0.8;stroke:#001c7f;stroke-opacity:0.8;" x="597.931767" xlink:href="#m9c67e497b1" y="587.593581"/>
     <use style="fill:#001c7f;fill-opacity:0.8;stroke:#001c7f;stroke-opacity:0.8;" x="719.44194" xlink:href="#m9c67e497b1" y="587.594258"/>
     <use style="fill:#001c7f;fill-opacity:0.8;stroke:#001c7f;stroke-opacity:0.8;" x="305.202716" xlink:href="#m9c67e497b1" y="587.600571"/>
     <use style="fill:#001c7f;fill-opacity:0.8;stroke:#001c7f;stroke-opacity:0.8;" x="711.157155" xlink:href="#m9c67e497b1" y="587.601548"/>
     <use style="fill:#001c7f;fill-opacity:0.8;stroke:#001c7f;stroke-opacity:0.8;" x="504.037543" xlink:href="#m9c67e497b1" y="587.608989"/>
     <use style="fill:#001c7f;fill-opacity:0.8;stroke:#001c7f;stroke-opacity:0.8;" x="719.44194" xlink:href="#m9c67e497b1" y="587.60944"/>
     <use style="fill:#001c7f;fill-opacity:0.8;stroke:#001c7f;stroke-opacity:0.8;" x="752.581078" xlink:href="#m9c67e497b1" y="587.612221"/>
     <use style="fill:#001c7f;fill-opacity:0.8;stroke:#001c7f;stroke-opacity:0.8;" x="752.581078" xlink:href="#m9c67e497b1" y="587.614852"/>
     <use style="fill:#001c7f;fill-opacity:0.8;stroke:#001c7f;stroke-opacity:0.8;" x="686.302802" xlink:href="#m9c67e497b1" y="587.618835"/>
     <use style="fill:#001c7f;fill-opacity:0.8;stroke:#001c7f;stroke-opacity:0.8;" x="752.581078" xlink:href="#m9c67e497b1" y="587.619436"/>
     <use style="fill:#001c7f;fill-opacity:0.8;stroke:#001c7f;stroke-opacity:0.8;" x="835.428922" xlink:href="#m9c67e497b1" y="587.620789"/>
    </g>
   </g>
   <g id="PolyCollection_1">
    <defs>
     <path d="M 73.22875 -181.182831 
L 73.22875 -90.852415 
L 82.936174 -91.976253 
L 92.643598 -93.100091 
L 102.351023 -94.223929 
L 112.058447 -95.533186 
L 121.765871 -96.847135 
L 131.473295 -98.161084 
L 141.18072 -99.427052 
L 150.888144 -100.604073 
L 160.595568 -101.781094 
L 170.302992 -102.958114 
L 180.010417 -104.132389 
L 189.717841 -105.303631 
L 199.425265 -106.474873 
L 209.132689 -107.639925 
L 218.840114 -108.803453 
L 228.547538 -109.966981 
L 238.254962 -111.130509 
L 247.962386 -112.257418 
L 257.669811 -113.303165 
L 267.377235 -114.348911 
L 277.084659 -115.394658 
L 286.792083 -116.440405 
L 296.499508 -117.489008 
L 306.206932 -118.765295 
L 315.914356 -120.06297 
L 325.62178 -121.360645 
L 335.329205 -122.619634 
L 345.036629 -123.945346 
L 354.744053 -125.108251 
L 364.451477 -126.27049 
L 374.158902 -127.440064 
L 383.866326 -128.61491 
L 393.57375 -129.864276 
L 403.281174 -130.91365 
L 412.988598 -132.001715 
L 422.696023 -133.271056 
L 432.403447 -134.440771 
L 442.110871 -135.665193 
L 451.818295 -136.774344 
L 461.52572 -137.934671 
L 471.233144 -139.14843 
L 480.940568 -140.261817 
L 490.647992 -141.428323 
L 500.355417 -142.650292 
L 510.062841 -143.937193 
L 519.770265 -144.923896 
L 529.477689 -145.947234 
L 539.185114 -146.819688 
L 548.892538 -147.781531 
L 558.599962 -148.565485 
L 568.307386 -149.323751 
L 578.014811 -150.00482 
L 587.722235 -150.832881 
L 597.429659 -151.637941 
L 607.137083 -152.402529 
L 616.844508 -153.184813 
L 626.551932 -153.980594 
L 636.259356 -154.517251 
L 645.96678 -155.120091 
L 655.674205 -155.643644 
L 665.381629 -155.927078 
L 675.089053 -156.288559 
L 684.796477 -156.737149 
L 694.503902 -157.113462 
L 704.211326 -157.346459 
L 713.91875 -157.434235 
L 723.626174 -157.546003 
L 733.333598 -157.742008 
L 743.041023 -157.798411 
L 752.748447 -157.781267 
L 762.455871 -157.672383 
L 772.163295 -157.545586 
L 781.87072 -157.510221 
L 791.578144 -157.279299 
L 801.285568 -157.398548 
L 810.992992 -157.360428 
L 820.700417 -157.298064 
L 830.407841 -157.175842 
L 840.115265 -156.947475 
L 849.822689 -156.587292 
L 859.530114 -156.477888 
L 869.237538 -156.080356 
L 878.944962 -156.039442 
L 888.652386 -155.816278 
L 898.359811 -155.5944 
L 908.067235 -155.204013 
L 917.774659 -154.993641 
L 927.482083 -154.862553 
L 937.189508 -154.697234 
L 946.896932 -154.474297 
L 956.604356 -154.251359 
L 966.31178 -154.028422 
L 976.019205 -153.805485 
L 985.726629 -153.558117 
L 995.434053 -153.342608 
L 1005.141477 -153.131735 
L 1014.848902 -152.905757 
L 1024.556326 -152.679779 
L 1034.26375 -152.453801 
L 1034.26375 -211.885438 
L 1034.26375 -211.885438 
L 1024.556326 -210.768171 
L 1014.848902 -209.575199 
L 1005.141477 -208.380324 
L 995.434053 -207.185011 
L 985.726629 -205.99539 
L 976.019205 -205.000862 
L 966.31178 -204.024065 
L 956.604356 -203.042747 
L 946.896932 -201.759462 
L 937.189508 -200.411417 
L 927.482083 -199.127853 
L 917.774659 -198.178622 
L 908.067235 -196.872722 
L 898.359811 -195.671153 
L 888.652386 -194.700275 
L 878.944962 -193.7264 
L 869.237538 -192.750888 
L 859.530114 -191.512838 
L 849.822689 -190.436808 
L 840.115265 -189.083243 
L 830.407841 -187.637127 
L 820.700417 -186.481706 
L 810.992992 -185.601766 
L 801.285568 -184.797598 
L 791.578144 -183.624833 
L 781.87072 -182.637603 
L 772.163295 -181.433957 
L 762.455871 -180.454999 
L 752.748447 -179.81846 
L 743.041023 -179.206796 
L 733.333598 -178.0027 
L 723.626174 -177.101411 
L 713.91875 -176.28672 
L 704.211326 -175.419881 
L 694.503902 -174.680038 
L 684.796477 -174.135919 
L 675.089053 -173.612878 
L 665.381629 -172.946245 
L 655.674205 -172.2149 
L 645.96678 -171.826244 
L 636.259356 -171.616542 
L 626.551932 -171.348464 
L 616.844508 -171.001008 
L 607.137083 -170.683363 
L 597.429659 -170.736398 
L 587.722235 -170.755317 
L 578.014811 -170.752901 
L 568.307386 -170.874491 
L 558.599962 -170.927881 
L 548.892538 -170.969368 
L 539.185114 -171.047108 
L 529.477689 -171.164797 
L 519.770265 -171.383616 
L 510.062841 -171.364666 
L 500.355417 -171.516152 
L 490.647992 -171.72585 
L 480.940568 -171.975917 
L 471.233144 -172.225985 
L 461.52572 -172.470148 
L 451.818295 -172.616138 
L 442.110871 -172.762128 
L 432.403447 -172.906292 
L 422.696023 -173.048254 
L 412.988598 -173.190215 
L 403.281174 -173.339252 
L 393.57375 -173.522903 
L 383.866326 -173.641494 
L 374.158902 -173.81178 
L 364.451477 -174.109617 
L 354.744053 -174.470417 
L 345.036629 -174.70518 
L 335.329205 -174.828238 
L 325.62178 -175.15086 
L 315.914356 -175.412069 
L 306.206932 -175.646434 
L 296.499508 -175.877542 
L 286.792083 -176.10865 
L 277.084659 -176.339758 
L 267.377235 -176.570866 
L 257.669811 -176.801974 
L 247.962386 -177.033082 
L 238.254962 -177.263566 
L 228.547538 -177.492091 
L 218.840114 -177.690456 
L 209.132689 -177.835853 
L 199.425265 -177.98125 
L 189.717841 -178.126647 
L 180.010417 -178.269742 
L 170.302992 -178.417879 
L 160.595568 -178.590655 
L 150.888144 -178.704246 
L 141.18072 -178.859566 
L 131.473295 -179.148892 
L 121.765871 -179.437997 
L 112.058447 -179.727102 
L 102.351023 -180.080737 
L 92.643598 -180.45737 
L 82.936174 -180.834003 
L 73.22875 -181.182831 
z
" id="m9d30961f5f" style="stroke:#ffffff;stroke-opacity:0.15;"/>
    </defs>
    <g clip-path="url(#pc89d34f2ce)">
     <use style="fill:#001c7f;fill-opacity:0.15;stroke:#ffffff;stroke-opacity:0.15;" x="0" xlink:href="#m9d30961f5f" y="705.380937"/>
    </g>
   </g>
   <g id="line2d_15">
    <path clip-path="url(#pc89d34f2ce)" d="M 73.22875 568.962075 
L 82.936174 568.509408 
L 92.643598 568.056742 
L 102.351023 567.604075 
L 112.058447 567.151409 
L 121.765871 566.698743 
L 131.473295 566.246076 
L 141.18072 565.79341 
L 150.888144 565.340743 
L 160.595568 564.888077 
L 170.302992 564.435411 
L 180.010417 563.982744 
L 189.717841 563.530078 
L 199.425265 563.077411 
L 209.132689 562.624745 
L 218.840114 562.172079 
L 228.547538 561.719412 
L 238.254962 561.266746 
L 247.962386 560.814079 
L 257.669811 560.361413 
L 267.377235 559.908747 
L 277.084659 559.45608 
L 286.792083 559.003414 
L 296.499508 558.550747 
L 306.206932 558.098081 
L 315.914356 557.645415 
L 325.62178 557.192748 
L 335.329205 556.740082 
L 345.036629 556.287415 
L 354.744053 555.834749 
L 364.451477 555.382083 
L 374.158902 554.929416 
L 383.866326 554.47675 
L 393.57375 554.024083 
L 403.281174 553.571417 
L 412.988598 553.118751 
L 422.696023 552.666084 
L 432.403447 552.213418 
L 442.110871 551.760751 
L 451.818295 551.308085 
L 461.52572 550.855419 
L 471.233144 550.402752 
L 480.940568 549.950086 
L 490.647992 549.497419 
L 500.355417 549.044753 
L 510.062841 548.592087 
L 519.770265 548.13942 
L 529.477689 547.686754 
L 539.185114 547.234087 
L 548.892538 546.781421 
L 558.599962 546.328755 
L 568.307386 545.876088 
L 578.014811 545.423422 
L 587.722235 544.970755 
L 597.429659 544.518089 
L 607.137083 544.065423 
L 616.844508 543.612756 
L 626.551932 543.16009 
L 636.259356 542.707423 
L 645.96678 542.254757 
L 655.674205 541.802091 
L 665.381629 541.349424 
L 675.089053 540.896758 
L 684.796477 540.444091 
L 694.503902 539.991425 
L 704.211326 539.538759 
L 713.91875 539.086092 
L 723.626174 538.633426 
L 733.333598 538.180759 
L 743.041023 537.728093 
L 752.748447 537.275427 
L 762.455871 536.82276 
L 772.163295 536.370094 
L 781.87072 535.917427 
L 791.578144 535.464761 
L 801.285568 535.012094 
L 810.992992 534.559428 
L 820.700417 534.106762 
L 830.407841 533.654095 
L 840.115265 533.201429 
L 849.822689 532.748762 
L 859.530114 532.296096 
L 869.237538 531.84343 
L 878.944962 531.390763 
L 888.652386 530.938097 
L 898.359811 530.48543 
L 908.067235 530.032764 
L 917.774659 529.580098 
L 927.482083 529.127431 
L 937.189508 528.674765 
L 946.896932 528.222098 
L 956.604356 527.769432 
L 966.31178 527.316766 
L 976.019205 526.864099 
L 985.726629 526.411433 
L 995.434053 525.958766 
L 1005.141477 525.5061 
L 1014.848902 525.053434 
L 1024.556326 524.600767 
L 1034.26375 524.148101 
" style="fill:none;stroke:#001c7f;stroke-linecap:round;stroke-width:2.25;"/>
   </g>
   <g id="patch_3">
    <path d="M 73.22875 642.33125 
L 73.22875 30.67125 
" style="fill:none;stroke:#ffffff;stroke-linecap:square;stroke-linejoin:miter;stroke-width:1.25;"/>
   </g>
   <g id="patch_4">
    <path d="M 73.22875 642.33125 
L 1034.26375 642.33125 
" style="fill:none;stroke:#ffffff;stroke-linecap:square;stroke-linejoin:miter;stroke-width:1.25;"/>
   </g>
   <g id="text_17">
    <!-- Average Gross Scatter Plot by Genre -->
    <defs>
     <path d="M 4.5 23 
L 13.421875 23.78125 
Q 14.0625 18.40625 16.375 14.96875 
Q 18.703125 11.53125 23.578125 9.40625 
Q 28.46875 7.28125 34.578125 7.28125 
Q 39.984375 7.28125 44.140625 8.890625 
Q 48.296875 10.5 50.3125 13.296875 
Q 52.34375 16.109375 52.34375 19.4375 
Q 52.34375 22.796875 50.390625 25.3125 
Q 48.4375 27.828125 43.953125 29.546875 
Q 41.0625 30.671875 31.203125 33.03125 
Q 21.34375 35.40625 17.390625 37.5 
Q 12.25 40.1875 9.734375 44.15625 
Q 7.234375 48.140625 7.234375 53.078125 
Q 7.234375 58.5 10.296875 63.203125 
Q 13.375 67.921875 19.28125 70.359375 
Q 25.203125 72.796875 32.421875 72.796875 
Q 40.375 72.796875 46.453125 70.234375 
Q 52.546875 67.671875 55.8125 62.6875 
Q 59.078125 57.71875 59.328125 51.421875 
L 50.25 50.734375 
Q 49.515625 57.515625 45.28125 60.984375 
Q 41.0625 64.453125 32.8125 64.453125 
Q 24.21875 64.453125 20.28125 61.296875 
Q 16.359375 58.15625 16.359375 53.71875 
Q 16.359375 49.859375 19.140625 47.359375 
Q 21.875 44.875 33.421875 42.265625 
Q 44.96875 39.65625 49.265625 37.703125 
Q 55.515625 34.8125 58.484375 30.390625 
Q 61.46875 25.984375 61.46875 20.21875 
Q 61.46875 14.5 58.203125 9.4375 
Q 54.9375 4.390625 48.796875 1.578125 
Q 42.671875 -1.21875 35.015625 -1.21875 
Q 25.296875 -1.21875 18.71875 1.609375 
Q 12.15625 4.4375 8.421875 10.125 
Q 4.6875 15.828125 4.5 23 
z
" id="ArialMT-83"/>
     <path d="M 40.4375 19 
L 49.078125 17.875 
Q 47.65625 8.9375 41.8125 3.875 
Q 35.984375 -1.171875 27.484375 -1.171875 
Q 16.84375 -1.171875 10.375 5.78125 
Q 3.90625 12.75 3.90625 25.734375 
Q 3.90625 34.125 6.6875 40.421875 
Q 9.46875 46.734375 15.15625 49.875 
Q 20.84375 53.03125 27.546875 53.03125 
Q 35.984375 53.03125 41.359375 48.75 
Q 46.734375 44.484375 48.25 36.625 
L 39.703125 35.296875 
Q 38.484375 40.53125 35.375 43.15625 
Q 32.28125 45.796875 27.875 45.796875 
Q 21.234375 45.796875 17.078125 41.03125 
Q 12.9375 36.28125 12.9375 25.984375 
Q 12.9375 15.53125 16.9375 10.796875 
Q 20.953125 6.0625 27.390625 6.0625 
Q 32.5625 6.0625 36.03125 9.234375 
Q 39.5 12.40625 40.4375 19 
z
" id="ArialMT-99"/>
     <path d="M 7.71875 0 
L 7.71875 71.578125 
L 34.71875 71.578125 
Q 41.84375 71.578125 45.609375 70.90625 
Q 50.875 70.015625 54.4375 67.546875 
Q 58.015625 65.09375 60.1875 60.640625 
Q 62.359375 56.203125 62.359375 50.875 
Q 62.359375 41.75 56.546875 35.421875 
Q 50.734375 29.109375 35.546875 29.109375 
L 17.1875 29.109375 
L 17.1875 0 
z
M 17.1875 37.546875 
L 35.6875 37.546875 
Q 44.875 37.546875 48.734375 40.96875 
Q 52.59375 44.390625 52.59375 50.59375 
Q 52.59375 55.078125 50.3125 58.265625 
Q 48.046875 61.46875 44.34375 62.5 
Q 41.9375 63.140625 35.5 63.140625 
L 17.1875 63.140625 
z
" id="ArialMT-80"/>
     <path d="M 14.703125 0 
L 6.546875 0 
L 6.546875 71.578125 
L 15.328125 71.578125 
L 15.328125 46.046875 
Q 20.90625 53.03125 29.546875 53.03125 
Q 34.328125 53.03125 38.59375 51.09375 
Q 42.875 49.171875 45.625 45.671875 
Q 48.390625 42.1875 49.953125 37.25 
Q 51.515625 32.328125 51.515625 26.703125 
Q 51.515625 13.375 44.921875 6.09375 
Q 38.328125 -1.171875 29.109375 -1.171875 
Q 19.921875 -1.171875 14.703125 6.5 
z
M 14.59375 26.3125 
Q 14.59375 17 17.140625 12.84375 
Q 21.296875 6.0625 28.375 6.0625 
Q 34.125 6.0625 38.328125 11.0625 
Q 42.53125 16.0625 42.53125 25.984375 
Q 42.53125 36.140625 38.5 40.96875 
Q 34.46875 45.796875 28.765625 45.796875 
Q 23 45.796875 18.796875 40.796875 
Q 14.59375 35.796875 14.59375 26.3125 
z
" id="ArialMT-98"/>
     <path d="M 6.203125 -19.96875 
L 5.21875 -11.71875 
Q 8.109375 -12.5 10.25 -12.5 
Q 13.1875 -12.5 14.9375 -11.515625 
Q 16.703125 -10.546875 17.828125 -8.796875 
Q 18.65625 -7.46875 20.515625 -2.25 
Q 20.75 -1.515625 21.296875 -0.09375 
L 1.609375 51.859375 
L 11.078125 51.859375 
L 21.875 21.828125 
Q 23.96875 16.109375 25.640625 9.8125 
Q 27.15625 15.875 29.25 21.625 
L 40.328125 51.859375 
L 49.125 51.859375 
L 29.390625 -0.875 
Q 26.21875 -9.421875 24.46875 -12.640625 
Q 22.125 -17 19.09375 -19.015625 
Q 16.0625 -21.046875 11.859375 -21.046875 
Q 9.328125 -21.046875 6.203125 -19.96875 
z
" id="ArialMT-121"/>
    </defs>
    <g style="fill:#262626;" transform="translate(355.879375 24.67125)scale(0.24 -0.24)">
     <use xlink:href="#ArialMT-65"/>
     <use x="64.949219" xlink:href="#ArialMT-118"/>
     <use x="114.949219" xlink:href="#ArialMT-101"/>
     <use x="170.564453" xlink:href="#ArialMT-114"/>
     <use x="203.865234" xlink:href="#ArialMT-97"/>
     <use x="259.480469" xlink:href="#ArialMT-103"/>
     <use x="315.095703" xlink:href="#ArialMT-101"/>
     <use x="370.710938" xlink:href="#ArialMT-32"/>
     <use x="398.494141" xlink:href="#ArialMT-71"/>
     <use x="476.277344" xlink:href="#ArialMT-114"/>
     <use x="509.578125" xlink:href="#ArialMT-111"/>
     <use x="565.193359" xlink:href="#ArialMT-115"/>
     <use x="615.193359" xlink:href="#ArialMT-115"/>
     <use x="665.193359" xlink:href="#ArialMT-32"/>
     <use x="692.976562" xlink:href="#ArialMT-83"/>
     <use x="759.675781" xlink:href="#ArialMT-99"/>
     <use x="809.675781" xlink:href="#ArialMT-97"/>
     <use x="865.291016" xlink:href="#ArialMT-116"/>
     <use x="893.074219" xlink:href="#ArialMT-116"/>
     <use x="920.857422" xlink:href="#ArialMT-101"/>
     <use x="976.472656" xlink:href="#ArialMT-114"/>
     <use x="1009.773438" xlink:href="#ArialMT-32"/>
     <use x="1037.556641" xlink:href="#ArialMT-80"/>
     <use x="1104.255859" xlink:href="#ArialMT-108"/>
     <use x="1126.472656" xlink:href="#ArialMT-111"/>
     <use x="1182.087891" xlink:href="#ArialMT-116"/>
     <use x="1209.871094" xlink:href="#ArialMT-32"/>
     <use x="1237.654297" xlink:href="#ArialMT-98"/>
     <use x="1293.269531" xlink:href="#ArialMT-121"/>
     <use x="1343.269531" xlink:href="#ArialMT-32"/>
     <use x="1371.052734" xlink:href="#ArialMT-71"/>
     <use x="1448.835938" xlink:href="#ArialMT-101"/>
     <use x="1504.451172" xlink:href="#ArialMT-110"/>
     <use x="1560.066406" xlink:href="#ArialMT-114"/>
     <use x="1593.367188" xlink:href="#ArialMT-101"/>
    </g>
   </g>
  </g>
 </g>
 <defs>
  <clipPath id="pc89d34f2ce">
   <rect height="611.66" width="961.035" x="73.22875" y="30.67125"/>
  </clipPath>
 </defs>
</svg>
